<svg xmlns="http://www.w3.org/2000/svg" width="36" height="36" viewBox="0 0 36 36">
    <g fill="none" fill-rule="evenodd">
        <path d="M5.273 4.219c.583 0 1.055.472 1.055 1.054 0 .583-.472 1.055-1.055 1.055-.582 0-1.054-.472-1.054-1.055 0-.582.472-1.054 1.054-1.054M9.492 4.219c.583 0 1.055.472 1.055 1.054 0 .583-.472 1.055-1.055 1.055-.582 0-1.055-.472-1.055-1.055 0-.582.473-1.054 1.055-1.054M13.71 4.219c.583 0 1.056.472 1.056 1.054 0 .583-.473 1.055-1.055 1.055-.583 0-1.055-.472-1.055-1.055 0-.582.472-1.054 1.055-1.054M30.586 4.219H17.93c-.583 0-1.055.472-1.055 1.054 0 .583.472 1.055 1.055 1.055h12.656c.582 0 1.055-.472 1.055-1.055 0-.582-.473-1.054-1.055-1.054"/>
        <path d="M33.89 8.437H2.11V3.164c0-.581.473-1.055 1.054-1.055h29.672c.581 0 1.055.474 1.055 1.055v5.273zM32.837 0H3.164C1.42 0 0 1.42 0 3.164v25.453c0 1.745 1.42 3.164 3.164 3.164h7.475c-.897-.85-1.944-1.812-1.944-1.812l.441-.297H3.164c-.581 0-1.055-.473-1.055-1.055v-18.07h31.782v18.07c0 .582-.474 1.055-1.055 1.055h-6.481l.575.437-1.417 1.672h7.323c1.745 0 3.164-1.42 3.164-3.164V3.164C36 1.42 34.58 0 32.836 0z"/>
        <path class="fill-highlight" d="M17.93 27.563c-1.745 0-3.164-1.42-3.164-3.165 0-1.744 1.419-3.164 3.164-3.164 1.744 0 3.164 1.42 3.164 3.164 0 1.745-1.42 3.165-3.164 3.165m0-8.438c-2.908 0-5.274 2.366-5.274 5.273 0 2.908 2.366 5.274 5.274 5.274 2.907 0 5.273-2.366 5.273-5.274 0-2.907-2.366-5.273-5.273-5.273"/>
        <path class="fill-highlight" d="M24.451 29.428l.937.937-1.492 1.491-.937-.936c-.34-.34-.868-.407-1.283-.162-.594.352-1.234.618-1.9.79-.466.12-.792.54-.792 1.021v1.322h-2.109v-1.322c0-.48-.325-.9-.79-1.021-.667-.172-1.307-.438-1.902-.79-.414-.245-.942-.179-1.283.162l-.936.936-1.492-1.491.937-.937c.34-.34.407-.868.161-1.283-.352-.595-.617-1.234-.79-1.901-.12-.466-.54-.79-1.02-.79H8.437v-2.11h1.321c.481 0 .901-.326 1.021-.791.172-.667.438-1.306.79-1.901.246-.415.179-.943-.162-1.283l-.936-.937 1.491-1.491.937.936c.34.34.869.407 1.283.162.595-.352 1.234-.618 1.901-.79.466-.12.79-.54.79-1.021v-1.322h2.11v1.322c0 .48.326.9.791 1.021.667.172 1.306.438 1.901.79.415.245.943.179 1.283-.162l.937-.936 1.491 1.491-.936.937c-.34.34-.407.868-.162 1.283.352.595.618 1.234.79 1.9.12.466.54.792 1.021.792h1.322v2.11H26.1c-.48 0-.9.324-1.02.79-.173.667-.439 1.306-.791 1.901-.245.415-.179.943.162 1.283zm3.286 1.392c.28-.34.26-.832-.036-1.148l-1.206-1.183c.144-.302.273-.611.385-.926h1.597c.582 0 1.054-.473 1.054-1.055v-4.219c0-.582-.472-1.055-1.054-1.055H26.88c-.112-.315-.24-.624-.385-.926l1.13-1.13c.411-.412.412-1.08 0-1.492l-2.983-2.983c-.412-.412-1.08-.412-1.492 0l-1.13 1.13c-.302-.144-.611-.273-.926-.385v-1.596c0-.583-.473-1.055-1.055-1.055H15.82c-.582 0-1.054.472-1.054 1.055v1.596c-.316.112-.625.24-.927.385l-1.13-1.13c-.412-.412-1.08-.412-1.491 0l-2.983 2.983c-.412.412-.412 1.08 0 1.492l1.13 1.13c-.145.302-.274.611-.385.926H7.383c-.583 0-1.055.473-1.055 1.055v4.219c0 .582.472 1.055 1.055 1.055H8.98c.112.315.24.624.385.926l-1.207 1.183c-.297.316-.317.808-.037 1.148l.833 1.01.147.147 2.117 2.117c.412.411 1.08.411 1.491 0l1.13-1.13c.302.144.611.273.927.384v1.597c0 .583.472 1.055 1.054 1.055h4.22c.582 0 1.054-.472 1.054-1.055v-1.597c.315-.111.624-.24.926-.385l1.13 1.13c.412.412 1.08.412 1.492 0l2.26-2.26.835-1.013z"/>
    </g>
</svg>
