<svg xmlns="http://www.w3.org/2000/svg" width="20" height="16" viewBox="0 0 20 16">
    <g fill="#FFF" fill-rule="evenodd">
        <path d="M1.818 14.222h1.818v-7.11H1.818v7.11zm2.727-8.889H.91c-.502 0-.909.398-.909.89v8.888c0 .491.407.889.91.889h3.635c.503 0 .91-.398.91-.889V6.222c0-.49-.407-.889-.91-.889zM9.09 14.222h1.82V1.778H9.09v12.444zM11.819 0H8.182c-.502 0-.91.398-.91.889V15.11c0 .491.408.889.91.889h3.636c.502 0 .91-.398.91-.889V.89c0-.491-.408-.889-.91-.889zM16.364 14.222h1.818V5.333h-1.818v8.89zM19.09 3.556h-3.636c-.503 0-.91.397-.91.888v10.667c0 .491.407.889.91.889h3.636c.502 0 .909-.398.909-.889V4.444c0-.49-.407-.888-.91-.888z"/>
    </g>
</svg>
