<svg xmlns="http://www.w3.org/2000/svg" width="42" height="42" viewBox="0 0 42 42">
    <g fill="none" fill-rule="evenodd">
        <path d="M38.37 39.54H3.63c-.644 0-1.169-.526-1.169-1.17V9.782h37.078V38.37c0 .645-.525 1.17-1.17 1.17M3.631 2.461h34.738c.645 0 1.17.525 1.17 1.17v3.691H2.461V3.631c0-.645.525-1.17 1.17-1.17M38.369 0H3.631C1.629 0 0 1.629 0 3.63v34.74C0 40.37 1.629 42 3.63 42h34.74C40.37 42 42 40.371 42 38.37V3.63C42 1.63 40.371 0 38.37 0"/>
        <path d="M5.34 6.112h1.683c.68 0 1.23-.551 1.23-1.23 0-.68-.55-1.231-1.23-1.231H5.34c-.68 0-1.23.55-1.23 1.23 0 .68.55 1.23 1.23 1.23M10.59 6.112h1.683c.68 0 1.23-.551 1.23-1.23 0-.68-.55-1.231-1.23-1.231H10.59c-.68 0-1.23.55-1.23 1.23 0 .68.55 1.23 1.23 1.23M15.84 6.112h1.683c.68 0 1.23-.551 1.23-1.23 0-.68-.55-1.231-1.23-1.231H15.84c-.68 0-1.23.55-1.23 1.23 0 .68.55 1.23 1.23 1.23M6.985 20.889h19.243v-6.563H6.985v6.563zm-1.23 2.46h21.703c.68 0 1.23-.55 1.23-1.23v-9.023c0-.68-.55-1.23-1.23-1.23H5.754c-.68 0-1.23.55-1.23 1.23v9.023c0 .68.55 1.23 1.23 1.23zM25.054 26.631c0-.68-.55-1.23-1.23-1.23H5.754c-.68 0-1.23.55-1.23 1.23 0 .68.55 1.23 1.23 1.23h18.07c.68 0 1.23-.55 1.23-1.23M5.754 32.127h11.037c.68 0 1.23-.55 1.23-1.23 0-.68-.55-1.23-1.23-1.23H5.754c-.68 0-1.23.55-1.23 1.23 0 .68.55 1.23 1.23 1.23M20.175 33.93H5.478c-.68 0-1.23.55-1.23 1.23 0 .68.55 1.23 1.23 1.23h14.697c.68 0 1.23-.55 1.23-1.23 0-.68-.55-1.23-1.23-1.23M27.472 33.93h-2.418c-.68 0-1.23.55-1.23 1.23 0 .68.55 1.23 1.23 1.23h2.418c.68 0 1.23-.55 1.23-1.23 0-.68-.55-1.23-1.23-1.23"/>
        <path class="fill-highlight" d="M34.75 31.707l-.627 1.05-.627-1.05c-.188-.315-.294-.671-.311-1.036h1.875c-.016.365-.123.721-.31 1.036zm-1.568-3.497h1.88v-9.633h-1.88v9.633zm.94-13.884c.52 0 .94.422.94.94v.85h-1.88v-.85c0-.518.422-.94.94-.94zm0-2.46c-1.875 0-3.4 1.525-3.4 3.4V30.57c0 .844.228 1.674.66 2.398l1.684 2.823c.222.373.623.6 1.057.6.433 0 .835-.227 1.057-.6l1.683-2.823c.432-.724.66-1.554.66-2.398V15.267c0-1.876-1.525-3.402-3.4-3.402z"/>
    </g>
</svg>
