<svg xmlns="http://www.w3.org/2000/svg" width="30" height="27" viewBox="0 0 30 27">
    <g fill="#FF6E54" fill-rule="evenodd">
        <path d="M25.974 24.634H4.025c-1.28 0-2.09-1.421-1.468-2.58L13.525 3.064l.011-.02a1.65 1.65 0 012.938.02l10.969 18.992c.621 1.158-.188 2.58-1.469 2.58m2.928-3.44a.431.431 0 00-.011-.02L17.92 2.18c-.604-1.102-1.695-1.76-2.92-1.76-1.227 0-2.318.658-2.923 1.76L1.11 21.175l-.01.02c-1.26 2.314.355 5.176 2.926 5.176h21.95c2.567 0 4.187-2.859 2.927-5.177"/>
        <path d="M14.225 14.125h1.55v-4.65h-1.55v4.65zm2.325-6.2h-3.1a.775.775 0 00-.775.775v6.2c0 .428.347.775.775.775h3.1a.775.775 0 00.775-.775V8.7a.775.775 0 00-.775-.776zM15 20.325a.776.776 0 010-1.55.776.776 0 010 1.55m0-3.1a2.328 2.328 0 00-2.325 2.325A2.328 2.328 0 0015 21.876a2.328 2.328 0 002.325-2.326A2.328 2.328 0 0015 17.225"/>
    </g>
</svg>
