<?xml version="1.0" encoding="UTF-8"?>
<svg width="370px" height="370px" viewBox="0 0 370 370" version="1.1" xmlns="http://www.w3.org/2000/svg" xmlns:xlink="http://www.w3.org/1999/xlink">
    <!-- Generator: Sketch 64 (93537) - https://sketch.com -->
    <title>logo-icon</title>
    <desc>Created with Sketch.</desc>
    <g id="logo-icon" stroke="none" stroke-width="1" fill="none" fill-rule="evenodd">
        <g id="Group-5" transform="translate(0.000000, 1.000000)">
            <path d="M184.186,0.506458249 C82.4656,0.506458249 0,82.8595092 0,184.38298 L0,184.38298 C0,207.792159 4.3512,230.152726 12.4024,250.740989 L12.4024,250.740989 C8.6136,226.268427 16.2208,200.40756 35.1056,181.547294 L35.1056,181.547294 L126.9396,89.9339553 C158.5524,58.3278705 209.8344,58.3278705 241.4324,89.9339553 L241.4324,89.9339553 L333.2516,181.547294 C352.2104,200.40756 359.8176,226.268427 356.0288,250.740989 L356.0288,250.740989 C364.0652,230.152726 368.4164,207.792159 368.4164,184.38298 L368.4164,184.38298 C368.4164,82.8595092 285.9656,0.506458249 184.186,0.506458249 Z" id="Fill-1" fill="#2ADCBD"></path>
            <path d="M260.027576,242.06739 C242.660934,265.00338 215.211866,279.889578 184.209522,279.889578 C153.207177,279.889578 125.772915,265.00338 108.391467,242.082188 L108.302635,242.170972 L44.9654665,305.474305 C78.810433,344.361906 128.630342,368.984801 184.194716,368.984801 C239.818312,368.984801 289.623415,344.361906 323.409161,305.474305 L260.086798,242.12658 L260.027576,242.06739 Z" id="Fill-4" fill="#3923B3"></path>
            <path d="M356.102273,251.272861 C348.3887,271.278963 337.269903,289.568565 323.412122,305.475784 L260.089759,242.12806 L211.765187,193.814507 C196.545316,178.617564 171.90926,178.617564 156.674583,193.814507 L108.305596,242.172452 L44.9684276,305.475784 C31.1846727,289.568565 20.0510704,271.278963 12.3374975,251.272861 C8.56214038,226.753548 16.172076,200.843278 35.0636671,181.946981 L126.930691,90.1438318 C158.540054,58.506963 209.840495,58.506963 241.464664,90.1438318 L333.316882,181.946981 C352.267695,200.843278 359.87763,226.753548 356.102273,251.272861" id="Fill-6" fill="#F9397B"></path>
            <path d="M108.388506,242.082188 L108.299674,242.170972 L44.9625055,305.474305 C45.2586119,305.814645 45.5695237,306.125391 45.8656301,306.465731 L134.712368,265.802441 C124.555917,259.557932 115.569087,251.567329 108.388506,242.082188" id="Fill-8" fill="#271D66"></path>
            <path d="M259.621911,242.082188 L259.725548,242.170972 L323.047911,305.474305 C322.76661,305.814645 322.440893,306.125391 322.159591,306.465731 L233.298048,265.802441 C243.469304,259.557932 252.441329,251.567329 259.621911,242.082188" id="Fill-10" fill="#271D66"></path>
        </g>
    </g>
</svg>