<svg xmlns="http://www.w3.org/2000/svg" width="12" height="16" viewBox="0 0 12 16">
    <path fill-rule="evenodd" d="M10.058 11.332H6.222c-.533 0-.987-.18-1.36-.545-.373-.365-.558-.805-.558-1.327V8.134H9.77c.493 0 .918-.173 1.27-.515.354-.345.53-.757.53-1.237 0-.481-.176-.892-.53-1.236-.354-.344-.78-.515-1.275-.515H4.304V1.889c0-.518-.19-.963-.57-1.332C3.359.187 2.905 0 2.375 0 1.832 0 1.369.183.993.545.614.909.426 1.358.426 1.891v7.572c0 1.556.566 2.886 1.7 3.99 1.133 1.107 2.5 1.658 4.099 1.658h3.835c.533 0 .99-.186 1.37-.557.38-.369.57-.814.57-1.332 0-.518-.19-.963-.57-1.333-.38-.37-.838-.557-1.372-.557"/>
</svg>
