<?xml version="1.0" encoding="UTF-8"?>
<svg width="16px" height="17px" viewBox="0 0 16 17" version="1.1" xmlns="http://www.w3.org/2000/svg" xmlns:xlink="http://www.w3.org/1999/xlink">
    <g id="Website" stroke="none" stroke-width="1" fill="none" fill-rule="evenodd">
        <g id="Axieon-Home" transform="translate(-1000.000000, -5589.000000)">
            <g id="Group-2" transform="translate(790.000000, 5567.000000)">
                <path d="M225.964591,37.279757 C225.978298,37.2054826 225.988349,37.130014 226,37.0555008 L226,23.671772 C225.988806,23.5984528 225.979212,23.5248949 225.965505,23.4518145 C225.825469,22.7021442 225.234027,22.1203676 224.507803,22.0164789 C224.477648,22.0124189 224.448179,22.005493 224.418481,22 L211.581519,22 C211.504076,22.0145683 211.426177,22.0255542 211.349876,22.0437049 C210.641014,22.2125539 210.116507,22.8093765 210.015534,23.5602409 C210.011422,23.5915269 210.005254,23.6225741 210,23.6538601 L210,37.0741291 C210.01462,37.1591506 210.026271,37.2448886 210.044547,37.3294325 C210.201259,38.0540263 210.79293,38.6157417 211.496766,38.7103162 C211.530804,38.714615 211.565071,38.7215409 211.599109,38.7272727 L224.400891,38.7272727 C224.484045,38.7124656 224.567427,38.7002856 224.649667,38.6816572 C225.303017,38.5366907 225.836891,37.9668553 225.964591,37.279757 Z M211.73115,36.2537667 C211.73115,36.6098541 212.026071,36.9160272 212.366681,36.9160272 C216.12139,36.916266 219.875869,36.916266 223.630577,36.9160272 C223.974386,36.9160272 224.267708,36.6103318 224.267708,36.2516173 C224.267936,33.7790665 224.267708,31.3067546 224.267708,28.8344427 L224.267708,28.7830954 L222.74033,28.7830954 C222.955982,29.5036291 223.02223,30.2365817 222.937706,30.9836249 C222.852725,31.730907 222.622453,32.4263642 222.247348,33.0685634 C221.872014,33.7114792 221.385428,34.2440579 220.789646,34.6679715 C219.245363,35.7675199 217.21221,35.8642438 215.57358,34.9027361 C214.745242,34.4172058 214.094861,33.7401381 213.6414,32.867712 C212.964977,31.5658792 212.856923,30.1995639 213.25373,28.7819013 C212.747041,28.7823789 212.242408,28.7823789 211.730921,28.7823789 L211.730921,28.8275167 C211.730921,31.3029334 211.730693,33.77835 211.73115,36.2537667 Z M217.925641,33.7513629 C219.737204,33.791963 221.202444,32.2787706 221.240595,30.4383885 C221.279658,28.5404496 219.815331,26.9728052 218.000114,26.9739993 C216.22556,26.9728052 214.782935,28.4654587 214.758035,30.3122891 C214.732449,32.208795 216.184669,33.7121956 217.925641,33.7513629 Z M224.26748,25.6229687 C224.267708,25.0949276 224.267708,24.5666476 224.26748,24.0386065 C224.26748,23.6598307 223.980782,23.3584341 223.618927,23.3581953 C223.115207,23.3579565 222.611488,23.3577177 222.10754,23.3581953 C221.746598,23.358673 221.458987,23.660786 221.458759,24.0395618 C221.45853,24.5630653 221.45716,25.0865687 221.460586,25.610311 C221.461043,25.6884066 221.475207,25.769607 221.498965,25.8436426 C221.589429,26.1223509 221.833636,26.2933493 222.132669,26.2947822 C222.375734,26.2952599 222.618798,26.2945434 222.862091,26.2945434 C223.125259,26.2914387 223.38934,26.2966928 223.652736,26.2900057 C223.991519,26.2811692 224.26748,25.9776232 224.26748,25.6229687 Z" id="Oval-1"></path>
            </g>
        </g>
    </g>
</svg>