<svg xmlns="http://www.w3.org/2000/svg" width="40" height="40" viewBox="0 0 40 40">
    <path fill-rule="evenodd" d="M37.656 37.656h-8.953v-1.338c0-.713.919-1.339 1.966-1.339h5.021c1.047 0 1.966.626 1.966 1.339v1.338zm-11.297 0H13.641V35.69c0-1.084.882-1.966 1.966-1.966h8.786c1.084 0 1.967.882 1.967 1.966v1.966zM2.344 36.318c0-.713.919-1.339 1.966-1.339h5.02c1.048 0 1.967.626 1.967 1.339v1.338H2.344v-1.338zm5.413-29.43c-.522-.522-.522-1.37 0-1.893.253-.253.589-.392.946-.392.358 0 .694.14.947.392l6.725 6.725c.22.22.517.344.828.344h5.594c.31 0 .609-.124.828-.344l6.726-6.725c.252-.253.588-.392.946-.392.357 0 .694.14.946.392.522.522.522 1.371 0 1.893l-8.05 8.052c-.22.22-.344.517-.344.828v5.57h-7.698v-5.57c0-.31-.123-.609-.343-.828L7.757 6.888zM20 2.344c2.033 0 3.688 1.654 3.688 3.688 0 2.033-1.655 3.688-3.688 3.688-2.033 0-3.688-1.655-3.688-3.688 0-2.034 1.655-3.688 3.688-3.688zm1.172 27.698v-6.36h2.677v6.36c0 .738-.6 1.338-1.338 1.338-.738 0-1.34-.6-1.34-1.338zm-5.02 0v-6.36h2.676v6.36c0 .738-.6 1.338-1.338 1.338-.738 0-1.339-.6-1.339-1.338zm19.538 2.593h-5.02c-.989 0-1.9.287-2.627.766-.513-.814-1.29-1.445-2.21-1.773.23-.48.36-1.019.36-1.586V16.254l7.708-7.708c.695-.696 1.078-1.62 1.078-2.604s-.383-1.908-1.078-2.604c-.696-.696-1.62-1.078-2.604-1.078s-1.908.382-2.604 1.078L26.031 6C26.014 2.69 23.315 0 20 0c-3.315 0-6.014 2.689-6.03 6l-2.663-2.662c-.695-.696-1.62-1.078-2.604-1.078S6.795 2.642 6.1 3.338c-1.436 1.436-1.436 3.772 0 5.208l7.707 7.708v13.788c0 .568.13 1.106.36 1.586-.92.328-1.697.959-2.21 1.773-.727-.48-1.638-.766-2.626-.766H4.31c-2.377 0-4.31 1.652-4.31 3.683v2.51C0 39.475.525 40 1.172 40h37.656c.647 0 1.172-.525 1.172-1.172v-2.51c0-2.03-1.933-3.683-4.31-3.683z"/>
</svg>
