<svg xmlns="http://www.w3.org/2000/svg" width="36" height="36" viewBox="0 0 36 36">
    <g fill="none" fill-rule="evenodd">
        <path d="M4.219 25.313H31.71V2.108H4.219v23.203zM18 33.89c-.581 0-1.055-.474-1.055-1.055S17.42 31.78 18 31.78s1.055.474 1.055 1.055S18.58 33.89 18 33.89zm16.945-8.578H33.82V2.108h1.125c.583 0 1.055-.472 1.055-1.054C36 .472 35.528 0 34.945 0H1.055C.472 0 0 .472 0 1.055c0 .582.472 1.054 1.055 1.054h1.054v23.203H1.055c-.583 0-1.055.473-1.055 1.055 0 .583.472 1.055 1.055 1.055h15.89v2.431c-1.227.436-2.11 1.608-2.11 2.983C14.836 34.58 16.256 36 18 36s3.164-1.42 3.164-3.164c0-1.375-.882-2.547-2.11-2.983v-2.431h15.891c.583 0 1.055-.472 1.055-1.055 0-.582-.472-1.055-1.055-1.055z"/>
        <path class="fill-highlight" d="M8.508 21.094h2.11v-4.219h-2.11v4.219zm3.164-6.328H7.453c-.582 0-1.055.472-1.055 1.054v6.328c0 .583.473 1.055 1.055 1.055h4.219c.582 0 1.055-.472 1.055-1.055V15.82c0-.582-.473-1.054-1.055-1.054zM16.945 21.094h2.11v-8.438h-2.11v8.438zm4.22 1.054V11.602c0-.583-.473-1.055-1.056-1.055h-4.218c-.583 0-1.055.472-1.055 1.055v10.546c0 .583.472 1.055 1.055 1.055h4.218c.583 0 1.055-.472 1.055-1.055zM25.383 21.094h2.11V8.437h-2.11v12.657zm-1.055 2.11h4.219c.582 0 1.055-.473 1.055-1.056V7.383c0-.583-.473-1.055-1.055-1.055h-4.219c-.582 0-1.055.472-1.055 1.055v14.765c0 .583.473 1.055 1.055 1.055z"/>
        <path d="M7.453 6.328h8.438c.582 0 1.054-.472 1.054-1.055 0-.582-.472-1.054-1.054-1.054H7.453c-.582 0-1.055.472-1.055 1.054 0 .583.473 1.055 1.055 1.055M11.672 8.437H7.453c-.582 0-1.055.473-1.055 1.055 0 .583.473 1.055 1.055 1.055h4.219c.582 0 1.055-.472 1.055-1.055 0-.582-.473-1.055-1.055-1.055"/>
    </g>
</svg>
