<svg xmlns="http://www.w3.org/2000/svg" width="30" height="30" viewBox="0 0 30 30">
    <g fill-rule="evenodd">
        <path d="M1.758 28.242h26.484V8.422H1.758v19.82zm0-21.578h26.484V1.758H1.758v4.906zM28.502 0H1.498C.672 0 0 .672 0 1.498v27.004C0 29.328.672 30 1.498 30h27.004c.826 0 1.498-.672 1.498-1.498V1.498C30 .672 29.328 0 28.502 0z"/>
        <path d="M22.875 4.211c0 .661-.536 1.197-1.196 1.197-.661 0-1.197-.536-1.197-1.197 0-.66.536-1.196 1.197-1.196.66 0 1.196.535 1.196 1.196M26.424 4.211c0 .661-.536 1.197-1.197 1.197-.66 0-1.196-.536-1.196-1.197 0-.66.536-1.196 1.196-1.196.661 0 1.197.535 1.197 1.196M19.326 4.211c0 .661-.536 1.197-1.197 1.197-.66 0-1.196-.536-1.196-1.197 0-.66.536-1.196 1.196-1.196.661 0 1.197.535 1.197 1.196M17.847 23.492c.368-1.208.598-2.682.66-4.28h2.424c-.286 1.85-1.46 3.42-3.084 4.28m-3.547.663c-.572-1.091-.959-2.925-1.047-4.944h3.494c-.088 2.02-.475 3.853-1.047 4.944-.23.026-.463.04-.7.04-.237 0-.47-.014-.7-.04M9.07 19.21h2.423c.062 1.599.292 3.073.66 4.28-1.623-.859-2.798-2.429-3.084-4.28m3.084-6.038c-.368 1.207-.598 2.682-.66 4.28H9.069c.286-1.85 1.46-3.42 3.084-4.28m3.547-.663c.572 1.09.959 2.924 1.047 4.943h-3.494c.088-2.019.475-3.853 1.047-4.943.23-.027.463-.04.7-.04.237 0 .47.013.7.04m5.23 4.943h-2.423c-.062-1.598-.292-3.073-.66-4.28 1.623.86 2.798 2.43 3.084 4.28m-4.506-6.612l-.013-.003c-.458-.083-.93-.126-1.412-.126-.481 0-.952.043-1.41.126l-.017.003c-3.597.66-6.329 3.768-6.329 7.491 0 4.202 3.48 7.62 7.756 7.62s7.756-3.418 7.756-7.62c0-3.723-2.733-6.832-6.33-7.491"/>
    </g>
</svg>
