<svg xmlns="http://www.w3.org/2000/svg" width="24" height="17" viewBox="0 0 24 17">
    <path fill-rule="evenodd" d="M22.594 14.507l-6.05-6.07 6.05-6.07v12.14zm-20.16.962l6.015-6.035 2.01 2.016c.824.827 2.258.826 3.082 0l2.01-2.016 6.016 6.035H2.433zm-1.028-.962V2.367l6.05 6.07-6.05 6.07zm20.16-13.1l-9.021 9.05c-.275.276-.815.276-1.09 0l-9.022-9.05h19.134zM21.892 0H2.109C.95 0 0 .944 0 2.11v12.656c0 1.165.95 2.109 2.11 2.109h19.78c1.161 0 2.11-.944 2.11-2.11V2.11C24 .944 23.05 0 21.89 0z"/>
</svg>
