<?xml version="1.0" encoding="utf-8"?>
<!-- Generator: Adobe Illustrator 21.0.2, SVG Export Plug-In . SVG Version: 6.00 Build 0)  -->
<svg version="1.1" id="Layer_1" xmlns="http://www.w3.org/2000/svg" xmlns:xlink="http://www.w3.org/1999/xlink" x="0px" y="0px"
	 viewBox="0 0 32 32" style="enable-background:new 0 0 32 32;" xml:space="preserve">
<g>
	<path fill="#2adcbd" d="M31.4,14.2c-1.1-1.4-2.4-2.8-3.7-4l-0.7-0.7L25.6,11l0.7,0.7c1.3,1.1,2.4,2.4,3.5,3.8c0.3,0.3,0.3,0.8,0,1.2
		c-2,2.5-7.2,8.4-13.8,8.4c-1.3,0-2.5-0.2-3.7-0.6l-0.9-0.3L10.7,26l0.9,0.3c1.4,0.5,2.8,0.7,4.3,0.7c7.5,0,13.2-6.4,15.4-9.2
		C32.2,16.7,32.2,15.3,31.4,14.2z"/>
	<path fill="#2adcbd" d="M16.8,20.9c-0.6,0.1-1.1,0.1-1.7,0l-1-0.2l-0.3,2l1,0.2C15.2,23,15.6,23,16,23c0.4,0,0.8,0,1.2-0.1
		c3.8-0.6,6.4-4.3,5.7-8.1l-0.2-1l-2,0.3l0.2,1C21.4,17.9,19.6,20.5,16.8,20.9z"/>
	<path fill="#2adcbd" d="M30,0.6l-6.5,6.5c-2.3-1.3-4.8-2-7.5-2.1C8.4,5,2.7,11.4,0.6,14.2c-0.8,1.1-0.8,2.5,0,3.6
		c1.8,2.3,3.9,4.3,6.2,6L0.6,30L2,31.4L31.4,2L30,0.6z M2.2,16.6c-0.3-0.3-0.3-0.8,0-1.1C4.1,12.9,9.3,7,16,7c2.1,0,4.2,0.6,6,1.6
		l-1.8,1.8C19,9.5,17.5,9,16,9c0,0,0,0,0,0c-1.9,0-3.6,0.7-4.9,2.1c-2.5,2.5-2.7,6.4-0.6,9.1l-2.1,2.1C6,20.7,3.9,18.8,2.2,16.6z
		 M12.5,12.5c0.9-0.9,2.2-1.5,3.5-1.5c0,0,0,0,0,0c1,0,1.9,0.3,2.8,0.8l-6.9,6.9C10.6,16.8,10.8,14.2,12.5,12.5z"/>
</g>
</svg>
