<?xml version="1.0" encoding="utf-8"?>
<!-- Generator: Adobe Illustrator 21.0.2, SVG Export Plug-In . SVG Version: 6.00 Build 0)  -->
<svg version="1.1" id="Layer_1" xmlns="http://www.w3.org/2000/svg" xmlns:xlink="http://www.w3.org/1999/xlink" x="0px" y="0px"
	 viewBox="0 0 32 32" style="enable-background:new 0 0 32 32;" xml:space="preserve">
<style type="text/css">
	.st0{fill:none;}
</style>
<title>eye 17</title>
<g>
	<g>
		<path fill="#2adcbd" d="M16,27c-7.5,0-13.2-6.4-15.4-9.2c-0.8-1.1-0.8-2.5,0-3.6C2.7,11.4,8.4,5,16,5c7.5,0,13.2,6.4,15.4,9.2
			c0.8,1.1,0.8,2.5,0,3.6C29.2,20.6,23.5,27,16,27z M16,7C9.3,7,4.1,12.9,2.2,15.4c-0.3,0.3-0.3,0.8,0,1.1l0,0
			C4.2,19.1,9.4,25,16,25c6.6,0,11.8-5.9,13.8-8.4c0.3-0.3,0.3-0.8,0-1.2C27.8,12.9,22.6,7,16,7z"/>
	</g>
	<g>
		<path fill="#2adcbd" d="M16,23c-3.9,0-7-3.1-7-7c0-3.9,3.1-7,7-7c3.9,0,7,3.1,7,7C23,19.9,19.9,23,16,23z M16,11c-2.8,0-5,2.2-5,5
			s2.2,5,5,5s5-2.2,5-5S18.8,11,16,11z"/>
	</g>
</g>
</svg>
