<svg xmlns="http://www.w3.org/2000/svg" width="20" height="23" viewBox="0 0 20 23">
    <g fill="#686868" fill-rule="evenodd">
        <path d="M15.465 7.708l-.045.041c-.282.242-.706.229-.972-.04l-2.034-2.06c-.28-.283-.28-.745 0-1.028.277-.281.734-.287 1.017 0l2.034 2.058c.28.284.28.745 0 1.03m1.017-2.06l-2.034-2.057c-.847-.857-2.211-.85-3.051 0-.841.85-.845 2.232 0 3.087l2.034 2.058c.841.851 2.21.851 3.05 0 .842-.85.842-2.236 0-3.087"/>
        <path d="M17.499 9.766c-1.405 1.422-3.68 1.423-5.085 0-.28-.284-.736-.284-1.017 0l-8.644 8.748-1.017-1.029 8.644-8.748c.28-.284.28-.745 0-1.029-1.402-1.419-1.402-3.727 0-5.146 1.402-1.418 3.683-1.418 5.085 0l2.034 2.059c1.405 1.422 1.405 3.723 0 5.145zm-7.627 7.72l-1.017 1.028L8.346 18c-.28-.284-.736-.284-1.017 0-.28.284-.28.745 0 1.029l.509.514-1.017 1.03-2.034-2.059 3.05-3.087 2.035 2.058zM18.516 3.59l-2.034-2.058c-1.963-1.986-5.156-1.986-7.119 0-1.79 1.812-1.947 4.66-.472 6.653L.21 16.97c-.281.285-.281.745 0 1.03l2.034 2.058c.28.284.736.284 1.016 0l.509-.515 2.542 2.573c.281.284.736.284 1.017 0l2.034-2.058L11.397 18c.28-.285.28-.745 0-1.03l-2.542-2.572 3.086-3.124c1.957 1.487 4.769 1.35 6.575-.479 1.967-1.99 1.967-5.213 0-7.204z"/>
    </g>
</svg>
