<svg xmlns="http://www.w3.org/2000/svg" width="36" height="36" viewBox="0 0 36 36">
    <g fill="none" fill-rule="evenodd">
        <path d="M29.601 5.344c0 .582-.472 1.054-1.055 1.054-.582 0-1.054-.472-1.054-1.054 0-.583.472-1.055 1.054-1.055.583 0 1.055.472 1.055 1.055M25.382 5.344c0 .582-.472 1.054-1.054 1.054-.583 0-1.055-.472-1.055-1.054 0-.583.472-1.055 1.055-1.055.582 0 1.054.472 1.054 1.055M21.164 5.344c0 .582-.473 1.054-1.055 1.054s-1.055-.472-1.055-1.054c0-.583.473-1.055 1.055-1.055s1.055.472 1.055 1.055"/>
        <path d="M33.58 33.581c-.411.412-1.078.412-1.49 0l-5.403-5.402c.566-.424 1.068-.926 1.492-1.492l5.402 5.402c.412.413.412 1.08 0 1.492zm-11.312-6.04c-2.907 0-5.273-2.365-5.273-5.273 0-2.907 2.366-5.273 5.273-5.273 2.908 0 5.274 2.366 5.274 5.273 0 2.908-2.366 5.274-5.274 5.274zm-18.401 4.24c-.97 0-1.758-.789-1.758-1.758V10.617h29.68l.02 16.718-2.587-2.587c1.716-4.798-1.864-9.862-6.954-9.862-4.07 0-7.382 3.312-7.382 7.382 0 5.098 5.069 8.668 9.862 6.954l2.558 2.559H3.866zm0-29.672h26.156c.97 0 1.758.789 1.758 1.76l.005 4.639H2.11V3.867c0-.97.789-1.758 1.758-1.758zm31.206 28.489l-1.152-1.151-.03-25.58C33.89 1.735 32.154 0 30.022 0H3.867C1.735 0 0 1.735 0 3.867v26.156c0 2.132 1.735 3.867 3.867 3.867h25.548l1.183 1.183c1.236 1.236 3.238 1.236 4.475 0 1.236-1.237 1.236-3.238 0-4.475z"/>
        <path class="fill-highlight" d="M5.344 14.836H15.89c.583 0 1.055-.472 1.055-1.055s-.472-1.055-1.055-1.055H5.344c-.583 0-1.055.472-1.055 1.055s.472 1.055 1.055 1.055M11.672 16.945H5.344c-.583 0-1.055.472-1.055 1.055 0 .582.472 1.054 1.055 1.054h6.328c.582 0 1.054-.472 1.054-1.054 0-.583-.472-1.055-1.054-1.055M11.672 21.164H5.344c-.583 0-1.055.472-1.055 1.054 0 .583.472 1.055 1.055 1.055h6.328c.582 0 1.054-.472 1.054-1.055 0-.582-.472-1.054-1.054-1.054M11.672 25.382H5.344c-.583 0-1.055.473-1.055 1.055 0 .583.472 1.055 1.055 1.055h6.328c.582 0 1.054-.472 1.054-1.055 0-.582-.472-1.055-1.054-1.055"/>
    </g>
</svg>
