<svg xmlns="http://www.w3.org/2000/svg" width="22" height="22" viewBox="0 0 22 22">
    <g fill="#FFF" fill-rule="evenodd">
        <path d="M19.637 20.71H2.363c-.592 0-1.074-.481-1.074-1.073V6.488h19.422v13.149c0 .592-.482 1.074-1.074 1.074M2.363 1.289h17.274c.592 0 1.074.482 1.074 1.074V5.2H1.289V2.363c0-.592.482-1.074 1.074-1.074M19.637 0H2.363C1.06 0 0 1.06 0 2.363v17.274C0 20.94 1.06 22 2.363 22h17.274C20.94 22 22 20.94 22 19.637V2.363C22 1.06 20.94 0 19.637 0"/>
        <path d="M19 3.5c0 .276-.224.5-.5.5s-.5-.224-.5-.5.224-.5.5-.5.5.224.5.5M16 3.5c0 .276-.224.5-.5.5s-.5-.224-.5-.5.224-.5.5-.5.5.224.5.5M14 3.5c0 .276-.224.5-.5.5s-.5-.224-.5-.5.224-.5.5-.5.5.224.5.5M4.312 12.8h14.376V9.2H4.312v3.6zM3.656 14h15.688c.362 0 .656-.269.656-.6V8.6c0-.331-.294-.6-.656-.6H3.656C3.294 8 3 8.269 3 8.6v4.8c0 .331.294.6.656.6zM2.67 17h6.66c.37 0 .67-.224.67-.5s-.3-.5-.67-.5H2.67c-.37 0-.67.224-.67.5s.3.5.67.5M9.333 18H2.667c-.369 0-.667.224-.667.5s.298.5.667.5h6.666c.369 0 .667-.224.667-.5s-.298-.5-.667-.5M18.33 16h-6.66c-.37 0-.67.224-.67.5s.3.5.67.5h6.66c.37 0 .67-.224.67-.5s-.3-.5-.67-.5M18.333 18h-6.666c-.369 0-.667.224-.667.5s.298.5.667.5h6.666c.369 0 .667-.224.667-.5s-.298-.5-.667-.5"/>
    </g>
</svg>
