<svg xmlns="http://www.w3.org/2000/svg" width="30" height="30" viewBox="0 0 30 30">
    <path fill-rule="evenodd" d="M25.816 11.766l-.829-.829-6.754-6.754 2.062-2.061 7.583 7.583-2.062 2.061zm-14.518 4.078c.36-.36.833-.54 1.306-.54.473 0 .946.18 1.305.54.72.72.72 1.891 0 2.611-.348.349-.812.54-1.305.54-.493 0-.957-.191-1.306-.54-.72-.72-.72-1.89 0-2.61zm8.194 3.663c-.18 1.456-.103 2.662-.009 3.414L3.85 27.344l6.936-7.082c.546.32 1.17.492 1.819.492.963 0 1.868-.375 2.548-1.056 1.406-1.405 1.406-3.691 0-5.097-1.405-1.405-3.691-1.405-5.097 0-1.2 1.2-1.374 3.043-.524 4.43l-6.852 6.996 4.399-15.51c.752.094 1.958.17 3.415-.01 2.088-.256 5.097-1.107 7.93-3.647l4.717 4.716c-2.54 2.834-3.391 5.842-3.648 7.93zm10.25-10.424L20.916.257C20.752.093 20.528 0 20.295 0c-.233 0-.457.093-.622.257L16.37 3.562c-.165.165-.258.388-.258.621 0 .234.093.457.258.622l.81.81c-1.976 1.754-4.27 2.81-6.829 3.14-2.141.275-3.679-.086-3.692-.09-.46-.113-.927.158-1.056.614L.074 28.769c-.142.325-.079.717.19.98.17.167.392.251.614.251.146 0 .29-.036.422-.108l19.42-5.494c.456-.13.728-.597.614-1.057-.014-.057-1.312-5.588 3.05-10.52l.81.81c.172.171.397.257.622.257.225 0 .45-.086.622-.257l3.305-3.305c.164-.165.257-.388.257-.621 0-.233-.093-.457-.258-.622z"/>
</svg>
