<svg xmlns="http://www.w3.org/2000/svg" width="55" height="55" viewBox="0 0 55 55">
    <g fill-rule="evenodd">
        <path d="M35.633 35.451c-8.875 0-16.095-7.22-16.095-16.094 0-8.874 7.22-16.095 16.095-16.095 8.874 0 16.094 7.22 16.094 16.095 0 8.874-7.22 16.094-16.094 16.094m-19.038 5.22L5.965 51.3c-.628.628-1.65.628-2.277 0-.627-.627-.627-1.648 0-2.276l10.631-10.63c.628-.628 1.649-.628 2.276 0 .63.628.63 1.646 0 2.276M35.633.043c-10.65 0-19.314 8.664-19.314 19.314 0 4.747 1.722 9.098 4.573 12.464l-3.354 3.355c-1.795-.855-4.012-.542-5.495.942L1.412 46.749c-1.883 1.882-1.883 4.946 0 6.828 1.883 1.883 4.946 1.883 6.829 0l10.63-10.63c1.506-1.506 1.792-3.727.944-5.497l3.353-3.353c3.367 2.851 7.718 4.573 12.465 4.573 10.65 0 19.313-8.664 19.313-19.313 0-10.65-8.664-19.314-19.313-19.314"/>
        <path d="M45.855 13.021c-.833-.312-1.76.11-2.072.942L40.46 22.82l-3.321-8.857c-.521-1.388-2.494-1.389-3.014 0l-3.322 8.857-3.321-8.857c-.313-.832-1.24-1.254-2.073-.942-.832.312-1.254 1.24-.941 2.073l4.828 12.875c.52 1.389 2.493 1.39 3.014 0l3.322-8.857 3.32 8.857c.522 1.389 2.494 1.39 3.015 0l4.828-12.875c.313-.833-.109-1.76-.941-2.073"/>
    </g>
</svg>
