<svg xmlns="http://www.w3.org/2000/svg" width="55" height="55" viewBox="0 0 55 55">
    <g fill-rule="evenodd">
        <path d="M35.668 35.443c-8.884 0-16.11-7.227-16.11-16.11s7.226-16.111 16.11-16.111c8.883 0 16.11 7.228 16.11 16.11 0 8.884-7.227 16.111-16.11 16.111m-19.056 5.224L5.97 51.31c-.628.628-1.65.628-2.279 0-.627-.628-.627-1.65 0-2.279L14.333 38.39c.63-.63 1.649-.63 2.278 0 .628.628.628 1.65 0 2.278M35.669 0c-10.66 0-19.333 8.673-19.333 19.332 0 4.752 1.724 9.108 4.578 12.477l-3.356 3.356c-1.764-.844-3.99-.567-5.503.945L1.414 46.752c-1.885 1.884-1.885 4.95 0 6.835C2.355 54.529 3.592 55 4.83 55c1.237 0 2.475-.471 3.417-1.413L18.89 42.945c1.484-1.485 1.798-3.704.943-5.5l3.358-3.358c3.37 2.854 7.725 4.578 12.477 4.578C46.328 38.665 55 29.992 55 19.332 55 8.672 46.328 0 35.668 0"/>
        <path d="M42.476 25.453h-12.91v-1.605c0-2.654 2.171-4.814 4.841-4.814h3.228c2.67 0 4.841 2.16 4.841 4.814v1.605zM36.021 9.406c1.78 0 3.228 1.44 3.228 3.21s-1.449 3.21-3.228 3.21c-1.78 0-3.228-1.44-3.228-3.21s1.448-3.21 3.228-3.21zm5.06 7.189c.872-1.095 1.395-2.477 1.395-3.98 0-3.539-2.895-6.418-6.455-6.418s-6.456 2.88-6.456 6.419c0 1.502.524 2.884 1.396 3.979-2.73 1.288-4.623 4.054-4.623 7.253v3.21c0 .886.723 1.604 1.614 1.604H44.09c.89 0 1.613-.718 1.613-1.605v-3.209c0-3.199-1.893-5.965-4.624-7.253z"/>
    </g>
</svg>
