<svg xmlns="http://www.w3.org/2000/svg" width="55" height="55" viewBox="0 0 55 55">
    <g fill-rule="evenodd">
        <path d="M43.352 13.24c-.893 0-1.619-.723-1.619-1.612 0-.89.726-1.613 1.62-1.613.892 0 1.619.724 1.619 1.613 0 .89-.727 1.613-1.62 1.613m-9.715 12.901c-.893 0-1.619-.723-1.619-1.613s.726-1.612 1.62-1.612c.892 0 1.618.723 1.618 1.612 0 .89-.726 1.613-1.619 1.613m-12.953-9.676c-.893 0-1.62-.723-1.62-1.613 0-.889.727-1.612 1.62-1.612.893 0 1.619.723 1.619 1.612 0 .89-.726 1.613-1.62 1.613M10.97 29.367c-.893 0-1.62-.723-1.62-1.612 0-.89.727-1.613 1.62-1.613.893 0 1.619.723 1.619 1.613 0 .889-.726 1.612-1.62 1.612M43.353 6.79c-2.678 0-4.857 2.17-4.857 4.838 0 .99.3 1.912.815 2.68l-4.22 5.604c-1.36-.425-2.89-.243-4.143.591L25.319 16.3c.144-.457.222-.943.222-1.447 0-2.667-2.179-4.838-4.857-4.838-2.679 0-4.858 2.17-4.858 4.838 0 .99.301 1.912.816 2.68l-4.22 5.605c-.46-.144-.947-.221-1.453-.221-2.679 0-4.858 2.17-4.858 4.838 0 2.667 2.179 4.838 4.858 4.838 2.678 0 4.857-2.171 4.857-4.838 0-.991-.3-1.913-.815-2.68l4.22-5.605c1.355.424 2.885.246 4.143-.591l5.628 4.204c-.144.456-.222.942-.222 1.446 0 2.668 2.179 4.838 4.857 4.838 2.679 0 4.858-2.17 4.858-4.838 0-.99-.301-1.912-.816-2.68l4.22-5.605c.46.144.947.222 1.453.222 2.679 0 4.858-2.17 4.858-4.838S46.03 6.79 43.352 6.79"/>
        <path d="M51.727 35.683H3.219v-30.8c0-.888.723-1.61 1.61-1.61h45.288c.888 0 1.61.722 1.61 1.61v30.8zm0 4.83c0 .887-.722 1.609-1.61 1.609H4.83c-.887 0-1.61-.722-1.61-1.61v-1.61h48.508v1.61zM21.989 51.78l1.503-6.439h7.748l1.502 6.44H21.99zM50.117.053H4.83C2.166.053 0 2.22 0 4.883v35.63c0 2.662 2.167 4.828 4.83 4.828h15.357l-1.503 6.44h-4.195c-.89 0-1.61.72-1.61 1.61 0 .888.72 1.609 1.61 1.609h25.756c.89 0 1.61-.721 1.61-1.61 0-.89-.72-1.61-1.61-1.61h-4.196l-1.502-6.439h15.571c2.663 0 4.83-2.166 4.83-4.829V4.882c0-2.662-2.167-4.829-4.83-4.829z"/>
    </g>
</svg>
