<svg xmlns="http://www.w3.org/2000/svg" width="30" height="30" viewBox="0 0 30 30">
    <g fill-rule="evenodd">
        <path d="M28.242 26.484c0 .97-.788 1.758-1.758 1.758-.969 0-1.757-.788-1.757-1.758V7.148h3.515v19.336zM4.395 28.242c-1.454 0-2.637-1.183-2.637-2.637V1.758h21.21v24.726c0 .64.174 1.24.474 1.758H4.395zM29.12 5.391h-4.394V.879c0-.485-.394-.879-.88-.879H.88C.394 0 0 .394 0 .879v24.726C0 28.03 1.971 30 4.395 30h22.09C28.422 30 30 28.423 30 26.484V6.27c0-.486-.394-.88-.879-.88z"/>
        <path d="M5.273 10.664h14.18V5.391H5.273v5.273zm15.059-7.031H4.395c-.486 0-.88.393-.88.879v7.031c0 .485.394.879.88.879h15.937c.485 0 .879-.394.879-.879V4.512c0-.486-.394-.88-.879-.88zM5.273 21.21h5.274v-5.273H5.273v5.274zm6.153-7.03H4.395c-.486 0-.88.393-.88.879v7.03c0 .486.394.88.88.88h7.03c.486 0 .88-.394.88-.88v-7.03c0-.486-.394-.88-.88-.88zM20.332 14.18h-5.273c-.486 0-.88.393-.88.879 0 .485.394.878.88.878h5.273c.485 0 .879-.393.879-.878 0-.486-.394-.88-.879-.88M20.332 17.695h-5.273c-.486 0-.88.394-.88.88 0 .485.394.878.88.878h5.273c.485 0 .879-.393.879-.879 0-.485-.394-.879-.879-.879M20.332 21.211h-5.273c-.486 0-.88.393-.88.879 0 .485.394.879.88.879h5.273c.485 0 .879-.394.879-.88 0-.485-.394-.878-.879-.878M20.332 24.727H4.395c-.486 0-.88.393-.88.878 0 .486.394.88.88.88h15.937c.485 0 .879-.394.879-.88 0-.485-.394-.878-.879-.878"/>
    </g>
</svg>
