<svg xmlns="http://www.w3.org/2000/svg" width="45" height="46" viewBox="0 0 45 46">
    <g fill="none" fill-rule="evenodd">
        <path d="M41.912 37.147H3.088c-.243 0-.44-.198-.44-.441V34.5h39.705v2.206c0 .243-.198.441-.441.441zM21.176 42.53h2.648v-2.735h-2.648v2.735zM3.088 13.324h4.853v18.529H2.647V13.765c0-.244.198-.441.441-.441zm12.794 18.529h5.294v-2.735h-5.294v2.735zm18.53-29.206v29.206H23.824v-4.059c0-.73-.593-1.323-1.324-1.323h-7.941c-.731 0-1.324.592-1.324 1.323v4.059h-2.647V2.647h23.824zm7.5 10.677c.243 0 .44.197.44.44v18.089H37.06v-18.53h4.853zm0-2.648h-4.853V1.324C37.059.592 36.466 0 35.735 0H9.265C8.534 0 7.94.593 7.94 1.324v9.352H3.088C1.385 10.676 0 12.062 0 13.765v22.94c0 1.704 1.385 3.09 3.088 3.09H18.53v2.734h-2.647c-.73 0-1.323.593-1.323 1.324 0 .731.592 1.323 1.323 1.323h13.236c.73 0 1.323-.592 1.323-1.323s-.592-1.324-1.323-1.324H26.47v-2.735h15.44c1.704 0 3.089-1.385 3.089-3.088V13.765c0-1.703-1.385-3.089-3.088-3.089z"/>
        <path class="fill-highlight" d="M15.882 10.676h13.236V8.03H15.882v2.647zm-1.323 2.648H30.44c.731 0 1.324-.593 1.324-1.324V6.706c0-.731-.593-1.324-1.324-1.324H14.56c-.731 0-1.324.593-1.324 1.324V12c0 .731.593 1.324 1.324 1.324zM14.559 18.618H30.44c.731 0 1.324-.593 1.324-1.324 0-.73-.593-1.323-1.324-1.323H14.56c-.731 0-1.324.592-1.324 1.323s.593 1.324 1.324 1.324M14.559 23.824H30.44c.731 0 1.324-.593 1.324-1.324 0-.731-.593-1.324-1.324-1.324H14.56c-.731 0-1.324.593-1.324 1.324 0 .731.593 1.324 1.324 1.324"/>
        <path d="M30.441 26.559h-2.647c-.73 0-1.323.592-1.323 1.323s.592 1.324 1.323 1.324h2.647c.731 0 1.324-.593 1.324-1.324 0-.73-.593-1.323-1.324-1.323"/>
    </g>
</svg>
