<svg xmlns="http://www.w3.org/2000/svg" width="32" height="32" viewBox="0 0 32 32">
    <g fill-rule="evenodd">
        <path d="M26.313 28.8v-2.487h2.486l-2.486 2.486zM1.875 1.874h28.25v22.563h-4.75c-.518 0-.938.42-.938.937v4.75H1.875V1.875zM32 25.375V.938C32 .42 31.58 0 31.062 0H.938C.42 0 0 .42 0 .938v30.125c0 .517.42.937.938.937h24.437c.247 0 .487-.099.663-.275 6.08-6.08 5.698-5.695 5.742-5.747.136-.162.22-.377.22-.603z"/>
        <path d="M5.688 6.715c0-.567.46-1.028 1.027-1.028h3.57c.567 0 1.027.461 1.027 1.028 0 .984.801 1.785 1.785 1.785H25.04l.906.937-.906.938h-1.477c-.25 0-.488.099-.663.275l-1.212 1.212-1.213-1.212c-.175-.176-.414-.275-.663-.275h-.937c-.249 0-.487.099-.663.275L17 11.862l-1.212-1.212c-.176-.176-.414-.275-.663-.275h-2.028c-.984 0-1.784.8-1.784 1.785 0 .567-.461 1.027-1.028 1.027h-3.57c-.567 0-1.027-.46-1.027-1.027V6.715zm1.027 8.347h3.57c1.57 0 2.853-1.253 2.901-2.812h1.55l1.601 1.6c.366.367.96.367 1.326 0l1.6-1.6h.161l1.6 1.6c.367.367.96.367 1.326 0l1.6-1.6h1.488c.254 0 .497-.103.674-.286l1.812-1.875c.351-.363.351-.94 0-1.303L26.112 6.91c-.177-.183-.42-.286-.674-.286H13.185c-.048-1.56-1.33-2.813-2.9-2.813h-3.57c-1.602 0-2.904 1.302-2.904 2.903v5.445c0 1.6 1.302 2.902 2.903 2.902zM27.25 16.938H15.98c-.519 0-.938.42-.938.937 0 .518.42.938.937.938H27.25c.518 0 .938-.42.938-.938s-.42-.938-.938-.938M4.75 18.813h7.5c.518 0 .938-.42.938-.938s-.42-.938-.938-.938h-7.5c-.518 0-.938.42-.938.938s.42.938.938.938M4.75 22.563h13.125c.518 0 .938-.42.938-.938s-.42-.938-.938-.938H4.75c-.518 0-.938.42-.938.938s.42.938.938.938M21.625 24.438H4.75c-.518 0-.938.42-.938.937 0 .518.42.938.938.938h16.875c.518 0 .938-.42.938-.938s-.42-.938-.938-.938"/>
        <path d="M8.5 11.313c.518 0 .938-.42.938-.938V8.5c0-.518-.42-.938-.938-.938s-.938.42-.938.938v1.875c0 .518.42.938.938.938M27.25 20.688h-5.625c-.518 0-.938.42-.938.937 0 .518.42.938.938.938h5.625c.518 0 .938-.42.938-.938s-.42-.938-.938-.938"/>
    </g>
</svg>
