<svg xmlns="http://www.w3.org/2000/svg" width="32" height="33" viewBox="0 0 32 33">
    <g fill-rule="evenodd">
        <path d="M27.053 25.46l-2.666-1.54c-.364-.21-.824-.156-1.13.133-1.223 1.16-2.72 2.026-4.328 2.505-.403.12-.68.49-.68.91v3.075h-4.797v-3.074c0-.42-.276-.791-.68-.911-1.607-.479-3.104-1.345-4.329-2.505-.305-.29-.764-.343-1.129-.133l-2.666 1.54-2.399-4.155 2.67-1.541c.363-.21.546-.634.45-1.042-.193-.812-.29-1.65-.29-2.489 0-.845.099-1.689.294-2.507.097-.409-.086-.833-.45-1.043L2.25 11.139l2.399-4.155 2.681 1.548c.364.21.823.157 1.128-.132 1.222-1.153 2.714-2.015 4.316-2.492.403-.12.679-.49.679-.91V1.9h4.797v3.096c0 .073.01.144.025.213-.15.567-.23 1.162-.23 1.774 0 .721.11 1.416.315 2.07-.786-.275-1.63-.425-2.508-.425-4.193 0-7.604 3.411-7.604 7.604s3.41 7.604 7.604 7.604c4.192 0 7.604-3.411 7.604-7.604 0-.903-.159-1.77-.45-2.574.637.192 1.312.296 2.01.296.457 0 .903-.045 1.336-.13.18.788.271 1.597.271 2.408 0 .839-.097 1.676-.289 2.489-.097.408.086.832.45 1.041l2.67 1.542-2.4 4.154zm-5.5-9.227c0 3.145-2.558 5.703-5.702 5.703-3.145 0-5.703-2.558-5.703-5.703 0-3.145 2.558-5.703 5.703-5.703 3.144 0 5.703 2.558 5.703 5.703zm3.462-14.318c2.795 0 5.07 2.274 5.07 5.07 0 2.795-2.275 5.069-5.07 5.069-2.795 0-5.07-2.274-5.07-5.07 0-2.795 2.275-5.069 5.07-5.069zm6.21 18.219l-2.898-1.674c.13-.733.196-1.48.196-2.227 0-.754-.067-1.508-.2-2.248l2.903-1.675c.218-.126.377-.334.443-.577.065-.244.03-.503-.095-.722l-.42-.727c.53-.983.831-2.107.831-3.3 0-3.843-3.127-6.97-6.97-6.97-1.89 0-3.608.757-4.865 1.984V.95c0-.524-.425-.95-.95-.95H12.5c-.525 0-.95.426-.95.95v3.36c-1.404.507-2.72 1.268-3.866 2.232l-2.91-1.68c-.455-.262-1.036-.106-1.298.348l-3.35 5.801c-.126.219-.16.478-.095.722.066.243.225.45.443.577l2.902 1.675c-.132.74-.2 1.494-.2 2.248 0 .747.067 1.494.197 2.227L.475 20.134c-.454.262-.61.843-.347 1.298l3.349 5.801c.262.455.844.61 1.298.348l2.894-1.67c1.15.97 2.471 1.735 3.882 2.245v3.337c0 .525.425.95.95.95H19.2c.525 0 .95-.425.95-.95v-3.337c1.41-.51 2.733-1.275 3.882-2.246l2.894 1.671c.455.263 1.036.107 1.298-.348l3.35-5.8c.262-.455.106-1.037-.348-1.3z"/>
        <path d="M24.203 6.435v2.753c0 .525.426.95.95.95.526 0 .951-.425.951-.95V4.767c0-.346-.188-.665-.49-.832-.303-.167-.673-.157-.966.027l-1.192.748c-.445.28-.579.866-.3 1.31.227.361.656.518 1.047.415"/>
    </g>
</svg>
