<svg xmlns="http://www.w3.org/2000/svg" width="32" height="32" viewBox="0 0 32 32">
    <path fill-rule="evenodd" d="M1.875 20.688h3.813v2.036c-1.092.387-1.875 1.429-1.875 2.651 0 1.55 1.261 2.813 2.812 2.813 1.222 0 2.264-.784 2.651-1.875h2.037v3.812H1.874v-9.438zm4.75 3.75c.517 0 .938.42.938.937 0 .517-.421.938-.938.938-.517 0-.938-.421-.938-.938 0-.517.421-.938.938-.938zm2.651 0c-.283-.798-.916-1.431-1.713-1.714v-2.037h3.75v3.75H9.276zm-1.713-11.25h4.687c.518 0 .938-.42.938-.938V7.562h5.624v4.688c0 .518.42.938.938.938h4.688v5.624H19.75c-.518 0-.938.42-.938.938v4.688h-5.625V19.75c0-.518-.42-.938-.937-.938H7.562v-5.625zm0-3.912c.797-.283 1.43-.916 1.713-1.713h2.037v3.75h-3.75V9.276zm-.938-1.713c-.517 0-.938-.421-.938-.938 0-.517.421-.938.938-.938.517 0 .938.421.938.938 0 .517-.421.938-.938.938zm-4.75 3.75V1.874h9.438v3.813H9.276C8.89 4.595 7.847 3.813 6.625 3.813c-1.55 0-2.813 1.261-2.813 2.812 0 1.222.784 2.264 1.876 2.651v2.037H1.874zm23.5-3.75c-.517 0-.938-.421-.938-.938 0-.517.421-.938.938-.938.517 0 .938.421.938.938 0 .517-.42.938-.938.938zm-4.688 0h2.037c.283.797.916 1.43 1.713 1.713v2.037h-3.75v-3.75zm0-5.688h9.438v9.438h-3.813V9.276c1.092-.387 1.875-1.429 1.875-2.651 0-1.55-1.261-2.813-2.812-2.813-1.222 0-2.264.784-2.651 1.876h-2.037V1.874zm3.75 20.849c-.797.283-1.43.916-1.713 1.713h-2.037v-3.75h3.75v2.037zm.938 1.713c.517 0 .938.421.938.938 0 .517-.421.938-.938.938-.517 0-.938-.421-.938-.938 0-.517.421-.938.938-.938zm4.75-3.75v9.438h-9.438v-3.813h2.037c.387 1.092 1.429 1.875 2.651 1.875 1.55 0 2.813-1.261 2.813-2.812 0-1.222-.784-2.264-1.875-2.651v-2.037h3.812zM.937 32H12.25c.518 0 .938-.42.938-.938v-4.75h5.624v4.75c0 .518.42.938.938.938h11.313c.517 0 .937-.42.937-.938V19.75c0-.518-.42-.938-.938-.938h-4.75v-5.625h4.75c.518 0 .938-.42.938-.937V.937C32 .42 31.58 0 31.062 0H19.75c-.518 0-.938.42-.938.938v4.75h-5.625V.938c0-.518-.42-.938-.937-.938H.937C.42 0 0 .42 0 .938V12.25c0 .518.42.938.938.938h4.75v5.624H.938c-.518 0-.938.42-.938.938v11.313c0 .517.42.937.938.937z"/>
</svg>
