<svg xmlns="http://www.w3.org/2000/svg" width="28" height="28" viewBox="0 0 28 28">
    <path d="M24.83 10.55l-5.396 5.396c.079-.999-.059-2.01-.414-2.96l4.076-4.075c1.107-1.107 1.107-2.9 0-4.007-1.108-1.107-2.9-1.107-4.007 0l-5.693 5.693c-1.107 1.107-1.107 2.9 0 4.007.465.465.465 1.221 0 1.686l-.745.746c-2.897-1.8-3.28-5.786-.941-8.125l5.74-5.74c2.04-2.04 5.34-2.04 7.38 0 2.039 2.039 2.04 5.34 0 7.379m-8.297-.77l3.716-3.716c.466-.466 1.22-.466 1.687 0 .466.466.466 1.22 0 1.687l-3.716 3.716c-.445-.635-1.005-1.208-1.687-1.686m-.243 9.308l-5.74 5.74c-2.04 2.04-5.34 2.04-7.38 0-2.039-2.039-2.039-5.34 0-7.379l5.396-5.396c-.079.998.06 2.01.414 2.96l-4.123 4.123c-1.105 1.104-1.105 2.901 0 4.006 1.105 1.105 2.902 1.105 4.006 0l5.693-5.693c1.105-1.104 1.105-2.902 0-4.006-.466-.466-.466-1.22 0-1.687l.794-.794c2.87 1.784 3.301 5.765.94 8.126m-4.823-.87l-3.764 3.764c-.465.465-1.221.465-1.686 0-.465-.465-.465-1.221 0-1.686l3.763-3.764c.453.647 1.021 1.22 1.687 1.687M25.99 2.01c-2.68-2.68-7.02-2.68-9.7 0l-5.74 5.74c-.486.487-.883 1.028-1.193 1.605-.589.316-1.128.717-1.606 1.195l-5.74 5.74c-2.68 2.68-2.681 7.019 0 9.7 2.68 2.68 7.018 2.68 9.699 0l5.74-5.74c.487-.487.884-1.03 1.194-1.606.45-.226 1.078-.667 1.605-1.194l5.74-5.74c2.68-2.68 2.681-7.02 0-9.7"/>
</svg>
