<svg xmlns="http://www.w3.org/2000/svg" width="36" height="36" viewBox="0 0 36 36">
    <g fill="none" fill-rule="evenodd">
        <path d="M22.29 25.312c-6.4 0-11.602-5.207-11.602-11.601 0-6.397 5.204-11.602 11.601-11.602 6.397 0 11.602 5.205 11.602 11.602s-5.205 11.601-11.602 11.601zM3.91 33.581c-.412.412-1.079.412-1.49 0-.412-.411-.412-1.08 0-1.491l5.722-5.723 1.491 1.491-5.723 5.723zM22.29 0C14.73 0 8.578 6.15 8.578 13.71c0 3.402 1.245 6.518 3.303 8.916l-2.249 2.25-.745-.746c-.412-.412-1.08-.412-1.492 0L.928 30.598c-1.237 1.237-1.237 3.238 0 4.475 1.236 1.236 3.237 1.236 4.474 0l6.468-6.47c.412-.41.412-1.079 0-1.49l-.745-.746 2.249-2.25c2.398 2.06 5.514 3.304 8.915 3.304 7.56 0 13.711-6.15 13.711-13.71C36 6.15 29.85 0 22.29 0z" transform="matrix(-1 0 0 1 36 0)"/>
        <path class="fill-highlight" d="M16.27 16.615h1.037V9.346c0-.573.466-1.038 1.039-1.038.574 0 1.038.465 1.038 1.038v7.27h2.077v-5.193c0-.573.465-1.038 1.039-1.038.573 0 1.038.465 1.038 1.038v5.192h2.077V13.5c0-.574.465-1.038 1.039-1.038.573 0 1.038.464 1.038 1.038v3.115h1.039c.573 0 1.038.465 1.038 1.039 0 .573-.465 1.038-1.038 1.038H16.269c-.573 0-1.038-.465-1.038-1.038 0-.574.465-1.039 1.038-1.039" transform="matrix(-1 0 0 1 36 0)"/>
    </g>
</svg>
