<?xml version="1.0" encoding="utf-8"?>
<svg version="1.1" id="Layer_1" xmlns="http://www.w3.org/2000/svg" xmlns:xlink="http://www.w3.org/1999/xlink" x="0px" y="0px"
	 viewBox="0 0 26 26" style="enable-background:new 0 0 26 26;" xml:space="preserve">
<g transform="translate(2 2)">
	<g>
		<path d="M9.5,20.2c-5.9,0-10.7-4.8-10.7-10.7c0-5.9,4.8-10.7,10.7-10.7c5.9,0,10.7,4.8,10.7,10.7
			C20.2,15.4,15.4,20.2,9.5,20.2z M9.5,1.3c-4.5,0-8.2,3.7-8.2,8.2s3.7,8.2,8.2,8.2s8.2-3.7,8.2-8.2S14,1.3,9.5,1.3z"/>
	</g>
	<g>
		<path d="M22.6,23.9c-0.3,0-0.6-0.1-0.9-0.4L16.3,18c-0.5-0.5-0.5-1.3,0-1.8s1.3-0.5,1.8,0l5.5,5.5
			c0.5,0.5,0.5,1.3,0,1.8C23.3,23.8,22.9,23.9,22.6,23.9z"/>
	</g>
</g>
</svg>
