<svg xmlns="http://www.w3.org/2000/svg" width="40" height="38" viewBox="0 0 40 38">
    <g fill-rule="evenodd">
        <path d="M36.449 18.75h-8.195c-.646 0-1.17-.524-1.17-1.17v-1.372c0-.474-.286-.9-.724-1.081-.437-.181-.94-.082-1.276.253l-3.713 3.714c-.457.457-.457 1.198 0 1.655l5.369 5.37c.457.457.457 1.197 0 1.654l-7.025 7.025c-.457.458-1.197.458-1.655 0-.458-.458-.458-1.198 0-1.655l5.37-5.37c.456-.457.456-1.198 0-1.655l-5.37-5.369c-.456-.456-.456-1.199 0-1.655l9.366-9.366c.73-.73 1.997-.207 1.998.826V15.24c0 .646.525 1.17 1.17 1.17h5.855c.645 0 1.17.526 1.17 1.171 0 .646-.525 1.17-1.17 1.17zM5.666 34.799c-.457.458-1.197.458-1.655 0-.456-.456-.456-1.199 0-1.655l11.707-11.707c.17.355.4.683.686.969l.828.828L5.666 34.798zM21.626 7.35c-.465-.335-1.106-.284-1.512.122l-3.91 3.911c-.458.458-1.198.458-1.656 0-.457-.456-.457-1.198 0-1.655l5.268-5.268c.391-.39 1.008-.453 1.471-.15l4.912 3.4c-.153.11-.296.23-.43.363l-1.314 1.315-2.829-2.038zm10.14-4.99c1.29 0 2.341 1.051 2.341 2.342 0 1.291-1.05 2.342-2.341 2.342-1.291 0-2.341-1.05-2.341-2.342 0-1.291 1.05-2.341 2.341-2.341zm4.683 11.708h-4.683v-3.513-.004c0-.378-.068-.787-.204-1.171 2.682.116 4.887-2.036 4.887-4.678 0-2.582-2.101-4.683-4.683-4.683s-4.683 2.1-4.683 4.683c0 .281.026.556.074.823l-4.548-3.148-.018-.013c-1.389-.923-3.252-.738-4.43.44l-5.269 5.269c-1.37 1.369-1.37 3.597 0 4.966 1.37 1.37 3.598 1.37 4.967 0l3.207-3.207 1.712 1.233-6.374 6.373-14.048 14.05c-1.37 1.368-1.37 3.596 0 4.966 1.373 1.372 3.593 1.373 4.966 0l11.566-11.566 2.058 2.058-4.542 4.541c-1.372 1.373-1.372 3.594 0 4.967 1.373 1.372 3.594 1.373 4.967 0l7.025-7.025c1.372-1.372 1.373-3.594 0-4.966l-4.542-4.541 1.11-1.11c.5 1.33 1.786 2.28 3.29 2.28h8.195c1.937 0 3.512-1.575 3.512-3.512s-1.576-3.512-3.512-3.512zM9.522 4.702H3.668c-.646 0-1.17.524-1.17 1.17 0 .647.524 1.171 1.17 1.171h5.854c.646 0 1.17-.524 1.17-1.17 0-.647-.524-1.171-1.17-1.171"/>
        <path d="M9.522 14.068H3.668c-.646 0-1.17.524-1.17 1.17 0 .647.524 1.171 1.17 1.171h5.854c.646 0 1.17-.524 1.17-1.17 0-.647-.524-1.171-1.17-1.171M7.18 9.385H1.17c-.646 0-1.17.524-1.17 1.17 0 .647.524 1.171 1.17 1.171h6.01c.647 0 1.171-.524 1.171-1.17 0-.647-.524-1.171-1.17-1.171"/>
    </g>
</svg>
