<?xml version="1.0" encoding="utf-8"?>
<svg version="1.1" id="Layer_1" xmlns="http://www.w3.org/2000/svg" xmlns:xlink="http://www.w3.org/1999/xlink" x="0px" y="0px"
	 viewBox="0 0 21 21" style="enable-background:new 0 0 21 21;" xml:space="preserve">
<g transform="translate(1 1)">
	<g>
		<path d="M9.5,19.5c-5.5,0-10-4.5-10-10c0-5.5,4.5-10,10-10c5.5,0,10,4.5,10,10C19.5,15,15,19.5,9.5,19.5z M9.5,0.5
			c-5,0-9,4-9,9c0,5,4,9,9,9c5,0,9-4,9-9C18.5,4.5,14.5,0.5,9.5,0.5z"/>
	</g>
	<g>
		<path class="fill-highlight" d="M9.8,6.7c-0.6,0-1.2-0.4-1.2-1.1s0.5-1.1,1.2-1.1s1.2,0.5,1.2,1.1S10.4,6.7,9.8,6.7z M9,14V8.1h1.6V14H9z"/>
	</g>
</g>
</svg>
