<svg xmlns="http://www.w3.org/2000/svg" width="20" height="20" viewBox="0 0 20 20">
    <path fill="#686868" fill-rule="evenodd" d="M17.865 7.366l-4.003 3.855c.058-.713-.044-1.436-.307-2.114l3.024-2.912c.821-.792.821-2.072 0-2.863-.822-.791-2.151-.791-2.973 0L9.382 7.399c-.821.792-.821 2.072 0 2.863.345.332.345.873 0 1.205L8.83 12c-2.15-1.285-2.434-4.134-.698-5.806l4.26-4.101c1.512-1.457 3.961-1.457 5.474 0 1.513 1.457 1.513 3.815 0 5.273M12 6.827l2.584-2.584c.324-.324.849-.324 1.173 0 .324.324.324.849 0 1.173L13.173 8c-.31-.441-.699-.84-1.173-1.173m-.132 6.979L7.61 17.907c-1.512 1.457-3.961 1.457-5.474 0-1.513-1.457-1.513-3.815 0-5.272l4.003-3.856c-.059.714.044 1.437.307 2.115L3.386 13.84c-.82.789-.82 2.073 0 2.862.82.79 2.153.79 2.972 0l4.224-4.067c.82-.79.82-2.074 0-2.863-.346-.333-.346-.872 0-1.205L11.17 8c2.13 1.274 2.449 4.119.697 5.806M8 13.163L5.404 15.76c-.32.321-.843.321-1.163 0-.321-.32-.321-.842 0-1.163L6.837 12c.312.446.704.841 1.163 1.163M18.564 1.436c-1.915-1.915-5.013-1.915-6.928 0l-4.1 4.1c-.348.347-.631.734-.852 1.146-.421.226-.806.512-1.148.854l-4.1 4.1c-1.915 1.914-1.915 5.013 0 6.928s5.013 1.915 6.928 0l4.1-4.1c.348-.348.632-.735.853-1.147.321-.161.77-.476 1.147-.853l4.1-4.1c1.915-1.914 1.915-5.013 0-6.928"/>
</svg>
