<svg xmlns="http://www.w3.org/2000/svg" xmlns:xlink="http://www.w3.org/1999/xlink" width="617" height="632" viewBox="0 0 617 632">
    <defs>
        <path id="prefix__b" d="M525.3 132l-28.275-28.354-21.577-21.624c-6.796-6.802-17.796-6.802-24.598 0l-21.598 21.644L400.972 132c-6.155-7.12-11.126-15.306-14.57-24.26-4.24-10.75 1.712-22.572 10.147-31.03l41.02-41.09c14.113-14.16 37.02-14.16 51.14 0l41.013 41.09c8.461 8.458 13.676 20.812 10.174 31.03-3.445 8.954-8.41 17.14-14.597 24.26z"/>
        <path id="prefix__d" d="M75.15 150l-14.137-14.044-10.789-10.712c-3.398-3.369-8.898-3.369-12.3 0l-10.798 10.722L12.986 150c-3.077-3.527-5.563-7.582-7.285-12.017-2.12-5.325.856-11.18 5.074-15.37l20.51-20.353c7.056-7.013 18.51-7.013 25.57 0l20.506 20.353c4.23 4.19 6.838 10.31 5.087 15.37-1.722 4.435-4.205 8.49-7.298 12.017z"/>
        <path id="prefix__e" d="M.134 6.553v12.744l148.072 76.667V11.185c-8.053-9.179-15.293-5.051-25.274-.925-9.59 3.966-21.711 7.931-39.516.09-11.65-5.129-20.795-2.451-28.008.226-5.211 1.935-9.415 3.869-12.826 2.859-13.795-4.088-7.75-3.751-19.25-9.631C19.282 1.732 15.733.976 12.706.976 4.49.977.134 6.553.134 6.553"/>
        <filter id="prefix__a" width="179.5%" height="215.9%" x="-39.7%" y="-34.6%" filterUnits="objectBoundingBox">
            <feOffset dy="25" in="SourceAlpha" result="shadowOffsetOuter1"/>
            <feGaussianBlur in="shadowOffsetOuter1" result="shadowBlurOuter1" stdDeviation="16.5"/>
            <feColorMatrix in="shadowBlurOuter1" values="0 0 0 0 1 0 0 0 0 0.701960784 0 0 0 0 0.176470588 0 0 0 0.3 0"/>
        </filter>
        <filter id="prefix__c" width="252.6%" height="324.5%" x="-76.3%" y="-74.5%" filterUnits="objectBoundingBox">
            <feOffset dy="20" in="SourceAlpha" result="shadowOffsetOuter1"/>
            <feGaussianBlur in="shadowOffsetOuter1" result="shadowBlurOuter1" stdDeviation="16.5"/>
            <feColorMatrix in="shadowBlurOuter1" values="0 0 0 0 0.164705882 0 0 0 0 0.862745098 0 0 0 0 0.741176471 0 0 0 0.3 0"/>
        </filter>
    </defs>
    <g fill="none" fill-rule="evenodd" transform="translate(26)">
        <path fill="#F7F7F8" d="M532.779 405l-107.37-107.32-81.938-81.85c-25.807-25.745-67.58-25.745-93.411 0l-82.014 81.925L60.652 405c-23.372-26.949-42.25-57.934-55.329-91.827-16.099-40.688 6.502-85.435 38.535-117.448L199.626 40.198c53.597-53.597 140.582-53.597 194.203 0l155.744 155.527c32.133 32.013 48.331 78.775 38.635 117.448-12.815 33.327-31.932 64.878-55.43 91.827z"/>
        <use fill="#000" filter="url(#prefix__a)" xlink:href="#prefix__b"/>
        <use fill="#FFB32D" xlink:href="#prefix__b"/>
        <use fill="#000" filter="url(#prefix__c)" xlink:href="#prefix__d"/>
        <use fill="#2ADCBD" xlink:href="#prefix__d"/>
        <g>
            <g>
                <path stroke="#D8D8D8" stroke-linecap="round" stroke-linejoin="round" d="M80.39 513.215L2.071 467.999c-2.33-1.346-2.036-3.717.655-5.27l76.465-44.147c2.69-1.554 6.798-1.724 9.128-.38l78.317 45.218c2.33 1.345 2.035 3.716-.656 5.27l-76.464 44.147c-2.69 1.553-6.798 1.723-9.128.378zM252.422 574.592l-78.316-45.216c-2.33-1.346-2.036-3.717.655-5.27l76.464-44.147c2.69-1.554 6.799-1.724 9.129-.379l78.316 45.217c2.33 1.345 2.035 3.716-.655 5.27l-76.465 44.147c-2.69 1.553-6.798 1.724-9.128.378z" transform="translate(0 55) translate(0 .597)"/>
                <path fill="#FFF" fill-opacity=".1" d="M462.16 171.879l-113.608-66.031c-.431-.291-.873-.57-1.328-.834L170.019 2.022c-7.858-4.568-17.714 1.085-17.741 10.174l-.56 193.478-.215 74.226c-.031 10.796 5.699 20.788 15.032 26.212l201.28 116.99c.62.36 1.227.74 1.817 1.137l77.515 45.055c11.466 6.663 25.847-1.584 25.885-14.846l.216-74.226.329-113.832.215-74.228c.024-8.352-4.41-16.084-11.632-20.282" transform="translate(0 55) translate(0 .597)"/>
                <path fill="#3923B3" d="M344.829 369.344c.62.359 1.228.737 1.818 1.133l77.646 44.829c11.485 6.63 25.842-1.658 25.842-14.92v-188.06c0-8.353-4.456-16.072-11.691-20.25l-113.8-65.701c-.431-.29-.875-.566-1.33-.828L145.814 23.066C137.94 18.52 128.1 24.202 128.1 33.292L128.1 226.77c0 10.796 5.76 20.77 15.109 26.169l201.62 116.405z" transform="translate(0 55) translate(0 .597)"/>
                <path fill="#3923B3" d="M344.829 444.26c.62.357 1.228.736 1.818 1.132l77.646 44.828c11.485 6.632 25.842-1.657 25.842-14.919v-188.06c0-8.353-4.456-16.072-11.691-20.249l-113.8-65.702c-.431-.289-.875-.566-1.33-.828L145.814 97.982c-7.872-4.546-17.712 1.135-17.712 10.224l-.001 193.48c0 10.795 5.76 20.77 15.109 26.168l201.62 116.405z" transform="translate(0 55) translate(0 .597)"/>
                <path fill="#2C1F9C" d="M323.583 177.197c.736.425 1.455.874 2.155 1.343l124.397 71.821v-38.217c0-8.353-4.456-16.072-11.691-20.249l-113.8-65.702c-.431-.29-.874-.566-1.33-.829L145.814 22.884c-7.872-4.546-17.711 1.135-17.711 10.225v31.226l195.48 112.862z" transform="translate(0 55) translate(0 .597)"/>
                <path fill="#FFF" d="M409.441 376.4l-70.22-40.54c-4.34-2.507-7.89-9.29-7.89-15.077v-68.425c0-5.787 3.55-8.47 7.89-5.965l70.22 40.542c4.34 2.505 7.891 9.29 7.891 15.075v68.425c0 5.786-3.55 8.47-7.89 5.966" transform="translate(0 55) translate(0 .597)"/>
                <path fill="#4432DB" d="M400.9 327.776c0 17.977-12.7 25.219-28.368 16.173-15.668-9.046-28.368-30.952-28.368-48.93 0-17.978 12.7-25.22 28.368-16.175 15.667 9.046 28.368 30.952 28.368 48.932" transform="translate(0 55) translate(0 .597)"/>
                <path fill="#2ADCBD" d="M394.38 344.772c4.072-3.284 6.52-9.105 6.52-16.997 0-4.93-.96-10.157-2.67-15.333l-13.225-5.452-15.197 6.724v.812l24.573 30.246z" transform="translate(0 55) translate(0 .597)"/>
                <path fill="#FFB32D" d="M369.807 313.714l36.624 6.793c-2.456-14.48-10.587-29.807-21.288-40.626l-15.336 33.833z" transform="translate(0 55) translate(0 .597)"/>
                <path fill="#2ADCBD" d="M163.54 59.387c0 4.57-3.23 6.41-7.21 4.11-3.981-2.298-7.21-7.866-7.21-12.435 0-4.57 3.229-6.41 7.21-4.11 3.98 2.298 7.21 7.866 7.21 12.435" transform="translate(0 55) translate(0 .597)"/>
                <path fill="#614AE4" d="M182.892 70.72c0 4.569-3.228 6.41-7.21 4.11-3.98-2.298-7.21-7.866-7.21-12.435 0-4.57 3.23-6.41 7.21-4.111 3.982 2.299 7.21 7.867 7.21 12.436" transform="translate(0 55) translate(0 .597)"/>
                <path fill="#FFB32D" d="M202.245 82.052c0 4.57-3.228 6.41-7.21 4.111-3.981-2.299-7.21-7.867-7.21-12.436s3.229-6.409 7.21-4.11c3.982 2.298 7.21 7.866 7.21 12.435" transform="translate(0 55) translate(0 .597)"/>
            </g>
            <g transform="translate(0 55) translate(158 213.597)">
                <mask id="prefix__f" fill="#fff">
                    <use xlink:href="#prefix__e"/>
                </mask>
                <path d="M.134 6.553v12.744l148.072 76.667V11.185c-8.053-9.179-15.293-5.051-25.274-.925-9.59 3.966-21.711 7.931-39.516.09-11.65-5.129-20.795-2.451-28.008.226-5.211 1.935-9.415 3.869-12.826 2.859-13.795-4.088-7.75-3.751-19.25-9.631C19.282 1.732 15.733.976 12.706.976 4.49.977.134 6.553.134 6.553" mask="url(#prefix__f)"/>
            </g>
            <g>
                <path stroke="#FFF" stroke-linecap="round" stroke-linejoin="round" d="M107.133 93.772V9.075M144.014 111.895V27.198M180.895 131.08V46.383M217.776 150.243V65.546M254.656 170.72V86.022" transform="translate(0 55) translate(51 139.597)"/>
                <path fill="#FFF" d="M254.227 77.684l-4.863-2.808c-.538-.31-.979-1.152-.979-1.869 0-.718.441-1.05.98-.74l4.862 2.808c.538.311.98 1.152.98 1.87 0 .717-.442 1.05-.98.74M253.821 174.993l-4.863-2.808c-.016-.009-.031-.012-.045-.02l-3.612-2.085c-.538-.31-.978.022-.978.74 0 .717.44 1.558.978 1.87l4.864 2.806c.015.01.029.013.045.02l3.611 2.085c.538.311.979-.022.979-.739 0-.718-.441-1.558-.979-1.869M313.648 83.955l-8.809-5.085c-.027-.016-.053-.022-.08-.036l-6.54-3.776c-.1-.058-.196-.095-.29-.128l-5.338-3.082c-.028-.016-.053-.021-.08-.036l-6.542-3.776c-.974-.562-1.77.04-1.77 1.34 0 1.299.796 2.822 1.77 3.385l8.808 5.085c.028.016.055.022.082.036l6.54 3.776c.1.057.194.094.29.128l5.337 3.082c.028.016.055.02.082.036l6.54 3.775c.974.563 1.771-.04 1.771-1.34 0-1.298-.797-2.822-1.77-3.384M339.256 256.6l-8.81-5.084c-.026-.016-.052-.022-.08-.036l-6.54-3.776c-.1-.058-.195-.095-.29-.128l-5.338-3.082c-.027-.016-.052-.021-.08-.036l-5.24-3.024c-.062-.046-.125-.1-.19-.136l-8.808-5.086c-.027-.015-.054-.021-.081-.035l-6.541-3.777c-.1-.057-.194-.094-.29-.128l-5.337-3.081c-.027-.016-.054-.022-.081-.036l-6.54-3.776c-.975-.563-1.772.04-1.772 1.339 0 1.3.797 2.822 1.772 3.385l8.808 5.085c.028.017.054.022.082.037l6.54 3.775c.098.058.194.095.289.128l5.338 3.082c.027.016.053.022.082.036l5.236 3.023c.064.047.127.1.192.138l8.808 5.085c.028.016.055.022.082.036l6.54 3.776c.099.057.194.094.289.128l5.338 3.082c.028.016.055.02.082.036l6.54 3.775c.974.563 1.77-.04 1.77-1.34 0-1.298-.796-2.822-1.77-3.384M310.868 257.002l-8.81-5.085c-.026-.016-.052-.022-.08-.036l-6.54-3.775c-.1-.058-.195-.095-.29-.129l-5.338-3.082c-.027-.016-.052-.02-.08-.036l-6.541-3.776c-.974-.561-1.771.04-1.771 1.34s.797 2.822 1.77 3.386l8.809 5.084c.028.017.055.023.082.036l6.54 3.776c.099.057.194.094.289.128l5.338 3.081c.028.017.055.023.082.036l6.54 3.776c.974.563 1.77-.04 1.77-1.339 0-1.298-.796-2.822-1.77-3.385M312.687 96.618l-8.808-5.085c-.027-.017-.053-.022-.08-.036l-6.542-3.776c-.098-.058-.194-.095-.29-.128l-5.337-3.082c-.027-.016-.053-.021-.08-.036l-6.54-3.776c-.975-.562-1.772.04-1.772 1.339 0 1.3.797 2.823 1.771 3.386l8.808 5.085c.028.016.055.022.082.036l6.54 3.776c.1.057.194.094.29.128l5.337 3.08c.027.017.054.023.082.037l6.54 3.776c.974.563 1.77-.04 1.77-1.34 0-1.298-.796-2.822-1.77-3.384M213.383 152.743l-4.863-2.808c-.016-.009-.03-.012-.044-.02l-3.613-2.085c-.537-.31-.977.022-.977.74 0 .717.44 1.558.977 1.87l4.864 2.806c.016.01.03.013.046.02l3.61 2.085c.538.311.98-.022.98-.739 0-.718-.441-1.558-.98-1.869M175.613 132.232l-4.864-2.808c-.015-.009-.03-.012-.044-.02l-3.613-2.085c-.538-.311-.977.022-.977.74 0 .717.439 1.558.977 1.869l4.865 2.807c.014.01.029.013.045.02l3.611 2.085c.538.311.978-.022.978-.739 0-.718-.44-1.558-.978-1.869M139.97 113.047l-4.863-2.808c-.016-.009-.03-.012-.044-.02l-3.613-2.085c-.538-.311-.977.022-.977.74 0 .717.438 1.558.976 1.869l4.865 2.808c.014.009.03.012.046.019l3.61 2.085c.537.311.978-.022.978-.739 0-.718-.44-1.558-.978-1.869M216.798 59.805l-4.863-2.808c-.538-.311-.98-1.151-.98-1.87 0-.716.442-1.05.98-.74l4.863 2.81c.538.31.979 1.15.979 1.869 0 .717-.441 1.05-.98.739M180.191 42.12l-4.863-2.809c-.538-.31-.979-1.152-.979-1.869 0-.718.441-1.05.98-.74l4.862 2.808c.538.311.98 1.152.98 1.87 0 .717-.442 1.05-.98.74M143.057 23.987l-4.863-2.808c-.538-.31-.979-1.15-.979-1.869 0-.718.441-1.05.98-.74l4.862 2.81c.538.31.978 1.15.978 1.868 0 .717-.44 1.05-.978.74M106.472 5.605l-4.864-2.808c-.538-.31-.978-1.15-.978-1.869 0-.718.44-1.05.978-.74l4.864 2.81c.537.31.978 1.15.978 1.868 0 .717-.44 1.05-.978.74" transform="translate(0 55) translate(51 139.597)"/>
                <path fill="#FBDDD3" d="M233.587 227.325l4.417 10.657c3.029 7.307 13.258 7.636 16.75.54l14.512-29.494-6-1.372-19.681 21.558-9.998-1.889zM177.02 204.757l-10.334 40.348c-.562 2.109-4.094 31.21-4.094 31.21l-6.83-1.36s-.639-30.867-.423-32.905l7.011-37.896 14.67.603z" transform="translate(0 55) translate(51 139.597)"/>
                <path fill="#FBDDD3" d="M158.736 271.815l1.25-.105c2.297-.194 4.335 1.526 4.53 3.823l.4 4.713c.193 2.298-1.528 4.337-3.826 4.53l-1.25.106c-2.297.194-4.335-1.527-4.53-3.823l-.399-4.713c-.195-2.299 1.526-4.337 3.825-4.531M274.521 204.292l.534 1.135c.983 2.084.081 4.594-2.002 5.578l-4.276 2.02c-2.087.985-4.6.083-5.583-2.004l-.534-1.136c-.983-2.084-.08-4.593 2.002-5.577l4.276-2.02c2.087-.985 4.6-.083 5.583 2.004" transform="translate(0 55) translate(51 139.597)"/>
                <path fill="#614AE4" d="M218.03 206.866l10.064 28.528c1.43 2.214 22.016-8.204 20.257-11.605-.309-.599-11.269-35.058-23.054-40.62-9.573-4.519-12.557 10.7-7.268 23.697" transform="translate(0 55) translate(51 139.597)"/>
                <path stroke="#FFF" stroke-linecap="round" stroke-linejoin="round" stroke-width=".9" d="M225.27 227.387s11.355-.107 20.513-11.13" transform="translate(0 55) translate(51 139.597)"/>
                <path fill="#614AE4" d="M185.325 200.381l-10.065 28.528c-1.429 2.214-22.016-8.203-20.257-11.604.309-.6 11.269-35.059 23.054-40.621 9.573-4.518 12.557 10.699 7.268 23.697" transform="translate(0 55) translate(51 139.597)"/>
                <path stroke="#FFF" stroke-linecap="round" stroke-linejoin="round" stroke-width=".9" d="M178.085 220.902s-11.356-.107-20.515-11.13" transform="translate(0 55) translate(51 139.597)"/>
                <path fill="#FBDDD3" d="M204.375 182.499l-.811-.051c-2.738-.173-4.836-2.554-4.665-5.292l.974-15.437c.173-2.738 2.555-4.837 5.292-4.664l.81.05c2.739.173 4.837 2.555 4.665 5.292l1.246 14.972c-.173 2.737-4.774 5.302-7.511 5.13" transform="translate(0 55) translate(51 139.597)"/>
                <path fill="#FBDDD3" d="M203.076 163.344c3.22 6.708 8.8 7.802 12.462 2.444 3.662-5.358 4.019-15.139.799-21.847-3.221-6.708-8.8-7.802-12.462-2.444-3.662 5.358-4.02 15.14-.8 21.847" transform="translate(0 55) translate(51 139.597)"/>
                <path fill="#21DED5" d="M202.002 144.973s2.58 13.557-8.023 17.434c0 0-12.748-6.143-4.761-19.98 7.039-12.194 20.378-4.315 20.378-4.315l-7.594 6.86z" transform="translate(0 55) translate(51 139.597)"/>
                <path fill="#21DED5" d="M217.564 147.21s-3.965-4.575-11.46-3.538l3.491-5.56s5.731-1.446 7.97 9.099" transform="translate(0 55) translate(51 139.597)"/>
                <path fill="#2ADCBD" d="M196.935 153.429c2.263-3.575 7.825-3.751 15.967-1.271 7.334-.096 7.725-8.527 7.725-8.527.828-4.54-2.27-6.331-6.81-7.158l-11.823-2.152c-6.692-1.255-12.647 4.613-13.473 9.152l-.249.756c-.826 4.54 4.123 8.373 8.663 9.2" transform="translate(0 55) translate(51 139.597)"/>
                <path fill="#F7F7F8" d="M229.418 397.017c13.297-6.19 14.263-16.437 2.16-22.882-12.105-6.445-32.696-6.65-45.993-.458-13.296 6.192-14.262 16.437-2.157 22.882 12.103 6.445 32.695 6.65 45.99.458z" transform="translate(0 55) translate(51 139.597)"/>
                <path fill="#2C1F9C" d="M237.88 384.033l-12.971 10.85c-3.285 2.188-5.454.683-8.204.097-1.233-.262-2.095-1.382-2.091-2.643l.013-2.724c-.12-3.929 3.489-6.238 5.996-7.435l13.265-7.312c2.507-1.198 10.716 3.044 3.993 9.167M191.72 367.06l3.633 16.514c1.218 8.652-12.615 10.089-13.343.715l-.266-17.917c.095-2.777 7.648-8.1 9.976.689" transform="translate(0 55) translate(51 139.597)"/>
                <path fill="#C6D2F2" d="M225.584 386.183c.033 4.014-9.731 4.095-9.765.081l-.107-13.047 9.765-.08.107 13.046zM193.47 378.195c0 4.014-9.767 4.014-9.767 0v-13.047h9.767v13.047z" transform="translate(0 55) translate(51 139.597)"/>
                <path fill="#3923B3" d="M194.771 374.49c-3.826 2.745-10.154 2.683-12.268-.512-2.503-47.76-10.346-79.686-9.858-120.521l30.337-8.996c-5.407 49.024-5.982 92.09-8.21 130.029" transform="translate(0 55) translate(51 139.597)"/>
                <path fill="#3923B3" d="M226.681 378.952c-3.092 4.317-10.077 4.344-12.138 1.226l-20.439-128.772h35.242l-2.665 127.546z" transform="translate(0 55) translate(51 139.597)"/>
                <path fill="#614AE4" d="M171.428 250.117c2.528-13.857 3.376-29.553 1.09-48.683 0-26.487 3.655-26.53 21.412-27.602l4.135-.261c5.069-.32 10.142.67 14.71 2.892 15.68 7.623 23.279 9.404 20.099 28.22l-3.528 46.723c0 24.05-59.2 26.987-57.918-1.29" transform="translate(0 55) translate(51 139.597)"/>
                <path fill="#2C1F9C" d="M219.591 212.744L228.274 248.8 229.315 252.309 230.591 234.931z" transform="translate(0 55) translate(51 139.597)"/>
                <path fill="#2ADCBD" d="M193.17 166.66c3.222 6.707 11.215 7.975 14.876 2.617 3.662-5.358 8.648-15.987 5.428-22.694-3.221-6.708-22.126-6.342-25.788-.985-3.662 5.358 2.264 14.353 5.485 21.061" transform="translate(0 55) translate(51 139.597)"/>
                <path fill="#FFB32D" d="M31.593 131.823s13.595 5.708 37.89-27.045c4.92-6.63 11.266-30.198 11.266-30.198l-5.855-2.61S66.067 92.061 58.84 98.536c-9.7 8.69-36.274 20.4-37.428 24.79-1.152 4.391 10.181 8.496 10.181 8.496" transform="translate(0 55) translate(51 139.597)"/>
                <path fill="#F7F7F8" d="M8.579 339.41c12.104 6.446 32.695 6.65 45.99.459 13.297-6.192 14.264-16.437 2.16-22.882s-32.695-6.651-45.992-.458C-2.56 322.72-3.525 332.966 8.579 339.41" transform="translate(0 55) translate(51 139.597)"/>
                <path fill="#2C1F9C" d="M13.789 312.576l7.626-.957c5.104-2.313 7.489-4.05 9.762-2.738l.644.372c2.274 1.313 1.986 3.626-.64 5.14l-11.211 8.91c-2.625 1.515-6.161 1.036-8.256-.802 0 0-1.255-1.133-.358-5.898.512-2.717.333-2.815 2.433-4.027" transform="translate(0 55) translate(51 139.597)"/>
                <path fill="#FBDDD3" d="M22.805 312.907c-.611 5.27-10.271 5.27-10.271 1.254l5.351-121.694 32.221-9.084-27.302 129.524z" transform="translate(0 55) translate(51 139.597)"/>
                <path fill="#2C1F9C" d="M46.039 324.205l7.553 1.423c5.567-.64 8.369-1.564 10.132.38l.5.552c1.76 1.945.78 4.06-2.183 4.699l-13.4 5.05c-2.962.639-6.183-.9-7.615-3.291 0 0-.847-1.461 1.465-5.724 1.319-2.43 1.179-2.578 3.548-3.09" transform="translate(0 55) translate(51 139.597)"/>
                <path fill="#FBDDD3" d="M52.204 327.431c-1.683 4.258-9.061 3.327-8.936-.169 3.448-42.168-4.487-81.993-14.714-120.744l30.943-3.346c1.208 45.345.803 84.204-7.293 124.26" transform="translate(0 55) translate(51 139.597)"/>
                <path fill="#3923B3" d="M57.582 192.198l10.763 59.062s-26.741 26.5-57.33 0l3.44-55.46 43.127-3.602z" transform="translate(0 55) translate(51 139.597)"/>
                <path fill="#FBDDD3" d="M47.313 113.536c-2.3 8.02-8.262 10.276-13.315 5.041-5.055-5.235-7.287-15.979-4.986-23.998 2.301-8.019 8.263-10.276 13.317-5.042 5.053 5.235 7.285 15.98 4.984 24" transform="translate(0 55) translate(51 139.597)"/>
                <path fill="#FBDDD3" d="M55.765 110.99c-2.3 8.019-10.897 10.92-15.95 5.686-5.055-5.235-7.286-15.98-4.986-24 2.3-8.018 8.263-10.275 13.316-5.04 5.054 5.235 9.92 15.335 7.62 23.354" transform="translate(0 55) translate(51 139.597)"/>
                <path fill="#FBDDD3" d="M36.317 134.131l-.86-.191c-2.903-.648-4.748-3.553-4.1-6.456l3.65-16.37c.648-2.903 3.553-4.749 6.456-4.101l.86.192c2.903.647 4.75 3.552 4.1 6.456l-1.195 16.245c-.648 2.903-6.009 4.873-8.91 4.225" transform="translate(0 55) translate(51 139.597)"/>
                <path fill="#4432DB" d="M29.456 112.142s-.997 5.561 8.707 6.096c7.765.43 5.457-13.612 13.155-14.868 8.469-1.38 10.003-11.843 6.666-15.857-3.337-4.016-12.663-6.115-19.418-3.136-6.756 2.98-20.94 5.153-9.11 27.765" transform="translate(0 55) translate(51 139.597)"/>
                <path fill="#FBDDD3" d="M51.35 107.72c-.56 1.95-2.595 3.077-4.544 2.518-1.95-.56-3.077-2.594-2.518-4.544.56-1.95 2.594-3.077 4.543-2.517 1.951.56 3.078 2.593 2.518 4.543" transform="translate(0 55) translate(51 139.597)"/>
                <path fill="#FFB32D" d="M14.316 195.177c2.741-15.025-.206-26.9.032-42.875 0-28.718-1.378-35.727 13.805-31.358l4.28 1.136c2.053.546 4.048 1.32 5.938 2.293 20.015 10.313 25.358 13.494 24.48 25.456.09 19.705-9.083 23.723-4.208 40.973-4.125 13.625-39.75 14.125-44.327 4.375" transform="translate(0 55) translate(51 139.597)"/>
                <path fill="#2C1F9C" d="M46.008 119.312l-.87-2.01s1.55 1.55 4.5 1.172c0 0-1.74.996-3.63.838M37.191 96.38c0 4.488-3.13 8.126-6.993 8.126-3.862 0-6.994-3.638-6.994-8.126 0-4.486 3.132-8.124 6.994-8.124 3.862 0 6.993 3.638 6.993 8.124" transform="translate(0 55) translate(51 139.597)"/>
                <path fill="#4432DB" d="M30.016 93.843c.333-4.164-5.344-5.994-7.572-2.46-.727 1.152-1.375 2.767-1.877 4.99-2.823 12.492-23.869 10.682-13.547 32.667 0 0-9.393 14.423 8.065 20.5 8.934 3.11 8.734-19.894 8.734-19.894s3.564-10.58 7.006-18.878c1.614-3.893 1.771-8.323.05-12.17-.705-1.577-.987-3.162-.859-4.755" transform="translate(0 55) translate(51 139.597)"/>
                <path fill="#2C1F9C" d="M32.306 120.103c-1.663-.402-3.192 1.06-2.909 2.747.315 1.872 1.46 4.113 4.88 5.272 4.732 1.603 9.932.741 12.433.147.593-.142.71-.926.193-1.246-2.819-1.742-9.583-5.708-14.597-6.92" transform="translate(0 55) translate(51 139.597)"/>
                <path fill="#FFF" d="M102.013 93.76l-4.864-2.808c-.016-.009-.03-.012-.044-.02l-3.612-2.085c-.538-.31-.978.022-.978.74 0 .717.44 1.558.978 1.87l4.864 2.806c.014.01.03.013.044.02l3.612 2.085c.537.311.978-.022.978-.739 0-.718-.44-1.558-.978-1.869M91.153 150.773L68.344 137.557 81.767 98.304 104.577 111.52z" transform="translate(0 55) translate(51 139.597)"/>
                <path fill="#21DED5" d="M79.265 130.827L74.5 127.852 77.27 119.323 82.035 122.298z" transform="translate(0 55) translate(51 139.597)"/>
                <path fill="#4432DB" d="M85.105 134.473L80.34 131.498 82.151 125.921 86.917 128.896z" transform="translate(0 55) translate(51 139.597)"/>
                <path fill="#FFAF6F" d="M91.125 138.231L86.36 135.256 89.99 124.075 94.756 127.05z" transform="translate(0 55) translate(51 139.597)"/>
                <path fill="#9EBBDE" d="M96.425 117.335l-2.403-1.54c-.008-.005-.015-.014-.023-.019l-11.75-7.534c-.384-.248-.876-.108-1.094.31-.216.417-.08.96.305 1.206l2.403 1.541c.008.006.014.013.022.018l11.751 7.537c.385.246.877.106 1.095-.311.216-.418.08-.96-.305-1.208M92.386 119.93c.078-.29-.012-.557-.24-.703L81.1 112.14c-.385-.246-.877-.106-1.094.311-.218.417-.08.96.305 1.207l2.402 1.541c.009.005.015.013.024.018l8.33 5.342c.43.276 1.174-.078 1.32-.629M83.965 119.21c.042-.23-.04-.433-.218-.548l-3.844-2.465c-.383-.247-.875-.107-1.093.31-.217.417-.08.961.304 1.207l2.404 1.541c.008.006.014.013.022.018l1.422.912c.306.196.835-.075.907-.465l.096-.51z" transform="translate(0 55) translate(51 139.597)"/>
                <path fill="#FFB32D" d="M44.776 145.608s19.63 47.729 41.051 24.736c21.421-22.993 13.896-39.207 13.896-39.207l-2.873-.779s-8.714 28.873-17.987 26.017c-9.274-2.855-21.872-20.683-26.333-21.523-4.46-.84-7.754 10.756-7.754 10.756" transform="translate(0 55) translate(51 139.597)"/>
                <path fill="#FBDDD3" d="M75.77 73.579l1.19.597c2.181 1.093 4.861.203 5.955-1.978l2.243-4.473c1.094-2.182.204-4.862-1.978-5.956l-1.19-.597c-2.182-1.093-4.862-.203-5.955 1.978l-2.244 4.472c-1.094 2.183-.204 4.863 1.98 5.957M95.284 139.758l1.299.29c2.382.531 4.764-.983 5.297-3.364l1.09-4.884c.532-2.383-.982-4.767-3.365-5.298l-1.3-.29c-2.38-.53-4.764.983-5.296 3.364l-1.09 4.884c-.532 2.382.982 4.767 3.365 5.298" transform="translate(0 55) translate(51 139.597)"/>
            </g>
        </g>
    </g>
</svg>
