<svg xmlns="http://www.w3.org/2000/svg" width="140" height="45" viewBox="0 0 140 45">
    <defs>
        <radialGradient id="prefix__a" cx="50.001%" cy="14.115%" r="78.141%" fx="50.001%" fy="14.115%" gradientTransform="matrix(0 -1 .69465 0 .402 .641)">
            <stop offset="0%" stop-color="#2ADCBD"/>
            <stop offset="100%" stop-color="#14C1A3"/>
        </radialGradient>
    </defs>
    <g fill="none" fill-rule="evenodd">
        <g fill="#3923B3">
            <path d="M12.91 12.63c-.002-3.138-2.044-5.319-4.995-5.335-3-.017-5.157 2.181-5.17 5.271-.014 3.104 2.11 5.314 5.114 5.323 2.997.009 5.052-2.13 5.05-5.26m.13-5.12c0-.585.005-1.17-.003-1.756-.006-.469.213-.66.688-.652 2.165.036 1.934-.282 1.938 1.796.008 4.054.004 8.11.002 12.163 0 .984-.024 1.013-1 1.003-1.773-.021-1.588.277-1.654-1.557-.01-.265-.036-.53-.05-.726-.826.658-1.557 1.476-2.473 1.928-3.412 1.682-8.752.578-10.161-4.812-.681-2.604-.316-5.101 1.298-7.338 2.488-3.447 8.483-4.019 11.415-.05M41.367 11.563h9.44c-.013-2.58-1.981-4.38-4.68-4.339-2.655.04-4.826 2-4.76 4.339zm-.008 2.097c.125 2.396 2.022 4.217 4.575 4.488 1.716.182 3.341-.072 4.792-1.052.404-.273.726-.316.975.162.232.445.941.792.205 1.414-1.056.892-2.262 1.436-3.621 1.634-3.741.547-7.065-.674-8.778-3.896-1.68-3.156-1.028-7.226 1.505-9.597 2.083-1.95 5.544-2.512 8.255-1.34 2.56 1.107 4.132 3.693 4.05 6.666-.034 1.2-.353 1.518-1.581 1.52-3.147.005-6.293.001-9.44.001h-.937zM58.23 12.65c0 3.065 2.09 5.238 5.043 5.244 2.931.008 5.078-2.196 5.087-5.225.01-3.024-2.13-5.276-5.031-5.292-2.973-.016-5.1 2.182-5.1 5.274m5.095 7.781c-4.44.017-7.786-3.317-7.793-7.766-.007-4.445 3.335-7.804 7.764-7.801 4.393.003 7.7 3.336 7.716 7.772.014 4.43-3.289 7.78-7.687 7.795M75.685 7.363C76.628 6 77.715 5.19 79.177 4.88c3.286-.699 6.075 1.109 6.625 4.408.156.944.143 1.92.15 2.884.021 2.349-.007 4.7.017 7.05.006.624-.184.877-.853.872-1.892-.016-1.882.01-1.895-1.876-.017-2.546.008-5.096-.101-7.638-.083-1.95-1.275-3.114-3.097-3.27-2.057-.177-3.756.921-4.206 2.76-.116.475-.154.978-.157 1.468-.015 2.523-.006 5.047-.008 7.57 0 .966-.006.978-.94.97-2.052-.016-1.84.276-1.842-1.796-.005-4.057-.002-8.114 0-12.17 0-.96.05-1.017 1.01-1.003 1.793.024 1.62-.315 1.75 1.654.008.123.022.243.055.6M24.243 10.575c.905-1.458 1.795-2.738 2.52-4.108.532-1.007 1.192-1.505 2.329-1.291.396.074.8.113 1.2.169-.161.37-.28.766-.492 1.102-1.152 1.816-2.304 3.634-3.509 5.414-.354.525-.3.878.03 1.37 1.303 1.952 2.57 3.931 3.844 5.903.167.26.305.54.55.979-1.053 0-1.942.029-2.826-.025-.168-.01-.34-.332-.469-.535-.868-1.382-1.723-2.772-2.583-4.157-.168-.27-.345-.533-.586-.906-.327.503-.609.92-.877 1.347-.775 1.235-1.564 2.463-2.307 3.718-.274.464-.596.673-1.132.628-.464-.04-.935.003-1.402-.01-.648-.02-.75-.199-.39-.76 1.28-2 2.542-4.01 3.881-5.967.46-.672.489-1.132.013-1.818-1.25-1.808-2.41-3.68-3.59-5.536-.136-.213-.179-.487-.265-.732.251-.061.5-.128.752-.18 1.464-.294 2.356.324 3.01 1.657.616 1.256 1.463 2.398 2.3 3.738M36.109 12.714c0 2.215-.016 4.432.01 6.647.008.604-.19.846-.865.827-2.394-.068-2.062.345-2.072-1.926-.016-4.058-.006-8.116-.003-12.175 0-.946.033-.983 1.019-.974 2.175.019 1.896-.276 1.91 1.775.012 1.942.002 3.884.001 5.826M32.926 1.822C32.933.81 33.78-.014 34.8 0c1.013.013 1.84.873 1.81 1.881-.029.997-.82 1.762-1.831 1.768-1.03.006-1.86-.812-1.853-1.827" transform="translate(54 11)"/>
        </g>
        <path fill="url(#prefix__a)" d="M21.903.183C9.807.183 0 10.2 0 22.547c0 2.847.517 5.566 1.475 8.07-.45-2.976.454-6.121 2.7-8.415l10.92-11.142c3.76-3.844 9.858-3.844 13.616 0L39.63 22.202c2.254 2.294 3.16 5.439 2.709 8.415.955-2.504 1.473-5.223 1.473-8.07 0-12.348-9.805-22.364-21.909-22.364z"/>
        <path fill="#3923B3" d="M30.922 29.562c-2.065 2.79-5.33 4.6-9.016 4.6-3.687 0-6.95-1.81-9.016-4.598l-.01.01-7.533 7.7c4.025 4.73 9.95 7.724 16.557 7.724 6.615 0 12.538-2.995 16.555-7.724l-7.53-7.705-.007-.007z"/>
        <path fill="#F9397B" d="M42.347 30.682c-.917 2.433-2.24 4.657-3.887 6.592l-7.53-7.704-5.747-5.876c-1.81-1.849-4.74-1.849-6.551 0l-5.752 5.881-7.532 7.7c-1.64-1.936-2.964-4.16-3.88-6.593-.45-2.982.455-6.133 2.702-8.432l10.924-11.165c3.76-3.848 9.86-3.848 13.62 0L39.639 22.25c2.253 2.299 3.158 5.45 2.71 8.432"/>
        <path fill="#271D66" d="M12.89 29.564l-.011.01-7.532 7.7c.035.041.072.08.107.12L16.02 32.45c-1.208-.76-2.277-1.731-3.13-2.885M30.874 29.564l.012.01 7.53 7.7c-.033.041-.072.08-.105.12L27.744 32.45c1.21-.76 2.276-1.731 3.13-2.885"/>
    </g>
</svg>
