<svg xmlns="http://www.w3.org/2000/svg" width="90" height="83" viewBox="0 0 90 83">
    <defs>
        <radialGradient id="prefix__a" cx="50.001%" cy="14.115%" r="78.141%" fx="50.001%" fy="14.115%" gradientTransform="matrix(0 -1 .69465 0 .402 .641)">
            <stop offset="0%" stop-color="#2ADCBD"/>
            <stop offset="100%" stop-color="#14C1A3"/>
        </radialGradient>
    </defs>
    <g fill="none" fill-rule="evenodd">
        <g fill="#FFF">
            <path d="M13.51 13.217c-.002-3.283-2.139-5.566-5.227-5.583-3.14-.018-5.397 2.283-5.41 5.517-.015 3.248 2.207 5.56 5.351 5.57 3.137.01 5.288-2.23 5.286-5.504m.135-5.359c0-.612.006-1.225-.002-1.837-.007-.491.222-.691.72-.683 2.265.038 2.024-.295 2.028 1.88.008 4.242.004 8.486.002 12.729-.001 1.03-.026 1.06-1.047 1.049-1.856-.022-1.661.29-1.73-1.63-.011-.277-.038-.554-.053-.76-.864.69-1.63 1.545-2.588 2.019-3.57 1.76-9.16.604-10.634-5.036-.713-2.726-.33-5.339 1.359-7.68 2.603-3.606 8.877-4.205 11.945-.051M43.29 12.1h9.88c-.013-2.7-2.073-4.583-4.897-4.54-2.78.042-5.051 2.093-4.982 4.54zm-.008 2.196c.131 2.506 2.117 4.413 4.788 4.697 1.796.19 3.497-.076 5.015-1.102.423-.286.76-.33 1.021.17.243.465.985.828.214 1.48-1.105.933-2.367 1.503-3.79 1.71-3.914.572-7.393-.706-9.186-4.078C39.587 13.87 40.268 9.61 42.92 7.13c2.18-2.04 5.801-2.629 8.639-1.403 2.68 1.16 4.323 3.865 4.238 6.976-.036 1.256-.37 1.589-1.655 1.59-3.293.007-6.585.003-9.878.003h-.982zM60.938 13.239c0 3.206 2.187 5.481 5.277 5.487 3.069.009 5.315-2.298 5.325-5.468.01-3.165-2.23-5.521-5.266-5.538-3.111-.016-5.336 2.283-5.336 5.519m5.332 8.144c-4.648.017-8.148-3.472-8.156-8.128-.008-4.652 3.49-8.167 8.125-8.164 4.597.003 8.059 3.492 8.075 8.134.015 4.635-3.442 8.14-8.044 8.158M79.205 7.705c.987-1.425 2.124-2.273 3.655-2.598 3.439-.731 6.357 1.16 6.932 4.613.164.988.15 2.01.159 3.018.021 2.458-.008 4.918.016 7.377.007.654-.192.92-.892.914-1.98-.017-1.97.01-1.983-1.964-.018-2.664.008-5.333-.106-7.993-.087-2.042-1.334-3.259-3.241-3.422-2.153-.185-3.93.964-4.401 2.888-.122.497-.162 1.023-.165 1.537-.016 2.64-.006 5.281-.008 7.922-.001 1.011-.007 1.023-.984 1.015-2.147-.017-1.925.289-1.928-1.88-.005-4.245-.002-8.491 0-12.737 0-1.002.053-1.064 1.057-1.049 1.877.025 1.696-.329 1.832 1.732.008.128.023.254.057.627M25.371 11.067c.947-1.526 1.878-2.866 2.636-4.3.557-1.053 1.248-1.574 2.438-1.35.415.078.837.118 1.256.176-.169.387-.293.802-.515 1.154-1.205 1.9-2.411 3.803-3.672 5.666-.371.549-.314.918.03 1.433 1.365 2.043 2.69 4.114 4.024 6.178.175.272.319.565.575 1.025-1.102 0-2.032.03-2.957-.027-.176-.01-.356-.347-.49-.56-.909-1.446-1.803-2.9-2.704-4.35-.176-.282-.36-.558-.613-.948-.343.526-.637.963-.917 1.41-.812 1.292-1.638 2.577-2.415 3.89-.287.486-.624.705-1.185.658-.485-.042-.978.002-1.467-.011-.678-.02-.785-.208-.408-.796 1.339-2.091 2.66-4.196 4.062-6.244.48-.702.511-1.184.013-1.902-1.309-1.893-2.521-3.851-3.758-5.793-.141-.224-.186-.51-.276-.766.263-.065.523-.135.787-.189 1.531-.308 2.465.34 3.15 1.734.645 1.314 1.53 2.51 2.406 3.912M37.788 13.305c0 2.319-.016 4.638.012 6.957.007.632-.2.885-.906.865-2.506-.071-2.158.36-2.169-2.015-.016-4.247-.006-8.494-.003-12.741 0-.99.035-1.03 1.067-1.02 2.276.02 1.984-.289 1.998 1.857.013 2.033.002 4.065.001 6.097M34.457 1.907C34.465.847 35.352-.015 36.42 0c1.06.014 1.925.913 1.894 1.969-.03 1.042-.859 1.843-1.917 1.85-1.077.006-1.946-.85-1.939-1.912" transform="translate(0 60.698)"/>
        </g>
        <g>
            <path fill="url(#prefix__a)" d="M22.922.192C10.262.192 0 10.674 0 23.595c0 2.98.542 5.826 1.543 8.446-.471-3.115.476-6.406 2.826-8.807l11.429-11.66c3.934-4.023 10.316-4.023 14.248 0l11.427 11.66c2.36 2.4 3.306 5.692 2.835 8.807 1-2.62 1.541-5.466 1.541-8.446C45.85 10.674 35.59.192 22.922.192z" transform="translate(21.977)"/>
            <path fill="#3923B3" d="M32.36 30.937c-2.16 2.92-5.577 4.814-9.435 4.814-3.858 0-7.273-1.895-9.436-4.812l-.01.011-7.883 8.058c4.212 4.95 10.412 8.083 17.327 8.083 6.922 0 13.12-3.134 17.325-8.083l-7.88-8.063-.008-.008z" transform="translate(21.977)"/>
            <path fill="#F9397B" d="M44.317 32.109c-.96 2.546-2.344 4.874-4.068 6.899l-7.88-8.063-6.015-6.15c-1.894-1.934-4.96-1.934-6.856 0l-6.02 6.156-7.882 8.057c-1.715-2.025-3.1-4.353-4.06-6.9-.47-3.12.477-6.418 2.828-8.823l11.433-11.684c3.933-4.027 10.318-4.027 14.253 0l11.431 11.684c2.359 2.405 3.306 5.703 2.836 8.824" transform="translate(21.977)"/>
            <path fill="#271D66" d="M13.489 30.94l-.011.01-7.882 8.058c.036.043.075.082.112.126l11.057-5.176c-1.264-.795-2.382-1.812-3.276-3.019M32.31 30.94l.013.01 7.88 8.058c-.035.043-.075.082-.11.126l-11.06-5.176c1.267-.795 2.383-1.812 3.277-3.019" transform="translate(21.977)"/>
        </g>
    </g>
</svg>
