<?xml version="1.0" standalone="no"?>
<!DOCTYPE svg PUBLIC "-//W3C//DTD SVG 1.1//EN" "http://www.w3.org/Graphics/SVG/1.1/DTD/svg11.dtd" >
<svg xmlns="http://www.w3.org/2000/svg" xmlns:xlink="http://www.w3.org/1999/xlink" version="1.1">
<metadata></metadata>
<defs>
<font id="biennalemedium" horiz-adv-x="1320" >
<font-face units-per-em="2048" ascent="1638" descent="-410" />
<missing-glyph horiz-adv-x="442" />
<glyph unicode="&#xfb01;" horiz-adv-x="1083" d="M33 893v186h186v31q0 193 108 301.5t306 108.5h317v-170h-311q-96 0 -150.5 -58t-54.5 -162v-51h516v-1079h-215v893h-301v-893h-215v893h-186z" />
<glyph unicode="&#xfb02;" horiz-adv-x="1126" d="M33 893v186h186v8q0 192 108 301t306 109h360v-1497h-217v1325h-137q-96 0 -150.5 -57t-54.5 -160v-39h205v-176h-205v-893h-215v893h-186z" />
<glyph horiz-adv-x="0" />
<glyph horiz-adv-x="682" />
<glyph unicode=" "  horiz-adv-x="442" />
<glyph unicode="&#x09;" horiz-adv-x="442" />
<glyph unicode="&#xa0;" horiz-adv-x="442" />
<glyph unicode="!" horiz-adv-x="520" d="M125 115q0 59 38.5 98t96.5 39q59 0 97 -38.5t38 -98.5q0 -57 -38.5 -95t-96.5 -38q-57 0 -96 38t-39 95zM135 1497h250l-39 -1048h-174z" />
<glyph unicode="&#x22;" horiz-adv-x="706" d="M100 1464h193l-19 -471h-157zM418 1464h188l-16 -471h-158z" />
<glyph unicode="#" horiz-adv-x="1415" d="M59 375v168h258l101 360h-217v168h262l96 352h176l-96 -352h332l96 352h180l-96 -352h207v-168h-252l-98 -360h211v-168h-256l-103 -375h-182l102 375h-329l-103 -375h-178l102 375h-213zM496 543h329l101 360h-332z" />
<glyph unicode="$" horiz-adv-x="1015" d="M55 328l189 73q25 -103 96.5 -159t177.5 -56q101 0 160 49t59 132q0 50 -21.5 89.5t-57.5 65.5t-83 47.5t-98.5 40.5t-103 40.5t-98.5 51t-83 67.5t-57.5 95t-21.5 129q0 138 84.5 230t236.5 112v187h176v-189q120 -20 201.5 -90t110.5 -180l-189 -72q-48 180 -225 180 q-94 0 -146.5 -44.5t-52.5 -116.5q0 -60 35 -103t90.5 -69.5t122.5 -50.5t134.5 -55.5t123 -73.5t90.5 -114.5t35 -170.5q0 -138 -89.5 -231.5t-244.5 -118.5v-189h-176v184q-139 15 -238 95.5t-137 214.5z" />
<glyph unicode="%" horiz-adv-x="1546" d="M53 1110q0 136 93 232t231 96q139 0 230 -95.5t91 -232.5q0 -140 -91 -235t-230 -95t-231.5 95.5t-92.5 234.5zM197 1110q0 -82 51 -136t129 -54q77 0 127.5 54t50.5 136q0 79 -51 134.5t-127 55.5q-77 0 -128.5 -55.5t-51.5 -134.5zM279 0l819 1423h172l-821 -1423h-170 zM848 313q0 138 92.5 234t230.5 96q139 0 230.5 -96t91.5 -234q0 -139 -91 -233t-231 -94q-139 0 -231 94t-92 233zM991 313q0 -82 51.5 -136t128.5 -54t129 54.5t52 135.5q0 79 -52.5 135t-128.5 56q-77 0 -128.5 -56t-51.5 -135z" />
<glyph unicode="&#x26;" horiz-adv-x="1382" d="M82 393q0 255 248 393q-54 72 -76.5 138t-22.5 143q0 162 118 267.5t310 105.5q190 0 311 -106t140 -285h-225q-13 81 -71 132.5t-157 51.5q-91 0 -148.5 -53.5t-57.5 -128.5t37.5 -130.5t165.5 -191.5q23 -25 36 -39l285 -301q102 151 108 379l205 -82 q-14 -274 -170 -446l228 -240h-240l-121 121q-160 -141 -405 -141q-210 0 -354 117t-144 296zM303 416q0 -105 83 -174.5t196 -69.5q151 0 260 90l-363 359q-6 5 -33 32q-71 -46 -107 -101.5t-36 -135.5z" />
<glyph unicode="'" horiz-adv-x="391" d="M100 1464h193l-19 -471h-157z" />
<glyph unicode="(" horiz-adv-x="671" d="M80 688q0 305 120 539.5t316 380.5l141 -142q-370 -296 -370 -778q0 -485 370 -778l-141 -141q-196 146 -316 380t-120 539z" />
<glyph unicode=")" horiz-adv-x="671" d="M12 -90q371 291 371 778q0 484 -371 778l142 142q197 -145 316.5 -379.5t119.5 -540.5t-119.5 -540t-316.5 -379z" />
<glyph unicode="*" horiz-adv-x="839" d="M86 1038l215 103l-215 104l80 144l190 -129l-16 237h160l-17 -237l191 129l80 -144l-213 -104l213 -103l-80 -145l-191 129l17 -225h-160l16 225l-190 -129z" />
<glyph unicode="+" horiz-adv-x="1001" d="M61 557v186h345v375h192v-375h342v-186h-342v-381h-192v381h-345z" />
<glyph unicode="," horiz-adv-x="430" d="M80 117q0 59 38.5 97t96.5 38t96.5 -38t38.5 -99q0 -57 -43 -144l-98 -194h-127l106 213q-49 8 -78.5 41t-29.5 86z" />
<glyph unicode="-" horiz-adv-x="780" d="M117 422v178h545v-178h-545z" />
<glyph unicode="." horiz-adv-x="440" d="M84 115q0 59 39 98t96 39q59 0 97 -38.5t38 -98.5q0 -57 -38.5 -95t-96.5 -38q-57 0 -96 38t-39 95z" />
<glyph unicode="/" horiz-adv-x="718" d="M66 -102l395 1558h188l-391 -1558h-192z" />
<glyph unicode="0" horiz-adv-x="1425" d="M96 713q0 344 166.5 537.5t450.5 193.5q285 0 450.5 -194t165.5 -537q0 -340 -167 -538t-449 -198q-283 0 -450 197.5t-167 538.5zM317 711q0 -249 107.5 -389t288.5 -140t288 140t107 389t-107 388.5t-288 139.5t-288.5 -139.5t-107.5 -388.5z" />
<glyph unicode="1" horiz-adv-x="778" d="M88 0v180h238v867h-232v180h232v196h215v-1243h184v-180h-637z" />
<glyph unicode="2" horiz-adv-x="1138" d="M74 0v143l514 516q221 213 221 381q0 97 -68 158.5t-178 61.5q-102 0 -178 -59t-106 -169l-205 68q40 158 173.5 252t315.5 94q210 0 337.5 -109t127.5 -288q0 -135 -71 -253.5t-201 -240.5l-369 -373h668v-182h-981z" />
<glyph unicode="3" horiz-adv-x="1167" d="M47 297l199 80q28 -96 113 -155.5t204 -59.5q132 0 211.5 75.5t79.5 194.5q0 120 -79.5 191t-196.5 71h-199v148l407 409h-673v172h917v-172l-399 -409h2q194 0 320 -119t126 -305q0 -191 -143 -317t-367 -126q-196 0 -338 90t-184 232z" />
<glyph unicode="4" horiz-adv-x="1210" d="M39 328v155l721 938h213v-921h174v-172h-174v-328h-215v328h-719zM268 500h492v639z" />
<glyph unicode="5" horiz-adv-x="1140" d="M47 303l199 80q27 -104 109 -162.5t194 -58.5q131 0 212 76.5t81 195.5q0 120 -82 199.5t-215 79.5h-371l39 710h762v-172h-578l-20 -366h174q230 0 371 -124.5t141 -328.5q0 -203 -140.5 -330t-375.5 -127q-187 0 -317.5 84.5t-182.5 243.5z" />
<glyph unicode="6" horiz-adv-x="1177" d="M72 465q0 185 129 352l463 606h254l-369 -479q16 2 51 2q148 0 265 -58.5t184 -168t67 -252.5q0 -144 -68 -256.5t-185.5 -174t-264.5 -61.5q-225 0 -375.5 138.5t-150.5 351.5zM293 465q0 -129 88 -216t217 -87t213 86t84 217q0 133 -84 219t-213 86q-130 0 -217.5 -87 t-87.5 -218z" />
<glyph unicode="7" horiz-adv-x="1009" d="M31 1239v184h936v-166l-496 -1257h-242l496 1239h-694z" />
<glyph unicode="8" horiz-adv-x="1177" d="M90 383q0 133 78.5 233.5t202.5 141.5q-99 39 -160 121t-61 200q0 158 119 261.5t321 103.5q200 0 319 -103.5t119 -263.5q0 -117 -62 -199.5t-165 -121.5q125 -40 205.5 -140.5t80.5 -232.5q0 -181 -139.5 -294.5t-357.5 -113.5q-219 0 -359.5 113.5t-140.5 294.5z M307 410q0 -114 77 -185t206 -71q128 0 204 71t76 185t-77.5 187t-202.5 73q-126 0 -204.5 -73t-78.5 -187zM356 1053q0 -94 66 -156.5t168 -62.5q101 0 166 62.5t65 156.5q0 93 -64.5 154t-166.5 61q-103 0 -168.5 -61t-65.5 -154z" />
<glyph unicode="9" horiz-adv-x="1175" d="M61 956q0 144 68.5 257t186.5 174t264 61q225 0 375.5 -138.5t150.5 -351.5q0 -185 -129 -352l-463 -606h-252l367 479q-16 -2 -51 -2q-226 0 -371.5 132t-145.5 347zM283 958q0 -133 84.5 -219t212.5 -86q131 0 218 86.5t87 218.5q0 129 -87.5 216.5t-217.5 87.5 q-127 0 -212 -86.5t-85 -217.5z" />
<glyph unicode=":" horiz-adv-x="489" d="M111 115q0 60 38 98.5t97 38.5t97 -38.5t38 -98.5q0 -57 -38.5 -95t-96.5 -38t-96.5 38t-38.5 95zM111 807q0 59 38.5 97t96.5 38t96.5 -38t38.5 -97t-38.5 -97t-96.5 -38t-96.5 38t-38.5 97z" />
<glyph unicode=";" horiz-adv-x="493" d="M111 799q0 58 39 96.5t96 38.5q58 0 96.5 -38t38.5 -97t-38.5 -97t-96.5 -38q-57 0 -96 38.5t-39 96.5zM115 117q0 59 38.5 97t94.5 38q58 0 96.5 -38t38.5 -99q0 -62 -43 -144l-96 -194h-129l106 213q-47 8 -76.5 41.5t-29.5 85.5z" />
<glyph unicode="&#x3c;" horiz-adv-x="864" d="M57 553v137l703 408v-199l-488 -278l488 -279v-201z" />
<glyph unicode="=" horiz-adv-x="1112" d="M127 285v184h858v-184h-858zM127 762v186h858v-186h-858z" />
<glyph unicode="&#x3e;" horiz-adv-x="864" d="M104 141v201l490 279l-490 278v199l703 -408v-137z" />
<glyph unicode="?" horiz-adv-x="944" d="M51 1188q29 150 146.5 240t285.5 90q184 0 290 -96.5t106 -266.5q0 -69 -21 -127t-54.5 -100t-73.5 -79.5t-80.5 -72.5t-74 -71t-54.5 -82.5t-21 -100.5v-73h-189v83q0 67 19 125t49 99t66.5 78t73 70t66.5 66t49 74.5t19 88.5q0 85 -49 131.5t-135 46.5q-82 0 -141 -53 t-74 -136zM272 115q0 59 39 98t97 39q59 0 97 -38.5t38 -96.5q0 -59 -38.5 -97t-96.5 -38q-57 0 -96.5 38t-39.5 95z" />
<glyph unicode="@" horiz-adv-x="1624" d="M76 477q0 149 54 280.5t149 227.5t233.5 151.5t300.5 55.5t299 -53t231 -146t146.5 -221.5t52.5 -277.5q0 -155 -86.5 -259t-212.5 -104q-79 0 -134 36t-75 101q-38 -70 -106 -109.5t-162 -39.5q-141 0 -235.5 102.5t-94.5 251.5q0 150 92.5 252t237.5 102 q172 0 258 -137v115h129v-430q0 -47 22.5 -75t65.5 -28q69 0 109.5 57.5t40.5 164.5q0 118 -41.5 220.5t-115.5 177.5t-183 118t-238 43q-171 0 -306 -77.5t-207.5 -208.5t-72.5 -290q0 -254 157 -409.5t421 -155.5q109 0 199 33.5t137 93.5l92 -109q-69 -73 -180.5 -115 t-247.5 -42q-330 0 -529.5 195.5t-199.5 508.5zM598 473q0 -87 55 -146t140 -59q87 0 141.5 58t54.5 147q0 90 -54.5 148.5t-141.5 58.5q-83 0 -139 -59.5t-56 -147.5z" />
<glyph unicode="A" horiz-adv-x="1298" d="M14 0l504 1423h262l506 -1423h-215l-131 373h-580l-131 -373h-215zM424 551h453l-226 643z" />
<glyph unicode="B" horiz-adv-x="1275" d="M156 0v1423h594q187 0 291 -94t104 -252q0 -105 -57 -189.5t-154 -131.5q123 -43 191.5 -136.5t68.5 -222.5q0 -183 -121.5 -290t-337.5 -107h-579zM371 176h336q129 0 199.5 62.5t70.5 175.5q0 111 -73 173t-199 62h-334v-473zM371 825h317q103 0 171.5 58t68.5 153 q0 97 -60 154t-174 57h-323v-422z" />
<glyph unicode="C" horiz-adv-x="1497" d="M84 711q0 212 93.5 381t256.5 262.5t365 93.5q127 0 236.5 -36t189.5 -99.5t136.5 -144.5t88.5 -177l-209 -84q-51 159 -162.5 246.5t-283.5 87.5q-214 0 -352 -147.5t-138 -382.5t138.5 -382t355.5 -147q170 0 280.5 87t161.5 247l209 -84q-33 -98 -89 -179.5 t-135.5 -144.5t-187.5 -98t-235 -35q-153 0 -286 55t-228.5 151.5t-150 233.5t-54.5 296z" />
<glyph unicode="D" horiz-adv-x="1474" d="M156 0v1423h528q153 0 283.5 -50.5t223.5 -142t145.5 -225t52.5 -292.5q0 -213 -90 -375.5t-250 -250t-365 -87.5h-528zM373 193h305q217 0 354 140t137 378t-137 379t-354 141h-305v-1038z" />
<glyph unicode="E" horiz-adv-x="1155" d="M156 0v1423h909v-190h-692v-406h622v-188h-622v-449h704v-190h-921z" />
<glyph unicode="F" horiz-adv-x="1110" d="M156 0v1423h905v-190h-688v-414h614v-190h-614v-629h-217z" />
<glyph unicode="G" horiz-adv-x="1579" d="M84 711q0 212 93 380.5t256.5 262.5t367.5 94q124 0 231 -33.5t187 -93t138 -137t93 -170.5l-209 -86q-55 151 -167.5 232t-276.5 81q-217 0 -354.5 -148.5t-137.5 -385.5q0 -239 141.5 -387t372.5 -148q188 0 315 105.5t166 302.5h-503v168h712q0 -177 -54 -323.5 t-149 -244t-224.5 -151.5t-278.5 -54q-204 0 -368.5 94.5t-257.5 263t-93 378.5z" />
<glyph unicode="H" horiz-adv-x="1409" d="M156 0v1423h217v-592h663v592h217v-1423h-217v637h-663v-637h-217z" />
<glyph unicode="I" horiz-adv-x="528" d="M156 0v1423h217v-1423h-217z" />
<glyph unicode="J" horiz-adv-x="688" d="M39 0v193h90q94 0 146.5 57.5t52.5 161.5v1011h217v-1013q0 -192 -104.5 -301t-295.5 -109h-106z" />
<glyph unicode="K" horiz-adv-x="1275" d="M156 0v1423h217v-635l616 635h254l-647 -682l694 -741h-256l-661 684v-684h-217z" />
<glyph unicode="L" horiz-adv-x="1093" d="M156 0v1423h217v-1228h694v-195h-911z" />
<glyph unicode="M" horiz-adv-x="1724" d="M113 0l98 1423h205v-2l47 2l399 -1114l400 1114l49 -2v2h200l101 -1423h-203l-78 1116l-379 -1061h-180l-379 1057l-78 -1112h-202z" />
<glyph unicode="N" horiz-adv-x="1409" d="M156 0v1423h180l702 -1050v1050h217v-1423h-182l-700 1047v-1047h-217z" />
<glyph unicode="O" horiz-adv-x="1615" d="M82 711q0 156 56 293.5t152.5 234.5t231.5 153t287 56t286 -56t230.5 -153t152.5 -234.5t56 -293.5t-56 -293t-152.5 -234t-230.5 -153t-286 -56q-203 0 -369.5 95.5t-262 264t-95.5 376.5zM303 711q0 -232 142 -380.5t364 -148.5q221 0 362.5 148.5t141.5 380.5 q0 233 -140.5 381.5t-363.5 148.5q-224 0 -365 -148t-141 -382z" />
<glyph unicode="P" horiz-adv-x="1226" d="M156 0v1423h546q218 0 346 -115.5t128 -310.5q0 -194 -128.5 -309t-345.5 -115h-329v-573h-217zM373 764h317q126 0 195 64t69 169q0 107 -69 171.5t-195 64.5h-317v-469z" />
<glyph unicode="Q" horiz-adv-x="1615" d="M82 711q0 156 56 293.5t152.5 234.5t231.5 153t287 56t286 -56t230.5 -153t152.5 -234.5t56 -293.5q0 -195 -85.5 -357t-234.5 -260l281 -266l-147 -158l-347 330q-92 -25 -192 -25q-203 0 -369.5 95.5t-262 264t-95.5 376.5zM303 711q0 -232 142 -380.5t364 -148.5 q221 0 362.5 148.5t141.5 380.5q0 233 -140.5 381.5t-363.5 148.5q-224 0 -365 -148t-141 -382z" />
<glyph unicode="R" horiz-adv-x="1253" d="M156 0v1423h546q216 0 345 -111.5t129 -291.5q0 -175 -127 -287t-338 -115l479 -618h-246l-465 618h-108v-618h-215zM371 776h325q126 0 196.5 62t70.5 166t-70.5 166.5t-196.5 62.5h-325v-457z" />
<glyph unicode="S" horiz-adv-x="1153" d="M55 326l205 77q31 -114 116.5 -175.5t211.5 -61.5q123 0 194.5 54.5t71.5 148.5q0 70 -40.5 121t-105.5 82t-143 58.5t-156.5 60.5t-143.5 76.5t-105.5 118t-40.5 175.5q0 172 124.5 278.5t340.5 106.5q183 0 305 -82t162 -225l-205 -78q-60 199 -273 199 q-112 0 -174.5 -50t-62.5 -131q0 -53 25 -93.5t68 -67.5t98 -49.5t116 -44t122.5 -45.5t116.5 -59t98 -79.5t68 -112.5t25 -153q0 -180 -137 -289t-367 -109q-195 0 -331 92t-183 257z" />
<glyph unicode="T" horiz-adv-x="1148" d="M27 1229v194h1095v-194h-438v-1229h-217v1229h-440z" />
<glyph unicode="U" horiz-adv-x="1376" d="M139 537v886h219v-886q0 -159 86 -258t246 -99q158 0 244 100t86 257v886h217v-886q0 -116 -34.5 -216.5t-100.5 -178.5t-172 -122.5t-240 -44.5q-135 0 -241.5 44.5t-173 122t-101.5 178t-35 217.5z" />
<glyph unicode="V" horiz-adv-x="1312" d="M10 1423h228l419 -1169l420 1169h226l-515 -1423h-264z" />
<glyph unicode="W" horiz-adv-x="1816" d="M29 1423h213l252 -1161l299 1161h233l299 -1161l250 1161h215l-336 -1423h-252l-293 1126l-295 -1126h-249z" />
<glyph unicode="X" horiz-adv-x="1308" d="M-2 0l530 737l-497 688h250l385 -534l368 534h250l-496 -704l521 -721h-250l-412 571l-401 -571h-248z" />
<glyph unicode="Y" horiz-adv-x="1282" d="M6 1423h244l391 -655l391 655h244l-526 -839v-584h-218v584z" />
<glyph unicode="Z" horiz-adv-x="1146" d="M55 0v150l750 1083h-733v190h1011v-151l-757 -1077h766l4 -195h-1041z" />
<glyph unicode="[" horiz-adv-x="626" d="M152 -231v1839h426v-183h-222v-1474h222v-182h-426z" />
<glyph unicode="\" horiz-adv-x="722" d="M68 1456h190l399 -1558h-192z" />
<glyph unicode="]" horiz-adv-x="626" d="M51 -49h219v1474h-219v183h424v-1839h-424v182z" />
<glyph unicode="^" horiz-adv-x="1005" d="M74 758l356 608h133l371 -608h-213l-219 379l-215 -379h-213z" />
<glyph unicode="_" horiz-adv-x="1069" d="M51 -47h965v-176h-965v176z" />
<glyph unicode="`" horiz-adv-x="610" d="M61 1470l99 158l446 -285l-88 -139z" />
<glyph unicode="a" d="M74 541q0 239 150.5 394t381.5 155q252 0 381 -193v182h201v-1079h-201v176q-63 -96 -160 -148.5t-221 -52.5q-152 0 -274 73.5t-190 203t-68 289.5zM289 541q0 -161 97.5 -267t246.5 -106q153 0 249.5 104t96.5 269q0 164 -95.5 267t-250.5 103q-148 0 -246 -106 t-98 -264z" />
<glyph unicode="b" d="M133 0v1497h217v-565q138 170 369 170q230 0 379 -160t149 -401q0 -160 -68 -289.5t-190 -203t-274 -73.5q-122 0 -219.5 50t-161.5 141v-166h-201zM340 541q0 -164 97 -268.5t251 -104.5q149 0 246.5 106t97.5 267q0 158 -98 264t-246 106q-155 0 -251.5 -103.5 t-96.5 -266.5z" />
<glyph unicode="c" horiz-adv-x="1177" d="M72 539q0 240 158.5 401.5t398.5 161.5q98 0 184 -28.5t148.5 -77.5t105.5 -109t63 -127l-194 -78q-29 105 -108.5 165t-192.5 60q-150 0 -248 -102t-98 -266t98 -266.5t248 -102.5q115 0 196.5 60t110.5 163l195 -78q-43 -139 -178 -239.5t-328 -100.5q-157 0 -285 73 t-201 202t-73 289z" />
<glyph unicode="d" d="M74 541q0 158 67 286t187.5 201.5t271.5 73.5q235 0 371 -172v567h217v-1497h-201v168q-64 -92 -162 -142.5t-219 -50.5q-152 0 -274 73.5t-190 203t-68 289.5zM289 541q0 -161 97.5 -267t246.5 -106q153 0 249.5 104t96.5 269q0 164 -95.5 267t-250.5 103 q-148 0 -246 -106t-98 -264z" />
<glyph unicode="e" horiz-adv-x="1216" d="M63 539q0 154 73 284t199.5 205.5t276.5 75.5q121 0 224.5 -45t172 -120.5t106.5 -173t38 -202.5q0 -56 -4 -96h-870q25 -137 122 -218t234 -81q119 0 191 42.5t110 129.5l178 -113q-145 -252 -485 -252q-167 0 -296.5 73.5t-199.5 202t-70 288.5zM281 633h659 q-22 136 -108 215.5t-211 79.5q-128 0 -222 -79t-118 -216z" />
<glyph unicode="f" horiz-adv-x="724" d="M33 893v186h186v31q0 193 108 301.5t306 108.5h72v-170h-66q-96 0 -150.5 -58t-54.5 -162v-51h268v-186h-268v-893h-215v893h-186z" />
<glyph unicode="g" horiz-adv-x="1318" d="M74 559q0 149 68.5 273.5t191 197t272.5 72.5q124 0 221 -51t160 -144v172h201v-932q0 -246 -151.5 -392t-415.5 -146q-208 0 -339.5 85.5t-185.5 239.5l185 72q38 -106 126 -160.5t216 -54.5q168 0 266 91t98 247v86q-63 -93 -160.5 -145t-220.5 -52q-152 0 -274 72 t-190 195.5t-68 273.5zM289 549q0 -156 97.5 -259.5t244.5 -103.5q151 0 247.5 102.5t96.5 260.5q0 157 -96 259.5t-246 102.5q-147 0 -245.5 -104t-98.5 -258z" />
<glyph unicode="h" horiz-adv-x="1249" d="M133 0v1497h217v-539q59 67 147 106.5t197 39.5q201 0 317.5 -119t116.5 -319v-666h-217v627q-1 133 -75 209q-73 74 -196 73h-7q-119 0 -200 -75t-83 -177v-657h-217z" />
<glyph unicode="i" horiz-adv-x="481" d="M84 1417q0 67 45.5 111.5t112.5 44.5q66 0 111.5 -44.5t45.5 -111.5t-45 -109t-112 -42t-112.5 42.5t-45.5 108.5zM133 0v1079h217v-1079h-217z" />
<glyph unicode="j" horiz-adv-x="485" d="M-92 -186h22q93 0 150 61t57 162v1042h215v-1040q0 -189 -110.5 -301.5t-286.5 -112.5h-45zM92 1417q0 67 45 111.5t113 44.5q66 0 111 -44.5t45 -111.5t-44.5 -109t-111.5 -42q-68 0 -113 42t-45 109z" />
<glyph unicode="k" horiz-adv-x="1064" d="M133 0v1497h217v-864l465 446h248l-500 -497l512 -582h-241l-484 522v-522h-217z" />
<glyph unicode="l" horiz-adv-x="481" d="M133 0v1497h217v-1497h-217z" />
<glyph unicode="m" horiz-adv-x="1947" d="M133 0v1079h205v-137q55 72 142.5 117t197.5 45q259 0 356 -199q46 88 143 143.5t232 55.5q196 0 307 -122t111 -314v-668h-215v629q0 125 -69 203q-68 77 -186 77h-3q-117 0 -189.5 -74.5t-74.5 -166.5v-668h-218v629q0 125 -69 203q-68 77 -186 77h-3q-116 0 -189 -74 t-75 -167v-668h-217z" />
<glyph unicode="n" horiz-adv-x="1249" d="M133 0v1079h205v-137q58 74 149.5 118t206.5 44q201 0 317.5 -119t116.5 -319v-666h-217v627q-1 133 -75 209q-73 74 -196 73h-7q-119 0 -200 -75t-83 -177v-657h-217z" />
<glyph unicode="o" horiz-adv-x="1280" d="M72 539q0 244 159.5 403.5t407.5 159.5q249 0 409 -159.5t160 -403.5q0 -160 -72 -288.5t-202.5 -202t-294.5 -73.5q-163 0 -293 73.5t-202 202.5t-72 288zM289 539q0 -161 98 -265t254 -104q155 0 252.5 103.5t97.5 265.5q0 163 -97 266.5t-253 103.5t-254 -103.5 t-98 -266.5z" />
<glyph unicode="p" d="M133 -367v1446h201v-170q66 92 164 142.5t221 50.5q152 0 273 -73.5t188 -202t67 -287.5t-68.5 -288t-190.5 -202.5t-273 -73.5q-232 0 -365 168v-510h-217zM340 539q0 -165 96.5 -268t251.5 -103q148 0 246 105.5t98 265.5q0 161 -97.5 266.5t-246.5 105.5 q-154 0 -251 -104t-97 -268z" />
<glyph unicode="q" d="M74 539q0 243 148.5 403t377.5 160q123 0 222.5 -50.5t164.5 -142.5v170h201v-1446h-217v510q-136 -168 -365 -168q-151 0 -273 73.5t-190.5 202.5t-68.5 288zM289 539q0 -160 98 -265.5t246 -105.5q155 0 250.5 103t95.5 268q0 164 -96 268t-250 104 q-149 0 -246.5 -105.5t-97.5 -266.5z" />
<glyph unicode="r" horiz-adv-x="702" d="M133 0v1079h205v-137q57 73 144 117.5t188 44.5v-203q-143 -1 -231.5 -77t-88.5 -191v-633h-217z" />
<glyph unicode="s" horiz-adv-x="989" d="M43 246l197 76q25 -80 93 -124t171 -44q92 0 145 37t53 102q0 42 -26 74t-69 51.5t-97.5 39t-111.5 35t-111.5 41.5t-97.5 57.5t-69 83.5t-26 118q0 144 110 226.5t296 82.5q152 0 256 -59.5t139 -168.5l-197 -75q-49 131 -202 131q-82 0 -127 -33.5t-45 -91.5 q0 -39 26 -68.5t69 -46.5t97.5 -35t111.5 -33t111.5 -41t97.5 -59t69 -87.5t26 -125.5q0 -157 -117.5 -245.5t-316.5 -88.5q-174 0 -293.5 70t-161.5 201z" />
<glyph unicode="t" horiz-adv-x="778" d="M25 893v186h104q100 0 100 105v174h211v-279h301v-186h-309v-494q0 -101 52 -155t149 -54h121v-190h-164q-180 0 -276.5 100.5t-96.5 276.5v516h-192z" />
<glyph unicode="u" horiz-adv-x="1228" d="M121 412v667h215v-641q0 -122 73 -196q72 -73 194 -72h3q119 0 196 72.5t79 171.5v665h215v-1079h-203v137q-58 -74 -148 -118t-198 -44q-202 0 -314 121t-112 316z" />
<glyph unicode="v" horiz-adv-x="1124" d="M12 1079h226l325 -872l324 872h225l-426 -1079h-248z" />
<glyph unicode="w" horiz-adv-x="1615" d="M25 1079h223l207 -870l233 870h244l233 -862l205 862h223l-288 -1079h-256l-240 842l-236 -842h-256z" />
<glyph unicode="x" horiz-adv-x="1089" d="M-6 0l428 557l-402 522h240l295 -383l291 383h233l-407 -536l418 -543h-240l-311 406l-316 -406h-229z" />
<glyph unicode="y" horiz-adv-x="1126" d="M16 1079h224l313 -901l336 901h225l-426 -1079l-143 -367h-213l147 367h-61z" />
<glyph unicode="z" horiz-adv-x="974" d="M51 0v156l588 747h-561v176h825v-161l-584 -742h607v-176h-875z" />
<glyph unicode="{" horiz-adv-x="655" d="M29 596v184h41q61 0 103 36t42 114v317q0 174 87.5 266.5t240.5 92.5h57v-181h-29q-73 0 -112 -47.5t-39 -132.5v-311q0 -104 -43 -159t-115 -87q72 -32 115 -87t43 -159v-311q0 -85 39.5 -132.5t111.5 -47.5h29v-182h-57q-153 0 -240.5 93t-87.5 267v317q0 78 -42 114 t-103 36h-41z" />
<glyph unicode="|" horiz-adv-x="468" d="M152 -182v1650h165v-1650h-165z" />
<glyph unicode="}" horiz-adv-x="655" d="M55 -49h29q72 0 113 47.5t41 132.5v311q0 105 42 159.5t113 86.5q-71 32 -113 86.5t-42 159.5v311q0 85 -40.5 132.5t-113.5 47.5h-29v181h58q153 0 240 -92.5t87 -266.5v-317q0 -78 42 -114t104 -36h41v-184h-41q-62 0 -104 -36t-42 -114v-317q0 -174 -87 -267t-240 -93 h-58v182z" />
<glyph unicode="~" horiz-adv-x="1073" d="M100 643q38 66 103.5 103.5t144.5 37.5q56 0 106.5 -17t82 -38t75.5 -38t88 -17q53 0 98.5 21t67.5 59l109 -119q-40 -66 -105 -103.5t-143 -37.5q-56 0 -106.5 17t-82.5 38t-76 38t-89 17q-53 0 -98 -20.5t-68 -57.5z" />
<glyph unicode="&#xa1;" horiz-adv-x="497" d="M115 958q0 58 38 97t95 39q59 0 98 -39t39 -97t-39 -96.5t-98 -38.5q-57 0 -95 38.5t-38 96.5zM125 -367l37 992h174l37 -992h-248z" />
<glyph unicode="&#xa2;" horiz-adv-x="1087" d="M82 676q0 190 110.5 326t290.5 165v187h179v-189q136 -23 229 -107.5t127 -189.5l-189 -73q-27 88 -93 138t-161 50q-125 0 -206.5 -85.5t-81.5 -221.5q0 -135 81.5 -219t206.5 -84q98 0 166 49.5t93 136.5l188 -76q-32 -104 -126.5 -188.5t-233.5 -106.5v-188h-179v186 q-178 31 -289.5 166.5t-111.5 323.5z" />
<glyph unicode="&#xa3;" horiz-adv-x="1140" d="M68 575v191h155v184q0 182 119 306t311 124q177 0 283.5 -81.5t142.5 -219.5l-186 -71q-54 182 -229 182q-109 0 -166.5 -69t-57.5 -171v-184h418v-191h-418v-385h604v-190h-821v575h-155z" />
<glyph unicode="&#xa4;" horiz-adv-x="1167" d="M98 317l109 109q-76 109 -76 250q0 142 76 254l-109 108l125 125l109 -110q114 71 252 71q136 0 250 -71l110 110l125 -125l-108 -108q75 -110 75 -254q0 -138 -73 -250l106 -109l-125 -124l-108 110q-115 -72 -252 -72q-136 0 -250 70l-111 -108zM322 676 q0 -117 75.5 -193.5t186.5 -76.5q113 0 187.5 76t74.5 194q0 119 -74.5 195.5t-187.5 76.5t-187.5 -76.5t-74.5 -195.5z" />
<glyph unicode="&#xa5;" horiz-adv-x="1204" d="M47 1352h234l323 -602l322 602h233l-426 -740h234v-143h-258v-135h258v-144h-258v-190h-215v190h-258v144h258v135h-258v143h235z" />
<glyph unicode="&#xa6;" horiz-adv-x="468" d="M152 -182v657h165v-657h-165zM152 811v657h165v-657h-165z" />
<glyph unicode="&#xa7;" horiz-adv-x="1042" d="M76 14l176 68q55 -174 258 -174q91 0 150 45t59 121q0 48 -26.5 84.5t-70.5 58.5t-99.5 43.5t-114 38.5t-114 44.5t-99.5 60.5t-70.5 87.5t-26.5 124.5q0 90 47 159t131 108q-135 79 -135 237q0 148 107 231t289 83q149 0 245.5 -59t132.5 -167l-176 -69 q-26 71 -74.5 104t-127.5 33q-90 0 -140.5 -39t-50.5 -107q0 -47 26.5 -81.5t69.5 -55t98.5 -40t113 -35.5t113 -42.5t98.5 -59.5t69.5 -89t26.5 -129q0 -183 -154 -274q117 -82 117 -230q0 -160 -113 -250t-297 -90q-174 0 -285.5 66t-152.5 194zM303 635q0 -25 8 -46.5 t18 -37.5t33 -32t38 -25.5t49 -23.5t51 -19.5t58.5 -19.5t57.5 -19q66 15 102 58t36 110q0 31 -9 56.5t-30.5 46t-40.5 34.5t-57 29.5t-60.5 23.5t-69.5 23q-90 -6 -137 -48.5t-47 -109.5z" />
<glyph unicode="&#xa8;" horiz-adv-x="796" d="M61 1421q0 63 45 104.5t109 41.5q62 0 104.5 -43t42.5 -107t-43.5 -105.5t-107.5 -41.5q-62 0 -106 42.5t-44 108.5zM492 1421q0 63 44.5 104.5t108.5 41.5q62 0 106 -43t44 -107t-44.5 -105.5t-109.5 -41.5q-62 0 -105.5 42.5t-43.5 108.5z" />
<glyph unicode="&#xa9;" horiz-adv-x="1566" d="M86 676q0 197 87.5 357t247.5 252.5t363 92.5t363 -92.5t247 -252.5t87 -357q0 -203 -87.5 -362.5t-246.5 -249t-363 -89.5t-363.5 89.5t-247 249t-87.5 362.5zM231 676q0 -249 156.5 -405t396.5 -156q239 0 395 156t156 405q0 157 -71.5 286t-198 203t-281.5 74 q-117 0 -220 -43.5t-176 -118.5t-115 -179.5t-42 -221.5zM403 678q0 166 110.5 278.5t277.5 112.5q132 0 224 -70t122 -170l-152 -53q-19 65 -69 101t-123 36q-97 0 -159.5 -65.5t-62.5 -169.5q0 -105 62.5 -170.5t161.5 -65.5q73 0 123.5 36.5t70.5 101.5l152 -56 q-30 -99 -123 -168t-227 -69q-166 0 -277 112t-111 279z" />
<glyph unicode="&#xaa;" horiz-adv-x="808" d="M61 1376q0 137 84.5 225.5t208.5 88.5q156 0 230 -115v100h116v-598h-116v105q-77 -121 -230 -121q-123 0 -208 89.5t-85 225.5zM215 1376q0 -74 47 -123t119 -49q75 0 121.5 48.5t46.5 123.5q0 74 -46.5 123t-121.5 49q-72 0 -119 -49t-47 -123z" />
<glyph unicode="&#xab;" horiz-adv-x="974" d="M68 508l229 344h205l-230 -344l230 -346h-205zM436 508l230 344h204l-229 -344l229 -346h-204z" />
<glyph unicode="&#xac;" horiz-adv-x="1095" d="M106 592v184h857v-512h-203v328h-654z" />
<glyph unicode="&#xad;" horiz-adv-x="780" d="M117 422v178h545v-178h-545z" />
<glyph unicode="&#xae;" horiz-adv-x="1036" d="M84 1051q0 184 125.5 310t310.5 126q182 0 306 -126t124 -310q0 -182 -124.5 -307.5t-305.5 -125.5q-185 0 -310.5 125.5t-125.5 307.5zM176 1051q0 -146 99 -243t245 -97q143 0 240.5 97t97.5 243q0 145 -97.5 243.5t-240.5 98.5q-145 0 -244.5 -98t-99.5 -244zM377 838 v450h174q64 0 104.5 -35t40.5 -94q0 -55 -33 -89t-88 -40l132 -192h-95l-127 190h-22v-190h-86zM463 1098h76q35 0 53 16.5t18 44.5q0 29 -18.5 45.5t-52.5 16.5h-76v-123z" />
<glyph unicode="&#xaf;" horiz-adv-x="667" d="M61 1333v172h627v-172h-627z" />
<glyph unicode="&#xb0;" horiz-adv-x="770" d="M72 1124q0 133 89 220.5t224 87.5t224 -87t89 -219q0 -135 -88 -221t-225 -86q-136 0 -224.5 86.5t-88.5 218.5zM215 1124q0 -74 48.5 -123t121.5 -49t121.5 49t48.5 123t-49.5 124t-120.5 50t-120.5 -50.5t-49.5 -123.5z" />
<glyph unicode="&#xb1;" horiz-adv-x="1073" d="M106 61v187h861v-187h-861zM106 702v187h334v350h193v-350h334v-187h-334v-354h-193v354h-334z" />
<glyph unicode="&#xb2;" horiz-adv-x="700" d="M94 1253q17 81 86.5 131t167.5 50q110 0 174 -55.5t64 -149.5q0 -67 -34 -126.5t-101 -123.5l-148 -150h295v-118h-498v92l240 241q102 98 102 177q0 40 -27.5 66t-70.5 26t-75 -27t-42 -76z" />
<glyph unicode="&#xb3;" horiz-adv-x="663" d="M68 856l129 51q12 -41 45 -64.5t82 -23.5q53 0 84.5 32t31.5 81q0 51 -32.5 80.5t-81.5 29.5h-101v93l181 176h-306v112h455v-110l-176 -178q90 -5 147.5 -63.5t57.5 -147.5q0 -97 -72.5 -161.5t-185.5 -64.5q-99 0 -168 44t-90 114z" />
<glyph unicode="&#xb4;" horiz-adv-x="581" d="M61 1343l447 285l98 -158l-456 -266z" />
<glyph unicode="&#xb6;" horiz-adv-x="1277" d="M51 997q0 195 128.5 310.5t346.5 115.5h584v-1628h-121v1446h-92v-1446h-121v1446h-94v-668h-156q-217 0 -346 115.5t-129 308.5z" />
<glyph unicode="&#xb7;" horiz-adv-x="473" d="M100 670q0 59 39 98t97 39q59 0 97 -38.5t38 -98.5q0 -57 -38.5 -95t-96.5 -38q-57 0 -96.5 38t-39.5 95z" />
<glyph unicode="&#xb8;" horiz-adv-x="528" d="M61 -397l76 90q52 -64 131 -64q51 0 83 29.5t32 71.5q0 44 -33 74t-86 30h-35l-14 14l72 179h135l-53 -129q75 -4 123.5 -57t48.5 -130q0 -89 -67.5 -147t-178.5 -58q-78 0 -138 27.5t-96 69.5z" />
<glyph unicode="&#xb9;" horiz-adv-x="577" d="M102 711v125h142v358h-138v127h138v102h149v-587h109v-125h-400z" />
<glyph unicode="&#xba;" horiz-adv-x="759" d="M61 1376q0 135 89.5 226.5t228.5 91.5q141 0 230 -91t89 -227q0 -135 -89 -225t-230 -90q-140 0 -229 90t-89 225zM211 1376q0 -77 45.5 -126.5t122.5 -49.5q78 0 123 49.5t45 126.5q0 78 -45 127t-123 49q-77 0 -122.5 -49t-45.5 -127z" />
<glyph unicode="&#xbb;" horiz-adv-x="974" d="M102 162l230 346l-230 344h205l230 -344l-230 -346h-205zM473 162l229 346l-229 344h205l229 -344l-229 -346h-205z" />
<glyph unicode="&#xbc;" horiz-adv-x="1318" d="M76 711v125h141v358h-137v127h137v102h150v-587h106v-125h-397zM240 0l747 1423h164l-750 -1423h-161zM705 152v104l331 457h140v-457h77v-104h-77v-152h-140v152h-331zM821 256h215v295z" />
<glyph unicode="&#xbd;" horiz-adv-x="1390" d="M76 711v125h141v358h-137v127h137v102h150v-587h106v-125h-397zM233 0l748 1423h164l-750 -1423h-162zM821 543q17 80 86 130t168 50q110 0 174 -55.5t64 -149.5q0 -68 -33.5 -127.5t-101.5 -122.5l-148 -149h295v-119h-498v92l240 242q102 98 102 176q0 40 -27 66 t-71 26q-41 0 -73 -26.5t-44 -75.5z" />
<glyph unicode="&#xbe;" horiz-adv-x="1347" d="M53 856l129 51q12 -40 46 -64t81 -24q54 0 86.5 32t32.5 81q0 51 -33 80.5t-82 29.5h-102v93l182 176h-305v112h453v-110l-176 -178q90 -5 147 -63.5t57 -147.5q0 -97 -72.5 -161.5t-185.5 -64.5q-99 0 -168 44t-90 114zM274 0l748 1423h166l-750 -1423h-164zM719 152 v104l334 457h139v-457h76v-104h-76v-152h-141v152h-332zM836 256h217v297z" />
<glyph unicode="&#xbf;" horiz-adv-x="940" d="M63 -43q0 68 21 125.5t54.5 98t73.5 77t80.5 70t74 68t54.5 79t21 96.5v54h189v-64q0 -65 -19 -120.5t-49 -94t-66.5 -73t-73 -64.5t-66.5 -60.5t-49 -69t-19 -83.5q0 -84 48.5 -130t133.5 -46q83 0 142.5 52.5t74.5 135.5l203 -65q-29 -150 -146.5 -240t-285.5 -90 q-184 0 -290 92t-106 252zM397 958q0 57 40 96.5t98 39.5q57 0 95 -39.5t38 -96.5q0 -59 -38 -98t-95 -39q-60 0 -99 39t-39 98z" />
<glyph unicode="&#xc0;" horiz-adv-x="1298" d="M14 0l504 1423h262l506 -1423h-215l-131 373h-580l-131 -373h-215zM352 1729l54 178l540 -199l-49 -158zM424 551h453l-226 643z" />
<glyph unicode="&#xc1;" horiz-adv-x="1298" d="M14 0l504 1423h262l506 -1423h-215l-131 373h-580l-131 -373h-215zM373 1708l538 199l56 -178l-545 -179zM424 551h453l-226 643z" />
<glyph unicode="&#xc2;" horiz-adv-x="1298" d="M14 0l504 1423h262l506 -1423h-215l-131 373h-580l-131 -373h-215zM283 1567l280 319h176l277 -319h-199l-168 178l-170 -178h-196zM424 551h453l-226 643z" />
<glyph unicode="&#xc3;" horiz-adv-x="1298" d="M14 0l504 1423h262l506 -1423h-215l-131 373h-580l-131 -373h-215zM279 1647q20 84 81 147.5t158 63.5q44 0 83 -16t62.5 -35.5t55 -35.5t61.5 -16q85 0 109 94l151 -63q-23 -88 -83.5 -149.5t-157.5 -61.5q-45 0 -83.5 16t-61.5 35t-54 35t-63 16q-43 0 -70.5 -25.5 t-36.5 -68.5zM424 551h453l-226 643z" />
<glyph unicode="&#xc4;" horiz-adv-x="1298" d="M14 0l504 1423h262l506 -1423h-215l-131 373h-580l-131 -373h-215zM272 1729q0 65 45 107t111 42q63 0 106.5 -44t43.5 -110q0 -64 -44.5 -106.5t-109.5 -42.5q-63 0 -107.5 44t-44.5 110zM424 551h453l-226 643zM717 1729q0 65 45 107t110 42q64 0 108 -44t44 -110 q0 -64 -45.5 -106.5t-110.5 -42.5q-63 0 -107 44t-44 110z" />
<glyph unicode="&#xc5;" horiz-adv-x="1298" d="M14 0l504 1423h262l506 -1423h-215l-131 373h-580l-131 -373h-215zM414 1677q0 97 67 160.5t168 63.5q102 0 168 -63.5t66 -160.5q0 -98 -65.5 -160.5t-168.5 -62.5q-102 0 -168.5 62.5t-66.5 160.5zM424 551h453l-226 643zM545 1677q0 -43 30 -71.5t74 -28.5t73.5 28.5 t29.5 71.5t-29.5 72t-73.5 29t-74 -29t-30 -72z" />
<glyph unicode="&#xc6;" horiz-adv-x="1908" d="M-29 0l744 1423h1106v-190h-693v-406h621v-188h-621v-449h705v-190h-922v367h-516l-194 -367h-230zM494 551h417v682h-57z" />
<glyph unicode="&#xc7;" horiz-adv-x="1497" d="M84 711q0 212 94 381t257.5 262.5t365.5 93.5q127 0 236 -36t188.5 -99.5t136 -144.5t88.5 -177l-207 -84q-53 159 -164.5 246.5t-283.5 87.5q-214 0 -352 -147.5t-138 -382.5t138.5 -382t355.5 -147q334 0 444 334l207 -84q-63 -190 -211.5 -313.5t-370.5 -141.5 l-32 -79q75 -4 123.5 -57t48.5 -130q0 -89 -67.5 -147t-178.5 -58q-78 0 -138 27.5t-96 69.5l76 90q52 -64 131 -64q51 0 83 29.5t32 71.5q0 44 -33 74t-86 30h-35l-14 14l53 129q-187 16 -335 113t-232 259t-84 362z" />
<glyph unicode="&#xc8;" horiz-adv-x="1155" d="M156 0v1423h909v-190h-692v-406h622v-188h-622v-449h704v-190h-921zM313 1729l56 178l540 -199l-51 -158z" />
<glyph unicode="&#xc9;" horiz-adv-x="1155" d="M156 0v1423h909v-190h-692v-406h622v-188h-622v-449h704v-190h-921zM334 1708l540 199l56 -178l-547 -179z" />
<glyph unicode="&#xca;" horiz-adv-x="1155" d="M156 0v1423h909v-190h-692v-406h622v-188h-622v-449h704v-190h-921zM244 1567l280 319h176l277 -319h-197l-170 178l-168 -178h-198z" />
<glyph unicode="&#xcb;" horiz-adv-x="1155" d="M156 0v1423h909v-190h-692v-406h622v-188h-622v-449h704v-190h-921zM233 1729q0 65 45 107t111 42q63 0 107.5 -44t44.5 -110q0 -64 -45.5 -106.5t-110.5 -42.5q-63 0 -107.5 44t-44.5 110zM678 1729q0 65 45 107t111 42q63 0 107 -44t44 -110q0 -64 -45 -106.5 t-111 -42.5q-63 0 -107 44t-44 110z" />
<glyph unicode="&#xcc;" horiz-adv-x="528" d="M-33 1729l56 178l540 -199l-49 -158zM156 0v1423h217v-1423h-217z" />
<glyph unicode="&#xcd;" horiz-adv-x="528" d="M-12 1708l540 199l56 -178l-547 -179zM156 0v1423h217v-1423h-217z" />
<glyph unicode="&#xce;" horiz-adv-x="528" d="M-102 1567l282 319h176l275 -319h-197l-170 180l-168 -180h-198zM156 0v1423h217v-1423h-217z" />
<glyph unicode="&#xcf;" horiz-adv-x="528" d="M-113 1729q0 65 46 107t112 42q62 0 106 -44.5t44 -109.5q0 -64 -45 -106.5t-109 -42.5q-63 0 -108.5 44t-45.5 110zM156 0v1423h217v-1423h-217zM334 1729q0 65 44.5 107t108.5 42q63 0 107.5 -44t44.5 -110q0 -64 -44.5 -106.5t-109.5 -42.5q-63 0 -107 44t-44 110z " />
<glyph unicode="&#xd0;" horiz-adv-x="1492" d="M35 657v152h139v614h528q153 0 283.5 -50.5t223.5 -142t145.5 -225t52.5 -292.5q0 -213 -90 -375.5t-250 -250t-365 -87.5h-528v657h-139zM391 193h305q218 0 355 140t137 378t-137.5 379t-354.5 141h-305v-422h318v-152h-318v-464z" />
<glyph unicode="&#xd1;" horiz-adv-x="1409" d="M156 0v1423h180l702 -1050v1050h217v-1423h-182l-700 1047v-1047h-217zM315 1647q20 84 82 147.5t160 63.5q44 0 83 -16t62 -35.5t54.5 -35.5t62.5 -16q43 0 70.5 25.5t36.5 68.5l151 -63q-22 -88 -82 -149.5t-157 -61.5q-45 0 -84.5 16t-62.5 35t-54.5 35t-63.5 16 q-85 0 -106 -94z" />
<glyph unicode="&#xd2;" horiz-adv-x="1615" d="M82 711q0 156 56 293.5t152.5 234.5t231.5 153t287 56t286 -56t230.5 -153t152.5 -234.5t56 -293.5t-56 -293t-152.5 -234t-230.5 -153t-286 -56q-203 0 -369.5 95.5t-262 264t-95.5 376.5zM303 711q0 -232 142 -380.5t364 -148.5q221 0 362.5 148.5t141.5 380.5 q0 233 -140.5 381.5t-363.5 148.5q-224 0 -365 -148t-141 -382zM510 1729l55 178l541 -199l-49 -158z" />
<glyph unicode="&#xd3;" horiz-adv-x="1615" d="M82 711q0 156 56 293.5t152.5 234.5t231.5 153t287 56t286 -56t230.5 -153t152.5 -234.5t56 -293.5t-56 -293t-152.5 -234t-230.5 -153t-286 -56q-203 0 -369.5 95.5t-262 264t-95.5 376.5zM303 711q0 -232 142 -380.5t364 -148.5q221 0 362.5 148.5t141.5 380.5 q0 233 -140.5 381.5t-363.5 148.5q-224 0 -365 -148t-141 -382zM530 1708l541 199l55 -178l-546 -179z" />
<glyph unicode="&#xd4;" horiz-adv-x="1615" d="M82 711q0 156 56 293.5t152.5 234.5t231.5 153t287 56t286 -56t230.5 -153t152.5 -234.5t56 -293.5t-56 -293t-152.5 -234t-230.5 -153t-286 -56q-203 0 -369.5 95.5t-262 264t-95.5 376.5zM303 711q0 -232 142 -380.5t364 -148.5q221 0 362.5 148.5t141.5 380.5 q0 233 -140.5 381.5t-363.5 148.5q-224 0 -365 -148t-141 -382zM442 1567l281 319h176l277 -319h-199l-168 178l-170 -178h-197z" />
<glyph unicode="&#xd5;" horiz-adv-x="1615" d="M82 711q0 156 56 293.5t152.5 234.5t231.5 153t287 56t286 -56t230.5 -153t152.5 -234.5t56 -293.5t-56 -293t-152.5 -234t-230.5 -153t-286 -56q-203 0 -369.5 95.5t-262 264t-95.5 376.5zM303 711q0 -232 142 -380.5t364 -148.5q221 0 362.5 148.5t141.5 380.5 q0 233 -140.5 381.5t-363.5 148.5q-224 0 -365 -148t-141 -382zM438 1647q20 84 81.5 147.5t158.5 63.5q44 0 83 -16t62.5 -35.5t55 -35.5t61.5 -16q43 0 70.5 25.5t36.5 68.5l153 -63q-23 -88 -84 -149.5t-158 -61.5q-45 0 -84.5 16t-62 35t-53.5 35t-62 16q-85 0 -106 -94 z" />
<glyph unicode="&#xd6;" horiz-adv-x="1615" d="M82 711q0 156 56 293.5t152.5 234.5t231.5 153t287 56t286 -56t230.5 -153t152.5 -234.5t56 -293.5t-56 -293t-152.5 -234t-230.5 -153t-286 -56q-203 0 -369.5 95.5t-262 264t-95.5 376.5zM303 711q0 -232 142 -380.5t364 -148.5q221 0 362.5 148.5t141.5 380.5 q0 233 -140.5 381.5t-363.5 148.5q-224 0 -365 -148t-141 -382zM432 1729q0 65 45 107t111 42q63 0 106 -44t43 -110q0 -64 -44 -106.5t-109 -42.5q-63 0 -107.5 44t-44.5 110zM877 1729q0 65 44.5 107t108.5 42q65 0 109.5 -44t44.5 -110q0 -64 -45.5 -106.5t-110.5 -42.5 q-63 0 -107 44t-44 110z" />
<glyph unicode="&#xd7;" horiz-adv-x="1017" d="M94 369l279 278l-279 279l135 137l281 -279l278 279l138 -137l-281 -279l281 -278l-138 -136l-278 279l-281 -279z" />
<glyph unicode="&#xd8;" horiz-adv-x="1622" d="M86 711q0 209 95 378t261 264t369 95q245 0 436 -139l144 153l127 -123l-142 -153q162 -199 162 -475q0 -208 -95.5 -376.5t-262 -264t-369.5 -95.5q-240 0 -434 138l-144 -154l-129 123l144 154q-162 202 -162 475zM307 711q0 -180 90 -316l707 760q-125 86 -293 86 q-224 0 -364 -148t-140 -382zM522 268q125 -86 289 -86q221 0 363.5 148.5t142.5 380.5q0 181 -90 317z" />
<glyph unicode="&#xd9;" horiz-adv-x="1376" d="M139 537v886h219v-886q0 -159 86 -258t246 -99q158 0 244 100t86 257v886h217v-886q0 -116 -34.5 -216.5t-100.5 -178.5t-172 -122.5t-240 -44.5q-135 0 -241.5 44.5t-173 122t-101.5 178t-35 217.5zM391 1729l55 178l541 -199l-49 -158z" />
<glyph unicode="&#xda;" horiz-adv-x="1376" d="M139 537v886h219v-886q0 -159 86 -258t246 -99q158 0 244 100t86 257v886h217v-886q0 -116 -34.5 -216.5t-100.5 -178.5t-172 -122.5t-240 -44.5q-135 0 -241.5 44.5t-173 122t-101.5 178t-35 217.5zM412 1708l540 199l56 -178l-547 -179z" />
<glyph unicode="&#xdb;" horiz-adv-x="1376" d="M139 537v886h219v-886q0 -159 86 -258t246 -99q158 0 244 100t86 257v886h217v-886q0 -116 -34.5 -216.5t-100.5 -178.5t-172 -122.5t-240 -44.5q-135 0 -241.5 44.5t-173 122t-101.5 178t-35 217.5zM324 1567l280 319h176l277 -319h-199l-168 178l-170 -178h-196z" />
<glyph unicode="&#xdc;" horiz-adv-x="1376" d="M139 537v886h219v-886q0 -159 86 -258t246 -99q158 0 244 100t86 257v886h217v-886q0 -116 -34.5 -216.5t-100.5 -178.5t-172 -122.5t-240 -44.5q-135 0 -241.5 44.5t-173 122t-101.5 178t-35 217.5zM313 1729q0 65 45 107t111 42q63 0 106 -44t43 -110q0 -64 -44 -106.5 t-109 -42.5q-63 0 -107.5 44t-44.5 110zM758 1729q0 65 44.5 107t108.5 42q65 0 109.5 -44t44.5 -110q0 -64 -45.5 -106.5t-110.5 -42.5q-63 0 -107 44t-44 110z" />
<glyph unicode="&#xdd;" horiz-adv-x="1282" d="M6 1423h244l391 -655l391 655h244l-526 -839v-584h-218v584zM367 1708l538 199l56 -178l-545 -179z" />
<glyph unicode="&#xde;" horiz-adv-x="1249" d="M156 0v1423h217v-276h329q218 0 346 -115t128 -309t-129 -310t-345 -116h-329v-297h-217zM373 489h317q126 0 195 63.5t69 170.5q0 105 -69 169t-195 64h-317v-467z" />
<glyph unicode="&#xdf;" horiz-adv-x="1263" d="M133 0v1006q0 238 142 376t389 138q213 0 339.5 -109.5t126.5 -277.5q0 -111 -58 -202.5t-154 -131.5q121 -39 197.5 -150t76.5 -256q0 -195 -125.5 -306.5t-325.5 -111.5q-126 0 -209 53t-126 144l49 160q31 -80 96 -127t162 -47q117 0 188.5 71.5t71.5 188.5 q0 124 -82 203t-236 79v172q122 0 189 70.5t67 167.5q0 103 -71.5 166t-188.5 63q-140 0 -220.5 -85.5t-80.5 -237.5v-1016h-217z" />
<glyph unicode="&#xe0;" d="M74 541q0 239 150.5 394t381.5 155q252 0 381 -193v182h201v-1079h-201v176q-63 -96 -160 -148.5t-221 -52.5q-152 0 -274 73.5t-190 203t-68 289.5zM289 541q0 -161 97.5 -267t246.5 -106q153 0 249.5 104t96.5 269q0 164 -95.5 267t-250.5 103q-148 0 -246 -106 t-98 -264zM367 1470l98 158l446 -285l-88 -139z" />
<glyph unicode="&#xe1;" d="M74 541q0 239 150.5 394t381.5 155q252 0 381 -193v182h201v-1079h-201v176q-63 -96 -160 -148.5t-221 -52.5q-152 0 -274 73.5t-190 203t-68 289.5zM289 541q0 -161 97.5 -267t246.5 -106q153 0 249.5 104t96.5 269q0 164 -95.5 267t-250.5 103q-148 0 -246 -106 t-98 -264zM391 1343l447 285l98 -158l-457 -266z" />
<glyph unicode="&#xe2;" d="M74 541q0 239 150.5 394t381.5 155q252 0 381 -193v182h201v-1079h-201v176q-63 -96 -160 -148.5t-221 -52.5q-152 0 -274 73.5t-190 203t-68 289.5zM289 541q0 -161 97.5 -267t246.5 -106q153 0 249.5 104t96.5 269q0 164 -95.5 267t-250.5 103q-148 0 -246 -106 t-98 -264zM295 1243l274 350h187l268 -350h-193l-172 215l-170 -215h-194z" />
<glyph unicode="&#xe3;" d="M74 541q0 239 150.5 394t381.5 155q252 0 381 -193v182h201v-1079h-201v176q-63 -96 -160 -148.5t-221 -52.5q-152 0 -274 73.5t-190 203t-68 289.5zM289 541q0 -161 97.5 -267t246.5 -106q153 0 249.5 104t96.5 269q0 164 -95.5 267t-250.5 103q-148 0 -246 -106 t-98 -264zM291 1350q20 87 75.5 149t147.5 62q42 0 79.5 -16t60.5 -35.5t54.5 -35.5t63.5 -16q40 0 68 26t37 68l151 -63q-56 -211 -225 -211q-43 0 -81.5 16t-61.5 35t-54 35t-61 16q-40 0 -68 -26t-37 -68z" />
<glyph unicode="&#xe4;" d="M74 541q0 239 150.5 394t381.5 155q252 0 381 -193v182h201v-1079h-201v176q-63 -96 -160 -148.5t-221 -52.5q-152 0 -274 73.5t-190 203t-68 289.5zM289 541q0 -161 97.5 -267t246.5 -106q153 0 249.5 104t96.5 269q0 164 -95.5 267t-250.5 103q-148 0 -246 -106 t-98 -264zM293 1421q0 63 44.5 104.5t108.5 41.5q62 0 105 -43t43 -107t-44 -105.5t-108 -41.5q-62 0 -105.5 42.5t-43.5 108.5zM723 1421q0 63 45 104.5t109 41.5q62 0 105.5 -43t43.5 -107q0 -63 -45 -105t-109 -42q-62 0 -105.5 42.5t-43.5 108.5z" />
<glyph unicode="&#xe5;" d="M74 541q0 239 150.5 394t381.5 155q252 0 381 -193v182h201v-1079h-201v176q-63 -96 -160 -148.5t-221 -52.5q-152 0 -274 73.5t-190 203t-68 289.5zM289 541q0 -161 97.5 -267t246.5 -106q153 0 249.5 104t96.5 269q0 164 -95.5 267t-250.5 103q-148 0 -246 -106 t-98 -264zM426 1407q0 96 66 159.5t167 63.5q102 0 168 -63.5t66 -159.5q0 -100 -65.5 -162.5t-168.5 -62.5q-102 0 -167.5 63t-65.5 162zM557 1407q0 -44 29 -73t73 -29t73.5 29t29.5 73q0 41 -29.5 69.5t-73.5 28.5t-73 -28t-29 -70z" />
<glyph unicode="&#xe6;" horiz-adv-x="2158" d="M74 541q0 240 151.5 400.5t380.5 160.5q124 0 221 -52t160 -147v176h201v-196q62 104 163 161.5t234 57.5q152 0 269 -75.5t176 -197t59 -266.5q0 -44 -4 -84h-866q19 -151 114 -240t234 -89q243 0 327 194l179 -76q-57 -134 -172.5 -213.5t-294.5 -79.5q-289 0 -418 211 v-186h-201v176q-63 -96 -160 -148.5t-221 -52.5q-152 0 -274 73.5t-190 203t-68 289.5zM289 541q0 -161 97.5 -267t246.5 -106q153 0 249.5 104t96.5 269q0 164 -95.5 267t-250.5 103q-148 0 -246 -106t-98 -264zM1219 610h675q-14 151 -102.5 241.5t-228.5 90.5 q-141 0 -234 -90.5t-110 -241.5z" />
<glyph unicode="&#xe7;" horiz-adv-x="1177" d="M72 539q0 240 158.5 401.5t398.5 161.5q98 0 184 -28.5t148.5 -77.5t105.5 -109t63 -127l-194 -78q-29 105 -108.5 165t-192.5 60q-150 0 -248 -102t-98 -266t98 -266.5t248 -102.5q115 0 196.5 60t110.5 163l195 -78q-38 -124 -151.5 -219t-276.5 -116l-35 -82 q75 -4 123.5 -57t48.5 -130q0 -89 -67.5 -147t-178.5 -58q-78 0 -137.5 27.5t-95.5 69.5l75 90q52 -64 131 -64q51 0 83 29.5t32 71.5q0 44 -33 74t-86 30h-34l-15 14l51 129q-218 22 -358.5 179t-140.5 383z" />
<glyph unicode="&#xe8;" horiz-adv-x="1214" d="M63 539q0 154 73 284t199.5 205.5t276.5 75.5q121 0 224.5 -45t172 -120.5t106.5 -173t38 -202.5q0 -56 -4 -96h-870q25 -137 122 -218t234 -81q119 0 191 42.5t110 129.5l178 -113q-145 -252 -485 -252q-167 0 -296.5 73.5t-199.5 202t-70 288.5zM281 633h659 q-22 136 -108 215.5t-211 79.5q-128 0 -222 -79t-118 -216zM326 1468l98 158l446 -285l-86 -139z" />
<glyph unicode="&#xe9;" horiz-adv-x="1214" d="M63 539q0 154 73 284t199.5 205.5t276.5 75.5q121 0 224.5 -45t172 -120.5t106.5 -173t38 -202.5q0 -56 -4 -96h-870q25 -137 122 -218t234 -81q119 0 191 42.5t110 129.5l178 -113q-145 -252 -485 -252q-167 0 -296.5 73.5t-199.5 202t-70 288.5zM281 633h659 q-22 136 -108 215.5t-211 79.5q-128 0 -222 -79t-118 -216zM350 1341l449 285l98 -158l-459 -266z" />
<glyph unicode="&#xea;" horiz-adv-x="1214" d="M63 539q0 154 73 284t199.5 205.5t276.5 75.5q121 0 224.5 -45t172 -120.5t106.5 -173t38 -202.5q0 -56 -4 -96h-870q25 -137 122 -218t234 -81q119 0 191 42.5t110 129.5l178 -113q-145 -252 -485 -252q-167 0 -296.5 73.5t-199.5 202t-70 288.5zM256 1241l274 350h185 l268 -350h-192l-170 217l-172 -217h-193zM281 633h659q-22 136 -108 215.5t-211 79.5q-128 0 -222 -79t-118 -216z" />
<glyph unicode="&#xeb;" horiz-adv-x="1214" d="M63 539q0 154 73 284t199.5 205.5t276.5 75.5q121 0 224.5 -45t172 -120.5t106.5 -173t38 -202.5q0 -56 -4 -96h-870q25 -137 122 -218t234 -81q119 0 191 42.5t110 129.5l178 -113q-145 -252 -485 -252q-167 0 -296.5 73.5t-199.5 202t-70 288.5zM252 1419 q0 63 45 104.5t109 41.5q62 0 104.5 -43t42.5 -107t-44 -105.5t-108 -41.5q-62 0 -105.5 42.5t-43.5 108.5zM281 633h659q-22 136 -108 215.5t-211 79.5q-128 0 -222 -79t-118 -216zM684 1419q0 64 44 105t108 41q62 0 105.5 -43t43.5 -107t-43.5 -105.5t-107.5 -41.5 q-63 0 -106.5 42.5t-43.5 108.5z" />
<glyph unicode="&#xec;" horiz-adv-x="481" d="M-53 1468l98 160l449 -285l-88 -139zM133 0v1079h217v-1079h-217z" />
<glyph unicode="&#xed;" horiz-adv-x="481" d="M-27 1343l447 285l98 -160l-459 -264zM133 0v1079h217v-1079h-217z" />
<glyph unicode="&#xee;" horiz-adv-x="481" d="M-123 1243l275 348h184l268 -348h-192l-170 217l-172 -217h-193zM133 0v1079h217v-1079h-217z" />
<glyph unicode="&#xef;" horiz-adv-x="481" d="M-125 1419q0 64 44 106t108 42q62 0 104.5 -44t42.5 -108q0 -62 -43.5 -103.5t-105.5 -41.5q-63 0 -106.5 42t-43.5 107zM133 0v1079h217v-1079h-217zM305 1419q0 63 44.5 105.5t107.5 42.5t106 -44t43 -108q0 -62 -43.5 -103.5t-107.5 -41.5q-62 0 -106 42t-44 107z" />
<glyph unicode="&#xf0;" horiz-adv-x="1288" d="M72 522q0 154 72 279.5t201 197.5t288 72q182 0 293 -100q-110 233 -367 358l-217 -217l-109 109l170 170q-158 45 -327 45l86 178q207 0 395 -70l160 160l108 -111l-120 -120q234 -134 368.5 -369.5t134.5 -515.5q0 -288 -156.5 -450.5t-412.5 -162.5q-246 0 -406.5 158 t-160.5 389zM289 522q0 -150 98.5 -251t253.5 -101q156 0 253 98.5t97 259.5q0 150 -97.5 250.5t-252.5 100.5t-253.5 -101.5t-98.5 -255.5z" />
<glyph unicode="&#xf1;" horiz-adv-x="1249" d="M133 0v1079h205v-137q58 74 149.5 118t206.5 44q201 0 317.5 -119t116.5 -319v-666h-217v627q0 133 -74.5 208.5t-203.5 73.5q-119 0 -200 -75t-83 -177v-657h-217zM272 1348q9 40 26 75t43.5 67t67 50.5t89.5 18.5q42 0 79.5 -16t60.5 -35.5t54.5 -35.5t63.5 -16 q39 0 66 26t36 68l152 -63q-22 -90 -76 -150.5t-148 -60.5q-43 0 -81.5 16t-62 35t-54 35t-60.5 16q-40 0 -67.5 -25.5t-36.5 -68.5z" />
<glyph unicode="&#xf2;" horiz-adv-x="1280" d="M72 539q0 244 159.5 403.5t407.5 159.5q249 0 409 -159.5t160 -403.5q0 -160 -72 -288.5t-202.5 -202t-294.5 -73.5q-163 0 -293 73.5t-202 202.5t-72 288zM289 539q0 -161 98 -265t254 -104q155 0 252.5 103.5t97.5 265.5q0 163 -97 266.5t-253 103.5t-254 -103.5 t-98 -266.5zM350 1468l99 158l446 -285l-86 -139z" />
<glyph unicode="&#xf3;" horiz-adv-x="1280" d="M72 539q0 244 159.5 403.5t407.5 159.5q249 0 409 -159.5t160 -403.5q0 -160 -72 -288.5t-202.5 -202t-294.5 -73.5q-163 0 -293 73.5t-202 202.5t-72 288zM289 539q0 -161 98 -265t254 -104q155 0 252.5 103.5t97.5 265.5q0 163 -97 266.5t-253 103.5t-254 -103.5 t-98 -266.5zM375 1341l448 285l99 -158l-459 -266z" />
<glyph unicode="&#xf4;" horiz-adv-x="1280" d="M72 539q0 244 159.5 403.5t407.5 159.5q249 0 409 -159.5t160 -403.5q0 -160 -72 -288.5t-202.5 -202t-294.5 -73.5q-163 0 -293 73.5t-202 202.5t-72 288zM281 1241l274 350h184l269 -350h-193l-170 217l-172 -217h-192zM289 539q0 -161 98 -265t254 -104 q155 0 252.5 103.5t97.5 265.5q0 163 -97 266.5t-253 103.5t-254 -103.5t-98 -266.5z" />
<glyph unicode="&#xf5;" horiz-adv-x="1280" d="M72 539q0 244 159.5 403.5t407.5 159.5q249 0 409 -159.5t160 -403.5q0 -160 -72 -288.5t-202.5 -202t-294.5 -73.5q-163 0 -293 73.5t-202 202.5t-72 288zM274 1348q9 40 26 75t43.5 67t67 50.5t89.5 18.5q42 0 79.5 -16t60.5 -35.5t54.5 -35.5t63.5 -16q39 0 66 26 t36 68l152 -63q-22 -90 -76 -150.5t-148 -60.5q-43 0 -81.5 16t-62 35t-54 35t-60.5 16q-40 0 -67.5 -25.5t-36.5 -68.5zM289 539q0 -161 98 -265t254 -104q155 0 252.5 103.5t97.5 265.5q0 163 -97 266.5t-253 103.5t-254 -103.5t-98 -266.5z" />
<glyph unicode="&#xf6;" horiz-adv-x="1280" d="M72 539q0 244 159.5 403.5t407.5 159.5q249 0 409 -159.5t160 -403.5q0 -160 -72 -288.5t-202.5 -202t-294.5 -73.5q-163 0 -293 73.5t-202 202.5t-72 288zM276 1419q0 63 45 104.5t109 41.5q62 0 105 -43t43 -107t-44 -105.5t-108 -41.5q-62 0 -106 42.5t-44 108.5z M289 539q0 -161 98 -265t254 -104q155 0 252.5 103.5t97.5 265.5q0 163 -97 266.5t-253 103.5t-254 -103.5t-98 -266.5zM709 1419q0 64 43.5 105t107.5 41q62 0 106 -43t44 -107t-44 -105.5t-108 -41.5q-63 0 -106 42.5t-43 108.5z" />
<glyph unicode="&#xf7;" horiz-adv-x="1067" d="M104 551v184h859v-184h-859zM403 1038q0 59 39 98.5t97 39.5t96.5 -39.5t38.5 -98.5q0 -57 -38.5 -96t-96.5 -39t-97 39t-39 96zM406 231q0 60 38 99t97 39t97 -39t38 -99q0 -57 -38.5 -96t-96.5 -39t-96.5 39t-38.5 96z" />
<glyph unicode="&#xf8;" horiz-adv-x="1318" d="M47 104l133 117q-90 142 -90 318q0 244 159.5 403.5t407.5 159.5q226 0 381 -133l133 116l101 -114l-133 -117q88 -141 88 -315q0 -119 -42.5 -223.5t-117 -179.5t-181 -118t-229.5 -43q-221 0 -372 129l-133 -116zM307 539q0 -99 37 -174l539 469q-90 75 -224 75 q-156 0 -254 -103.5t-98 -266.5zM440 242q94 -72 219 -72q155 0 253 103.5t98 265.5q0 94 -35 172z" />
<glyph unicode="&#xf9;" horiz-adv-x="1228" d="M121 412v667h215v-641q0 -122 73 -195.5t197 -72.5q119 0 196 72.5t79 171.5v665h215v-1079h-203v137q-58 -74 -148 -118t-198 -44q-202 0 -314 121t-112 316zM301 1470l98 158l447 -285l-86 -139z" />
<glyph unicode="&#xfa;" horiz-adv-x="1228" d="M121 412v667h215v-641q0 -122 73 -195.5t197 -72.5q119 0 196 72.5t79 171.5v665h215v-1079h-203v137q-58 -74 -148 -118t-198 -44q-202 0 -314 121t-112 316zM326 1343l448 285l98 -158l-458 -266z" />
<glyph unicode="&#xfb;" horiz-adv-x="1228" d="M121 412v667h215v-641q0 -122 73 -195.5t197 -72.5q119 0 196 72.5t79 171.5v665h215v-1079h-203v137q-58 -74 -148 -118t-198 -44q-202 0 -314 121t-112 316zM231 1243l275 350h184l268 -350h-192l-172 215l-170 -215h-193z" />
<glyph unicode="&#xfc;" horiz-adv-x="1228" d="M121 412v667h215v-641q0 -122 73 -195.5t197 -72.5q119 0 196 72.5t79 171.5v665h215v-1079h-203v137q-58 -74 -148 -118t-198 -44q-202 0 -314 121t-112 316zM227 1421q0 63 45 104.5t109 41.5q62 0 104.5 -43t42.5 -107t-43.5 -105.5t-107.5 -41.5q-62 0 -106 42.5 t-44 108.5zM659 1421q0 64 44 105t108 41q62 0 106 -43t44 -107t-44 -105.5t-108 -41.5q-63 0 -106.5 42.5t-43.5 108.5z" />
<glyph unicode="&#xfd;" horiz-adv-x="1126" d="M16 1079h224l313 -901l336 901h225l-426 -1079l-143 -367h-213l147 367h-61zM295 1343l446 285l99 -158l-457 -266z" />
<glyph unicode="&#xfe;" d="M133 -367v1864h217v-567q136 172 369 172q152 0 273 -73.5t188 -202t67 -287.5t-68.5 -288t-190.5 -202.5t-273 -73.5q-232 0 -365 168v-510h-217zM342 539q0 -163 96.5 -266t249.5 -103q147 0 244.5 105t97.5 264q0 160 -97 265t-245 105q-153 0 -249.5 -103.5 t-96.5 -266.5z" />
<glyph unicode="&#xff;" horiz-adv-x="1126" d="M16 1079h224l313 -901l336 901h225l-426 -1079l-143 -367h-213l147 367h-61zM197 1421q0 63 44.5 104.5t108.5 41.5q62 0 105 -43t43 -107t-44 -105.5t-108 -41.5q-62 0 -105.5 42.5t-43.5 108.5zM627 1421q0 63 44.5 104.5t108.5 41.5q62 0 106 -43t44 -107 q0 -63 -45 -105t-109 -42q-62 0 -105.5 42.5t-43.5 108.5z" />
<glyph unicode="&#x152;" horiz-adv-x="2310" d="M82 711q0 156 56 293.5t152.5 234.5t231.5 153t287 56q155 0 284 -58t220 -163v196h909v-190h-692v-406h620v-188h-620v-449h704v-190h-921v197q-91 -105 -220 -163.5t-284 -58.5q-203 0 -369.5 95.5t-262 264t-95.5 376.5zM303 711q0 -232 142 -380.5t364 -148.5 q221 0 362.5 148.5t141.5 380.5q0 233 -140.5 381.5t-363.5 148.5q-224 0 -365 -148t-141 -382z" />
<glyph unicode="&#x153;" horiz-adv-x="2140" d="M72 539q0 244 159.5 403.5t407.5 159.5q147 0 266 -58t195 -163q77 104 191.5 163.5t246.5 59.5q121 0 224 -45.5t171.5 -120.5t107 -172.5t38.5 -202.5q0 -66 -6 -96h-869q25 -137 122 -218t233 -81q120 0 192 42.5t111 129.5l178 -113q-145 -252 -486 -252 q-146 0 -263.5 58t-192.5 160q-77 -102 -195.5 -160t-263.5 -58q-163 0 -293 73.5t-202 202.5t-72 288zM289 539q0 -161 98 -265t254 -104q147 0 242 92.5t106 241.5v35v32q-9 152 -104 245t-244 93q-156 0 -254 -103.5t-98 -266.5zM1206 633h660q-22 136 -109 215.5 t-213 79.5q-127 0 -220.5 -79t-117.5 -216z" />
<glyph unicode="&#x178;" horiz-adv-x="1282" d="M6 1423h244l391 -655l391 655h244l-526 -839v-584h-218v584zM266 1729q0 65 45 107t111 42q63 0 106 -44t43 -110q0 -64 -44 -106.5t-109 -42.5q-63 0 -107.5 44t-44.5 110zM711 1729q0 65 45 107t110 42q64 0 108 -44t44 -110q0 -64 -45.5 -106.5t-110.5 -42.5 q-63 0 -107 44t-44 110z" />
<glyph unicode="&#x2c6;" horiz-adv-x="722" d="M61 1243l275 350h184l268 -350h-192l-170 217l-172 -217h-193z" />
<glyph unicode="&#x2dc;" horiz-adv-x="876" d="M61 1350q20 87 76 149t148 62q43 0 80.5 -16t61 -35.5t54.5 -35.5t62 -16q40 0 67.5 25.5t36.5 68.5l152 -63q-22 -90 -76 -150.5t-148 -60.5q-43 0 -81.5 16t-62 35t-54 35t-60.5 16q-40 0 -67.5 -25.5t-36.5 -68.5z" />
<glyph unicode="&#x2000;" horiz-adv-x="953" />
<glyph unicode="&#x2001;" horiz-adv-x="1907" />
<glyph unicode="&#x2002;" horiz-adv-x="953" />
<glyph unicode="&#x2003;" horiz-adv-x="1907" />
<glyph unicode="&#x2004;" horiz-adv-x="635" />
<glyph unicode="&#x2005;" horiz-adv-x="476" />
<glyph unicode="&#x2006;" horiz-adv-x="317" />
<glyph unicode="&#x2007;" horiz-adv-x="317" />
<glyph unicode="&#x2008;" horiz-adv-x="238" />
<glyph unicode="&#x2009;" horiz-adv-x="381" />
<glyph unicode="&#x200a;" horiz-adv-x="105" />
<glyph unicode="&#x2010;" horiz-adv-x="780" d="M117 422v178h545v-178h-545z" />
<glyph unicode="&#x2011;" horiz-adv-x="780" d="M117 422v178h545v-178h-545z" />
<glyph unicode="&#x2012;" horiz-adv-x="780" d="M117 422v178h545v-178h-545z" />
<glyph unicode="&#x2013;" horiz-adv-x="1054" d="M117 422v178h821v-178h-821z" />
<glyph unicode="&#x2014;" horiz-adv-x="1585" d="M117 422v176h1351v-176h-1351z" />
<glyph unicode="&#x2018;" horiz-adv-x="421" d="M72 1106q0 58 39 143l100 215h129l-109 -233q49 -6 80 -39.5t31 -87.5q0 -60 -39 -98.5t-96 -38.5q-58 0 -96.5 39t-38.5 100z" />
<glyph unicode="&#x2019;" horiz-adv-x="421" d="M90 1337q0 60 39 99t96 39q58 0 96.5 -39.5t38.5 -100.5q0 -60 -38 -143l-103 -215h-127l109 233q-49 6 -80 39.5t-31 87.5z" />
<glyph unicode="&#x201a;" horiz-adv-x="428" d="M80 106q0 59 38.5 98.5t94.5 39.5q58 0 96.5 -39.5t38.5 -100.5q0 -64 -39 -143l-100 -215h-127l108 236q-49 5 -79.5 37.5t-30.5 86.5z" />
<glyph unicode="&#x201c;" horiz-adv-x="761" d="M72 1106q0 58 39 143l100 215h129l-109 -233q49 -6 80 -39.5t31 -87.5q0 -60 -39 -98.5t-96 -38.5q-58 0 -96.5 39t-38.5 100zM414 1106q0 64 39 143l100 215h127l-109 -233q49 -6 80 -39.5t31 -87.5q0 -60 -39 -98.5t-96 -38.5q-56 0 -94.5 39t-38.5 100z" />
<glyph unicode="&#x201d;" horiz-adv-x="761" d="M90 1337q0 60 39 99t96 39q58 0 96.5 -39.5t38.5 -100.5q0 -60 -38 -143l-103 -215h-127l109 233q-49 6 -80 39.5t-31 87.5zM432 1337q0 59 38.5 98.5t94.5 39.5q58 0 96.5 -39.5t38.5 -100.5q0 -66 -38 -143l-101 -215h-127l109 233q-49 6 -80 39.5t-31 87.5z" />
<glyph unicode="&#x201e;" horiz-adv-x="768" d="M80 106q0 59 38.5 98.5t94.5 39.5q58 0 96.5 -39.5t38.5 -100.5q0 -64 -39 -143l-100 -215h-127l108 236q-49 5 -79.5 37.5t-30.5 86.5zM420 106q0 60 39 99t96 39q56 0 95.5 -39.5t39.5 -100.5q0 -58 -39 -143l-102 -215h-127l108 236q-49 5 -79.5 37.5t-30.5 86.5z" />
<glyph unicode="&#x2022;" horiz-adv-x="753" d="M143 694q0 101 67.5 169.5t166.5 68.5q98 0 165.5 -68.5t67.5 -169.5q0 -98 -67.5 -164.5t-165.5 -66.5q-99 0 -166.5 66.5t-67.5 164.5z" />
<glyph unicode="&#x2026;" horiz-adv-x="1232" d="M84 115q0 59 39 98t96 39q59 0 97 -38.5t38 -98.5q0 -57 -38.5 -95t-96.5 -38q-57 0 -96 38t-39 95zM481 115q0 59 38.5 98t96.5 39q59 0 97.5 -38.5t38.5 -98.5q0 -57 -39 -95t-97 -38q-57 0 -96 38t-39 95zM881 115q0 60 38 98.5t95 38.5q59 0 97 -38.5t38 -98.5 q0 -57 -38.5 -95t-96.5 -38q-57 0 -95 38t-38 95z" />
<glyph unicode="&#x202f;" horiz-adv-x="381" />
<glyph unicode="&#x2039;" horiz-adv-x="604" d="M68 508l229 344h205l-230 -344l230 -346h-205z" />
<glyph unicode="&#x203a;" horiz-adv-x="604" d="M102 162l230 346l-230 344h205l230 -344l-230 -346h-205z" />
<glyph unicode="&#x205f;" horiz-adv-x="476" />
<glyph unicode="&#x20ac;" horiz-adv-x="1538" d="M55 461l15 143h145q-4 46 -4 72q0 24 4 74h-123l14 143h136q65 221 247 353t424 132q186 0 326 -73t227 -197l-184 -127q-122 193 -373 193q-151 0 -265.5 -74.5t-170.5 -206.5h475l-12 -143h-500q-4 -50 -4 -74q0 -26 4 -72h475l-14 -143h-424q56 -130 171.5 -204.5 t266.5 -74.5q254 0 373 193l184 -127q-83 -125 -223 -199t-330 -74q-243 0 -425.5 132.5t-247.5 353.5h-187z" />
<glyph unicode="&#x2122;" horiz-adv-x="1316" d="M55 1274v104h457v-104h-170v-465h-117v465h-170zM571 809l41 569h140l133 -405l135 405h137l41 -569h-111l-28 395l-123 -375h-100l-125 375l-29 -395h-111z" />
<glyph unicode="&#x25fc;" horiz-adv-x="1075" d="M0 0v1075h1075v-1075h-1075z" />
</font>
</defs>
</svg>
